<svg xmlns="http://www.w3.org/2000/svg" viewBox="0 0 229.64 264.1"><defs><style>.cls-1{fill:#f7f5f5;}.cls-2{fill:#00a4ff;opacity:0.14;}.cls-3{fill:#106a8e;opacity:0.11;}.cls-4{fill:#008cff;}.cls-5{fill:#fff;}</style></defs><title>Asset 2</title><g id="Layer_2" data-name="Layer 2"><g id="Layer_1-2" data-name="Layer 1"><path class="cls-1" d="M167.09,88.34a320.23,320.23,0,0,1-29.63-36.22C128,38.42,118,22.72,115.52,5.9a39.87,39.87,0,0,1-.44-5.67c0,1.21,0,2.42-.16,3.62,0,.44-.08.88-.14,1.31-1.25,10.61-6.3,20.91-11.41,30a248.86,248.86,0,0,1-23,33.48Q72,79.1,62.78,88.76c-2.93,3.07-6.31,5.92-8.94,9.22a97.54,97.54,0,0,0-6.74,9.28,80.05,80.05,0,1,0,134.13-2.83C178,99.65,174,95.61,170,91.43,169,90.4,168.06,89.38,167.09,88.34Z" transform="translate(-1.13)"/><path class="cls-2" d="M115.08,224.28l-2-1.24,2-3.08,3.09-1.85,6.47-3.54,5.55-2.93,4.32-5.24,4.31-3.7,2-.62,3.86-5.09,7.4-15.26L149,179H138.36l-2.93-3.85-1.85-2.47-3.08-1.85h-4.78l-3.08-3.39h-2l-1.85-2.16-2.31-1.08-2.16.93-4.55-.93h-2.54l-2.46-1.23-5.09,4-2.2-.31-1.23-.89-2.51.23-1.85-.54-.84-.81-.43-.54v-2.69l.35-3.55-1.77-1.35-1-.46h-3L85,154.76l1.5-2.43.58-1.62-.16-2.31H84.06l-1.19,1.43L81.56,151l-1.78.5-1.88-.11-1.16-1.31-.81-2.74v-3.54l.5-2.59,1-2.23,1.31-1.24,1.93-.57h2.62l1.43,1.23,1,0,.35-1.27h3.19l1.47,1.38,1.66-.07.8,4.12,1.08,1.81,1.66.08-.08-4.7-.34-3.55,2.31-2.43,3.7-1.81,1.66-3.62,2.38-3.7,2.66-.27-.38-2.12,2.81-2.12,1.16-.34.81,1.65,3-1.08,2.39-2.69-2.31.5L114,117.3l-.46-2.66-2.62.81-.89-.27,2.86-1.77,1.88,1,3-1.81,1-.46,1.82-1.93-1.82-1.89-2-1.89-1.89-1.58L112.89,102l-1.16,1.62-1.35.39-.62-2.39-2.42-1.39-2.85-.73-1.78.31.93,2-.19,2.2.61,1.34-.34,1.43a15.21,15.21,0,0,0-1.66.77l-.85.81v3.16l-.81.08-1-4.24-2.78-2-3.27-1.43L93,101l2.31-1.81,2.85-1,1-.77,1.7,2.16-.19.73,1.08-.62.46-1.07.77,0-.54-1.23-.81-.54,0-1,.77-.54h.89l.65-.35.19-1.77.74-.5.88.85,0,.89,2.08.57-.54,1.24-2.54,1,.19.77,1.74.31,1.35.3,1.31,1.2,1.92.58.54-.54.7-.2-.2-1.73-1.23-1.39,2.5.54V95.45L111.19,94l-.42-2L109,90.13l-2.12-1.38-2.23-.2,1.54-1.42.81-.54,1.12-.19V84.62l1.61-.42,1.32-.73.53.85-1.85,1.11,1,1.54,2.58-.15,2.16,3.08,1.58,2.28,1,.5-.27,1.77,1.73,3.12,2.7,2.35,3.59,1.51,1-.24L126,95.34l2-2,.58-2,1.2-1.58-.62-1.89L127,85.63l-1.42-1.81-2.78-1.2L121.06,81l-3.12-.61h-1.87l-1.19,1-2.25,1-.87-.75-1.36-.44-2.05.5-1.53.52-1.94.83-.2,1.8-.67,1.9-.75-2.48-.6-1-1.16,2.28-.72,3-1.68-.95.09-1.91-.35-.89-.9-1.33L95.26,84l.86,2.23,1,1,.78.34-.61,1.28-2.11-.87L94,85s-3.06,1.21-3.06,1.3.52,2,.52,2l-.66.95-1-.95-3-1.65,0-4.45-2.4-1-1.85.57L80.89,82l-.65.53L78.9,83.86,76.22,84l-.29,1-1.6.11-1.57,2.62-.88,1.15H68.36a5.44,5.44,0,0,0,.61,1l1.38.58.22.57L72,90.56l.81-.39.46-.3.9.51s.66,1.62.69,1.6-.38,1.15-.38,1.15l-.63,2.57-1,1L72.1,98.9l-.23,1.54-1.3,2.16L70,104.3l-.52,2.37-.7,2.19-1.27,2.28-1.93,2.19-2.08,2.82-.88,3-.39,3.55,1.47,4.7,1.19,3.51.35,2.08-1.5-1-1.28,2.73,1.93,6.67,1.31-1.7.19,2.2,1,2.78L68.15,148,70,151.06l1.61,1,2,1.7,1,.88H78.2l1.93,2.16,2.08,2.58,2.39.5,2.74,2.7,1.19,2.54,3.12,2.78L94.74,169l.46-1.7,1.69-.19.81,2,.35,3.24-1.89,2.85-1,2.08-.81,3.24.08,1.93-.39,2.5.87,1,1.73-.35.18,1-1.27,1.27.57,1.79L98.55,192l1.27,1.85,2.47,1.85,2.74,2.55,1.21.69,1.5,1,.23,2.14.41,2.66-.64,3.81-.17,2.84V215l.06,2.31.11,2.2-.6,1,.26,1.91,2.36,1.15,2.84.68Z" transform="translate(-1.13)"/><path class="cls-3" d="M166.86,88.11a318.08,318.08,0,0,1-29.63-36.22c-9.5-13.71-19.47-29.4-21.94-46.22A38.46,38.46,0,0,1,114.85,0c0,1.21,0,2.42-.16,3.62,0,.44-.08.88-.14,1.31-.4,3.39,7.4,54.62,35.6,85.78a115.93,115.93,0,0,1,25.26,47,59.65,59.65,0,0,1-14.65,57.09,133.94,133.94,0,0,1-24.35,19.45c-4.59,3-9.14,6-13.87,8.71-2.36,1.37-4.76,2.67-7.21,3.86a19.27,19.27,0,0,1-3.32,1.39,14.88,14.88,0,0,1-3.4.69c1.8.68,4.31.34,6.24.34A80,80,0,0,0,181,104.2c-3.26-4.78-7.23-8.82-11.22-13Z" transform="translate(-1.13)"/><path class="cls-4" d="M97.21,128.22h11.71V160.7q0,10-4.87,15.44t-13.78,5.48a18.06,18.06,0,0,1-8.12-1.85A16.39,16.39,0,0,1,76,174.52a16.64,16.64,0,0,1-14.16,7.1q-9,0-13.82-5.48T43.14,160.7V128.22h11.7V160.7c0,3.22.65,5.7,1.93,7.44a6.45,6.45,0,0,0,5.51,2.6,6.77,6.77,0,0,0,5.63-2.6q2-2.61,2-7.44L70,128.22H82L82,160.7q0,4.83,2,7.44a6.81,6.81,0,0,0,5.67,2.6,6.51,6.51,0,0,0,5.55-2.6q1.92-2.61,1.92-7.44Z" transform="translate(-1.13)"/><path class="cls-4" d="M175,128.22h11.71V160.7q0,10-4.87,15.44t-13.78,5.48a18.1,18.1,0,0,1-8.12-1.85,16.46,16.46,0,0,1-6.16-5.25,16.64,16.64,0,0,1-14.16,7.1q-9,0-13.82-5.48t-4.87-15.44V128.22h11.7V160.7c0,3.22.65,5.7,1.93,7.44a6.45,6.45,0,0,0,5.51,2.6,6.77,6.77,0,0,0,5.63-2.6q2-2.61,2-7.44l.08-32.48h11.93l.07,32.48q0,4.83,2,7.44a6.81,6.81,0,0,0,5.67,2.6,6.51,6.51,0,0,0,5.55-2.6q1.92-2.61,1.92-7.44Z" transform="translate(-1.13)"/><path class="cls-5" d="M10.05,245.35l.07-.28a.91.91,0,0,1,.14-.31l.17-.28a1.39,1.39,0,0,0,.34-.63c.05-.15.08-.25.1-.3a.37.37,0,0,1,.38-.23,1.94,1.94,0,0,0,.53-.06,1.15,1.15,0,0,0,.19.17.36.36,0,0,0,.29,0c.06,0,.1-.06.1-.1s0-.1-.12-.11l-.39,0a.35.35,0,0,0-.07-.46h0l-.22-.14c-.11-.1-.13-.2-.05-.28l.29-.23a.57.57,0,0,0,.22.17l0,0-.22-.19a.35.35,0,0,1,.36-.18l.53,0a.71.71,0,0,1,.43.19h-.31a.26.26,0,0,0-.17.07.31.31,0,0,0-.12.22c0,.06,0,.1.1.12h.09c.26-.08.39-.22.41-.43l.27-.34a.79.79,0,0,1,.33-.28c.08.07.11.08.07,0h-.09c0-.15.05-.22.05-.23s.09-.14.24-.09a.38.38,0,0,1,.28.19s.08.19.17.45l-.09,0-.1,0a.38.38,0,0,0-.26.07s0,.12.09.2a.48.48,0,0,1,0,.12.42.42,0,0,1,0-.14.6.6,0,0,0,.34-.21l.1.21a6.16,6.16,0,0,1,0,1.2.77.77,0,0,1-.12.37.32.32,0,0,0-.07.3,1.38,1.38,0,0,1-.1,1s0,.14-.07.3a.9.9,0,0,1-.26.43.66.66,0,0,0-.22.61,1,1,0,0,1-.1.46,4.68,4.68,0,0,1-.43,1,.36.36,0,0,0-.07.24,1.89,1.89,0,0,1-.12.55c-.35,1-.64,1.83-.87,2.53a5.21,5.21,0,0,0-.26,1.34c0,.07,0,.38-.07.94a2.81,2.81,0,0,1-.24.77.47.47,0,0,0-.08.53,3.64,3.64,0,0,1,.12.86c0,.26,0,.66.08,1.19a1.1,1.1,0,0,0,.19.61.18.18,0,0,0,.17.07.4.4,0,0,0,.21,0,.68.68,0,0,0,.27-.23,3.39,3.39,0,0,0,.45-.89,5.65,5.65,0,0,1,.29-.73c.16-.33.27-.57.32-.71a1.74,1.74,0,0,1,.31-.5,21.31,21.31,0,0,1,1.2-2l1.25-1.92c.63-.92,1.16-1.75,1.61-2.52a1.35,1.35,0,0,1,.39-.46l0,0,.12.13a1.45,1.45,0,0,0,.67.32.35.35,0,0,0,.39-.09,2,2,0,0,1,.14-.21h0a1.76,1.76,0,0,1,.67-.16h0a1.49,1.49,0,0,0-.07.24,6.94,6.94,0,0,0-.85,2c0,.12,0,.19-.07.21a.84.84,0,0,0-.14.63,2.46,2.46,0,0,1-.24,1.07,7.07,7.07,0,0,0-.34.8c-.14.38-.25.64-.31.78a3.24,3.24,0,0,1-.36.66.68.68,0,0,0-.46-.37l0-.14v-.08c0-.1-.06-.16-.12-.17s-.15,0-.2.14a1.13,1.13,0,0,0-.29-.05c-.08,0-.11,0-.09.07s0,0,.09,0h.1l.19,0a.83.83,0,0,0,.32.23c.09.08.24.21.45.37a2.7,2.7,0,0,1-.19.7c0,.07,0,.14.1.21a.29.29,0,0,0,.28.08.65.65,0,0,0,.39-.25.77.77,0,0,0,.12-.22c0-.06.24-.62.62-1.67a12,12,0,0,1,.8-1.81,2.09,2.09,0,0,0,.19-.37c.08-.19.14-.31.17-.37a.94.94,0,0,1,.36-.4,14.12,14.12,0,0,1-.77,1.89c-.19.4-.39.88-.6,1.45a10.18,10.18,0,0,1-.63,1.42c0,.09-.15.31-.31.68a1.69,1.69,0,0,0-.17.77,2.57,2.57,0,0,1-.31,1.09c-.21.44-.38.76-.5,1s-.2.32-.36.61a7.19,7.19,0,0,1-.37.62c0,.05-.13.27-.31.68a.87.87,0,0,1-.33.39,1,1,0,0,0-.29.32c0,.06-.07.08,0,.07a2.84,2.84,0,0,1-1.42,1.25,1,1,0,0,1-.41.09l-.65,0a1.47,1.47,0,0,1-.41-.05,5.65,5.65,0,0,0-.93-.15l-.32-.07a.82.82,0,0,1-.4-.23.41.41,0,0,1-.1-.14,1.47,1.47,0,0,0-.79-.62.74.74,0,0,1-.36-.38,1.37,1.37,0,0,1-.1-.23,12.82,12.82,0,0,0-.43-1.55,1.1,1.1,0,0,0-.05-.32,1.51,1.51,0,0,1,.05-.95.93.93,0,0,0,.05-.14.45.45,0,0,0,0-.32l-.12-.27-.12-.25a.86.86,0,0,1,0-.55l0-.07A3,3,0,0,0,9.5,254a9,9,0,0,1,.16-1.66,1.39,1.39,0,0,0,0-.32c0-.17,0-.28,0-.32q.07-.45.12-.63a2.88,2.88,0,0,0,.1-.78c0-.47,0-.7,0-.72s0-.21,0-.39L9.81,249a.8.8,0,0,1-.05-.23l.07-.23a1.19,1.19,0,0,1,.05-.23.79.79,0,0,0,0-.49.13.13,0,0,0-.17-.07l-.17.09a1.12,1.12,0,0,0-.38.55l-.1.33A1.86,1.86,0,0,1,9,249a1.25,1.25,0,0,1-.44.62v0a.63.63,0,0,1-.12.31c-.08.09-.21.29-.41.59s-.32.45-.43.6a.59.59,0,0,0-.12.29.65.65,0,0,1-.07.39,1.27,1.27,0,0,0-.14.61,1.35,1.35,0,0,1-.17.69,25.63,25.63,0,0,0-.94,2.5c-.08.2-.22.56-.41,1.07l-.14.28c0-.12-.09-.18-.27-.19s-.12,0-.12.09,0,.1.1.1H5.6a5.62,5.62,0,0,1-.26.69,1.31,1.31,0,0,0-.24.68,2.35,2.35,0,0,1-.77,1.3.67.67,0,0,1-.58.14l-.41-.09-.46-.1a1.83,1.83,0,0,0-.45-.11.69.69,0,0,1-.55-.34,2.46,2.46,0,0,1-.39-1.39,16.07,16.07,0,0,0-.24-2.05,3,3,0,0,1-.07-.79,17.34,17.34,0,0,0-.05-1.9.82.82,0,0,1,.05-.32c0-.08.1-.33.21-.77a2.65,2.65,0,0,1,.75-1.3l.24-.22.24-.21a1.79,1.79,0,0,0,.12-.21.11.11,0,0,0-.05-.16,2.42,2.42,0,0,0-.24-.15c-.33-.09-.48-.28-.43-.57,0-.13,0-.28.07-.46q.12-.68.12-.63c0-.16.07-.51.17-1a7.07,7.07,0,0,1,.34-1.23c.09-.3.14-.45.14-.46a2,2,0,0,0,.05-.72,3.18,3.18,0,0,1,0-1.26c0-.2.08-.37.09-.49a2.49,2.49,0,0,1,.17-.69,1.77,1.77,0,0,0,.15-.62,1.85,1.85,0,0,1,.07-.31.58.58,0,0,1,.48-.39l.5-.14a3.22,3.22,0,0,0,1.25-.45,3.07,3.07,0,0,1,1.06-.34H7a.35.35,0,0,1,.24.13.59.59,0,0,1,.12.37,2.38,2.38,0,0,1,0,.41,2.86,2.86,0,0,0,0,.63.73.73,0,0,1-.19.53.65.65,0,0,0-.14.38q0,.28,0,.39a4.77,4.77,0,0,1-.65,2.08,2.85,2.85,0,0,0-.14.29.79.79,0,0,0-.1.32,4,4,0,0,1-.33,1.23c.06-.18-.33.84-1.18,3a.09.09,0,0,1,0,.05v0A7.24,7.24,0,0,0,4,250.93a2.46,2.46,0,0,1-.1.59c0,.26-.08.46-.09.61a3.21,3.21,0,0,1-.12.62,2.55,2.55,0,0,0-.12.87c0,.14.08.19.19.17a.71.71,0,0,0,.19-.06l.15-.12s0-.06.24-.27.25-.29.29-.32a.84.84,0,0,1,.24-.16,1.19,1.19,0,0,0,.57-.56c.07-.09.34-.55.82-1.37a2.44,2.44,0,0,1,.19-.28c.16-.24.35-.58.58-1a11.71,11.71,0,0,1,.6-1,.83.83,0,0,1,.41-.35l-.31.5a.32.32,0,0,0,0,.3c0,.05.06.07.14.07a.28.28,0,0,0,.27-.09c.22-.25.22-.46,0-.64l-.1-.14c0-.1,0-.15,0-.15s0-.08.17-.28a.19.19,0,0,1,.15-.11,1.1,1.1,0,0,0,.67-.46.52.52,0,0,0,.07-.11.3.3,0,0,0,.07-.1.53.53,0,0,0,.15-.36,1.27,1.27,0,0,1,0-.23.39.39,0,0,1,.19-.27l.15-.11a.9.9,0,0,0,.12-.18.76.76,0,0,1,.14-.16l.34-.28,0,0ZM7.6,249.84s0,.08,0,.08l0-.06ZM11,256.53l.08,0,0-.07Zm.15-11.91s0,.1,0,.14.09.06.14,0,0-.08,0-.12l-.07,0Zm.43-.53H11.3a.06.06,0,0,0-.07,0c0,.06,0,.09,0,.11a.1.1,0,0,0,.1,0l.24-.16Zm.36.85c-.08,0-.11,0-.09.07s0,.06,0,.06.12,0,.12-.08Zm.46-.87c-.08,0-.13,0-.15.05s0,.11.1.13a.15.15,0,0,0,.17-.08C12.56,244.11,12.52,244.08,12.43,244.07Zm.09,1.76s-.07,0-.07,0,0,.09.07.09l.1,0C12.64,245.86,12.6,245.83,12.52,245.83Zm.46-2.71a.17.17,0,0,0-.19,0c-.07.05-.06.09,0,.13a.15.15,0,0,0,.17,0Zm0-1.83,0-.06.05,0Zm1.88,12.26a.13.13,0,0,0,0,.07.48.48,0,0,0,.15.11.1.1,0,0,0,.16,0s0,0,0-.07a.34.34,0,0,0-.22-.14S14.86,253.54,14.86,253.55Zm.19,1.3a.49.49,0,0,0,0,.11h.07l0-.05Zm1-.3-.07,0c.1-.1.15-.17.17-.19s.05-.17-.07-.18l-.32,0a.11.11,0,0,0-.14.08s0,0,0,.07a.91.91,0,0,0,.36.26Zm-.17-.78-.07,0,.05.06H16v-.07Zm.24,2.65v0h0Zm.46,1.57v.07l.07,0Zm.31-4.42s0,0,.12-.21l0,0c0,.11-.06.19-.07.25Zm1-3.6.07,0,0,0-.07,0Zm.29-2.73,0-.14c.05-.14.18-.21.39-.2v0c-.35.24-.51.36-.46.34Zm.4-.34c.15,0,.21-.09.2-.18s0-.08-.1-.23a.29.29,0,0,1,0-.3l.36-.57.37-.57a4,4,0,0,1,.4-.48,1.45,1.45,0,0,1,.39-.25.11.11,0,0,0,.07-.15.85.85,0,0,1,0-.6A9.25,9.25,0,0,0,21,242.3a2.79,2.79,0,0,1,.17-.41c.08-.21.13-.35.17-.43a.61.61,0,0,1,.07-.14l.12-.12a1.13,1.13,0,0,0,.46-.61c.08-.24.22-.65.43-1.23a1.84,1.84,0,0,1,.43-.71.85.85,0,0,0,.17-.29,3.57,3.57,0,0,0,.14-.43,1.91,1.91,0,0,1,.17-.42h0a2.12,2.12,0,0,1,.14-.21c.26-.23.47-.4.63-.52a3.28,3.28,0,0,1,.69-.36c.21-.05.32,0,.32.15a1.09,1.09,0,0,0,0,.39.33.33,0,0,1,0,.37.77.77,0,0,0-.07.17.4.4,0,0,0,.05.3c-.08-.11.07.06.45.52a.44.44,0,0,1,.12.3q0,.1.15.21a.37.37,0,0,1,.12.2,1,1,0,0,1,0,.39.3.3,0,0,1-.16.2l-.39.12c-.19.06-.19.14,0,.23,0,0,.06.05.19.09l0,0a1.13,1.13,0,0,1-.15.47,8.17,8.17,0,0,1-.91,1.23l-.17.21a1.57,1.57,0,0,1-.36.64,16.58,16.58,0,0,0-1.46,2.22c0,.06-.12.09-.27.1a.45.45,0,0,0-.41.2l-.07.11-.07.1c-.05.09-.11.21-.19.38a2.78,2.78,0,0,1-.75.94c.05,0,0,.08-.26.34a.94.94,0,0,1-.29.23h0a1.18,1.18,0,0,0-.5-.12c-.13,0-.19.05-.19.14l0,.14h0l-.41-.09a.58.58,0,0,1-.45-.4Zm2,2.48v.13h0Zm.5-5.12a.12.12,0,0,0-.16,0s0,.05,0,.07.12,0,.16,0Zm2.38-4.78q-.12,0-.09.09s0,.06,0,.06.12,0,.12-.07Zm.2-1.46h-.08l0,.06.07,0Zm.16,2.09c-.16,0-.21,0-.16.16s.06.08.14.09a1,1,0,0,0,.41-.09s0,0,0-.05,0-.09-.12-.09l-.2,0Zm.65-2.25a.06.06,0,0,0-.07,0c0,.06,0,.09.07.09l.05-.05Z" transform="translate(-1.13)"/><path class="cls-5" d="M22.55,256.19l.21,0c.33,0,.49-.06.51-.28v-.49c0-.34,0-.6,0-.78a1,1,0,0,1,.15-.54,1.24,1.24,0,0,0,.14-.39.41.41,0,0,1,.1-.21.64.64,0,0,0,.17-.25A.66.66,0,0,1,24,253l.22-.45a.62.62,0,0,1,.21-.27l0,0a.53.53,0,0,1,0,.52.09.09,0,0,0,0,.07.18.18,0,0,0,.17.06l.19-.07a1.3,1.3,0,0,1,.5-.06h.1l-.12,0v-.16c0-.1.08-.15.19-.18s.22-.12.17-.23v-.09a.24.24,0,0,1,.17-.27.37.37,0,0,0,.24-.32c0-.09,0-.15-.15-.18a.24.24,0,0,0-.19,0l-.14.11a.35.35,0,0,1-.29.07,1.21,1.21,0,0,0-.82.09s0,0-.21.16a.18.18,0,0,1-.2,0s0,0,0-.07a.42.42,0,0,1,.29-.47l0,0,.07-.14c0-.06.07-.11,0-.15a.47.47,0,0,1,0-.39,10.67,10.67,0,0,1,.93-2,.7.7,0,0,0,.12-.22,3.65,3.65,0,0,1,.48-.87,2.79,2.79,0,0,1,.46.18q.16,0,.15-.06a.13.13,0,0,0-.1,0l-.51-.09c-.19,0-.28-.14-.26-.29a1.5,1.5,0,0,1,.31-.92l.6-.75a1.5,1.5,0,0,1,.75-.54.65.65,0,0,0,.31-.23c.39-.52.64-.87.77-1a.55.55,0,0,0,.1-.24,1.27,1.27,0,0,1,.21-.6.53.53,0,0,1,.24-.25l.36-.18a1.16,1.16,0,0,0,.2-.18s0,0,0-.07a2.2,2.2,0,0,1,.89-.95,6.16,6.16,0,0,1,2.34-.76,5.78,5.78,0,0,1,1.46,0,7.06,7.06,0,0,1,1.68.54,7.64,7.64,0,0,0,.92.39,1.28,1.28,0,0,1,.91.93,5.85,5.85,0,0,1,.22,1.26,2.23,2.23,0,0,0,.17.79.83.83,0,0,1,0,.39c0,.75-.06,1.35-.09,1.82a2.43,2.43,0,0,1-.15.62c-.09.29-.22.78-.38,1.48a11.71,11.71,0,0,1-.84,2.62,12.49,12.49,0,0,0-.72,1.68c0,.06-.08.18-.17.37a1.62,1.62,0,0,0-.15.38,1,1,0,0,1-.5.59.1.1,0,0,0-.07.14.34.34,0,0,1,0,.37s-.09.15-.21.36l-.2.29a1,1,0,0,1-.79.46.14.14,0,0,0-.14.11.5.5,0,0,0,0,.16c0,.12,0,.24-.17.37a6.41,6.41,0,0,1-.74.55l-.63.43a4,4,0,0,1-1.27.59,17,17,0,0,1-2.12.54l-.43,0a.54.54,0,0,1-.29-.07l-.21-.13a1.24,1.24,0,0,0-.22-.12.39.39,0,0,0-.38,0,.42.42,0,0,1-.15.07.4.4,0,0,1-.12.07.83.83,0,0,1-.72,0c-.26-.11-.68-.25-1.27-.43a1.47,1.47,0,0,1-.29-.09l-.29-.09a.92.92,0,0,0-.31,0,1,1,0,0,1-.75-.25.23.23,0,0,1-.07-.29,1.09,1.09,0,0,1,.05-.14c0-.11,0-.18-.1-.21a.65.65,0,0,1-.33-.4,2,2,0,0,0-.37-.66Zm2.5-2.71s-.05,0-.1,0l0,.07C25.07,253.57,25.1,253.54,25.05,253.48Zm.72-.27v0l0,0ZM31,254.82l0,.09h-.1a1.54,1.54,0,0,1,.58-.66,1.38,1.38,0,0,0,.26-.25l.72-.79a.27.27,0,0,0,.08-.14,1.63,1.63,0,0,1,.33-.75A6.64,6.64,0,0,0,33.87,250a2.15,2.15,0,0,0,.12-.5c0-.26.08-.44.1-.52a4,4,0,0,0,.14-1.1,18,18,0,0,1,.12-2.31.86.86,0,0,0,0-.32c-.05-.32-.1-.63-.17-.94a.67.67,0,0,0-.21-.36.24.24,0,0,0-.19,0h-.1a2.3,2.3,0,0,0-1,.58l-.75.78c-.3.31-.54.56-.72.77l-.43.46a5,5,0,0,0-.43.45s-.32.31-.89.91l0,0a6.88,6.88,0,0,1-.53.76.53.53,0,0,0-.12.29,1.72,1.72,0,0,1-.21.43l-.51.68s-.06,0-.14,0-.11,0-.12,0a.81.81,0,0,1-.12-.22l.05-.05c0-.05,0-.09-.05-.13a5.35,5.35,0,0,0,0-.92l0,0-.39,0a.85.85,0,0,1-.38-.09l-.41,0s-.05,0-.05,0,0,.05,0,.07a.08.08,0,0,0,.08,0,1.16,1.16,0,0,0,.38-.13,1.41,1.41,0,0,0,.07.86l0,.14a.21.21,0,0,1-.08.22l-.81.6-.1.13c-.1.07-.11.11-.05.12s.08,0,.1-.12l0-.15a7.79,7.79,0,0,1,.84.5.6.6,0,0,1,.2.18,5,5,0,0,1,.24.45,3,3,0,0,1-.17.91.18.18,0,0,0-.07.16,3.28,3.28,0,0,1-.12.78A2.76,2.76,0,0,0,27,254a1.15,1.15,0,0,0,0,.39,1,1,0,0,0,.26.51.6.6,0,0,1,.14.68,2,2,0,0,0-.09.31.32.32,0,0,0,0,.16.35.35,0,0,0,.2.34.65.65,0,0,0,.43.07,2.68,2.68,0,0,0,.86-.29l.37-.18a5.66,5.66,0,0,0,1.2-.78,1.09,1.09,0,0,1,.53-.25Zm-4.88-2.16s-.05,0-.05,0,0,.09.07.1.12,0,.12-.07S26.19,252.65,26.11,252.66Zm1.2-5.9-.07,0a.8.8,0,0,0-.15-.19.3.3,0,0,0-.17-.09q-.21-.08-.24.09a.11.11,0,0,0,.08.14l.19.05.31,0Zm.41-1.61c-.07.08,0,.15.05.22a.23.23,0,0,0,.19,0c.14,0,.19-.09.14-.17L28,245l.14-.1-.07,0L28,245A.49.49,0,0,0,27.72,245.15ZM28.77,244a.27.27,0,0,0-.16.07c-.07,0-.08.08-.05.14a.26.26,0,0,0,.14.09.6.6,0,0,0,.48-.09v-.07A.45.45,0,0,0,28.77,244Zm.53,1,.05,0,0-.07-.08,0a.15.15,0,0,0,0,.06Zm1.09-.3h.07l-.05-.05Zm.31,10.88c.06,0,.08-.1.05-.14a.12.12,0,0,0-.17,0c-.08,0-.1.07,0,.12l.07.06Zm.05-10.17s0,0,0,0,0-.1-.09-.09l-.07.05C30.63,245.39,30.67,245.42,30.75,245.4Zm2.09,9.19c0-.1-.07-.16-.19-.18h-.1a1.53,1.53,0,0,0-.53.25.22.22,0,0,0-.1.28.32.32,0,0,0,.29.2.34.34,0,0,0,.22,0,1,1,0,0,0,.41-.44Zm.62-.22a.52.52,0,0,1-.09.38v.07c0,.12.09.18.28.2a.16.16,0,0,0,.17-.06.8.8,0,0,0,.17-.44.41.41,0,0,0-.14-.36.2.2,0,0,0-.27-.07c-.08,0-.12.08-.12.12Zm1-11.14a.19.19,0,0,0-.19.07c-.07.1,0,.14.16.14s.12,0,.12-.09A.12.12,0,0,0,34.45,243.23Zm.12,11.38c0-.08,0-.11-.1-.11s-.07,0-.07.05,0,.09.1.09Zm0-2.16-.07-.23c0-.06.06-.06.07,0h-.07a.19.19,0,0,1,.07.2Zm.63-1.73s0,0,0,.05,0,.08.12.07l.07-.05C35.36,250.73,35.31,250.71,35.22,250.72Z" transform="translate(-1.13)"/><path class="cls-5" d="M48.32,251.34a2.74,2.74,0,0,1,.48.39,3.74,3.74,0,0,1,1,2s0,.2.07.56v0l-.39-.11a.2.2,0,0,0-.24.11.28.28,0,0,1-.21.16,3.31,3.31,0,0,0-.73.16h.05a.4.4,0,0,0-.24.43v.05q-.45.18-.33.48l0,.15s0,0,0,.07a.18.18,0,0,1-.2,0l-.09-.13s-.12-.09-.27-.25h0a10.5,10.5,0,0,1-1.06-1.55c-.1-.17-.19-.31-.27-.43-.28-.38-.66-.86-1.12-1.44a.55.55,0,0,0-.32-.2.2.2,0,0,0-.19,0c-.1.06-.14.1-.14.12-.24.37-.42.66-.53.86a1.37,1.37,0,0,0-.2.46,3.68,3.68,0,0,1-.38,1,1.53,1.53,0,0,0-.17.69,11.13,11.13,0,0,1-.41,2.37,1,1,0,0,0,0,.55,1.2,1.2,0,0,1-.07.7,3,3,0,0,0-.12.71,2,2,0,0,1-.15.31l0,0a.72.72,0,0,1-.24.5s0,.09,0,.16v.14a.3.3,0,0,1-.07.16l-.12.25a.69.69,0,0,1-.17.25.15.15,0,0,0,0,.21l.09.15c0,.07,0,.12,0,.14l-.21.36A.46.46,0,0,1,41,262l-.19,0c-.19,0-.24.13-.15.25a.57.57,0,0,0,.39.23s.07,0,.07.06-.05.1-.14.09a1.75,1.75,0,0,0-.63,0,1.57,1.57,0,0,0,.07-.23.59.59,0,0,0,0-.21.22.22,0,0,0-.2-.13.39.39,0,0,0-.24.05.36.36,0,0,0-.12.22q-.07.28.36.3l.2,0c0,.35-.08.53-.08.56a1.31,1.31,0,0,1-.38.73.28.28,0,0,1-.46,0,.25.25,0,0,1,0-.07l-.07-.05a.25.25,0,0,0-.26-.09l-.1,0a.47.47,0,0,1-.46-.09l-.24-.27a.62.62,0,0,1-.21-.59c.05-.32.11-.66.19-1,0-.15.15-.23.36-.25l.1,0,.17-.11a.78.78,0,0,0,.12-.21.52.52,0,0,1,.14-.22,1.23,1.23,0,0,0,.17-.19.13.13,0,0,0,0-.14l-.38-.25c-.07-.05-.08-.1,0-.16l.09-.22a2.93,2.93,0,0,1,.36-.39.18.18,0,0,0,.05-.21q-.21-.34-.09-.54l.57-2.75a1.13,1.13,0,0,1,.07-.26,1,1,0,0,0,.08-.27c.05-.18.14-.48.29-.89s.21-.68.26-.89a3.9,3.9,0,0,0,.19-.63,1.5,1.5,0,0,1,.19-.44,1.37,1.37,0,0,0,.17-.7.61.61,0,0,1,.08-.3c0-.14.13-.41.26-.79a4.22,4.22,0,0,1,.29-.75q-.08.12.12-.39a.24.24,0,0,0,0-.23c-.16-.34-.22-.47-.19-.37a.39.39,0,0,1,0-.24.31.31,0,0,0-.15-.28,2.07,2.07,0,0,0-.24-.16l0,0a2.12,2.12,0,0,1,.6-.4c.26-.1.3-.26.12-.46l-.19-.18,0,0,.32,0a.78.78,0,0,0,.67-.34,5.64,5.64,0,0,0,.53-1.05,9.52,9.52,0,0,1,.58-1.35,2.23,2.23,0,0,0,.09-.32,10.49,10.49,0,0,1,.55-1.61,1.54,1.54,0,0,0,.12-.3l.1-.32c.21-.55.41-1.06.6-1.52a1.25,1.25,0,0,0,.12-.46,1.3,1.3,0,0,1,.19-.54,5.8,5.8,0,0,0,.73-1.32,3.27,3.27,0,0,1,.26-.6,1.82,1.82,0,0,1,.29-.43l0,0,.08-.24.48-1a.88.88,0,0,1,.53-.46c.19-.05.46-.1.81-.16a1,1,0,0,1,.34,0,4.39,4.39,0,0,1,.58.18.6.6,0,0,1,.24.14,1.64,1.64,0,0,1,.38.48,2.53,2.53,0,0,0,.24.45.32.32,0,0,0,.15.1.41.41,0,0,0,.19,0,14.58,14.58,0,0,1,1.68.27,1.71,1.71,0,0,1,.41.09,4.36,4.36,0,0,0,.48.16l.48.16.46.21.67.39a2.32,2.32,0,0,1,.58.49c.17.21.33.39.46.53a1.13,1.13,0,0,0,.26.23,1.35,1.35,0,0,1,.46.43l.31.43a1.93,1.93,0,0,1,.26.52l.32,1a.92.92,0,0,1,0,.32q0,.42,0,.72a2.08,2.08,0,0,1-.1.3,1,1,0,0,0-.12.38.74.74,0,0,1-.12.39.48.48,0,0,0-.09.21,2.23,2.23,0,0,1-1,1.29c-.54.39-1,.73-1.34,1A9.77,9.77,0,0,1,53,247.72a1.1,1.1,0,0,1-.6.11l-.22,0c-.3,0-.46.15-.46.37a.61.61,0,0,0,0,.16v.16a.24.24,0,0,1-.19.25l-1.11.34a.34.34,0,0,0-.26.21.52.52,0,0,1-.24.25,4,4,0,0,1-.87.33.49.49,0,0,1-.31,0l-.12,0-.15-.07a.28.28,0,0,0-.19,0,1,1,0,0,0-.65.25.33.33,0,0,0-.07.51,4.69,4.69,0,0,0,.58.57.86.86,0,0,1,.19.29v0Zm-9.45,10.49h0v0Zm.65-1.57.07,0,0-.05C39.47,260.19,39.46,260.21,39.52,260.26Zm.65.75H40.1l.07,0Zm1.47-13.45c0,.06,0,.06,0,0h0Zm8.19-7.95-.74.57a1.61,1.61,0,0,0-.48.62l-.24.56c-.12.25-.2.44-.27.57q-.2.48-.33.75c-.84,1.66-1.25,2.5-1.25,2.53a3.57,3.57,0,0,1-.29.52,5.13,5.13,0,0,0-.56,1.35q0,.16-.09.39t.09.18a.4.4,0,0,0,.24.09H46c.77-.08,1.19-.14,1.28-.16a7,7,0,0,0,1.1-.27.57.57,0,0,0,.36-.28,1.34,1.34,0,0,1,.31-.32c.39-.27.67-.47.85-.61.76-.61,1.28-1,1.56-1.19a2.66,2.66,0,0,0,.29-.24,11,11,0,0,0,1.51-1.42l.41-.47c.18-.19.31-.34.41-.46a6,6,0,0,0,.45-.71,1,1,0,0,0,0-.93l-.36-.5a2.8,2.8,0,0,0-.85-.71,1.71,1.71,0,0,0-.67-.22,3.94,3.94,0,0,0-1.46.13,7.38,7.38,0,0,1-1.35.25Zm-1.78,16.78h.17c.05,0,0,0,0,0a.34.34,0,0,0-.41,0h0Zm-.26,0h0Zm.5-1.84a.71.71,0,0,1,.46.66s0,0,0,.05a.2.2,0,0,1-.1,0,3,3,0,0,1-.53-.25v0l.17-.07c.1-.06.14-.13.12-.22l0-.21Zm-.09,1.82h0Zm.77,1.37a1.35,1.35,0,0,1-.27-.57.25.25,0,0,1,.1-.21.84.84,0,0,1,.62-.23c.26,0,.4.08.44.26v.09c0,.13,0,.3.17.52l0,0a2.5,2.5,0,0,1-.67,0c0-.17.07-.26.07-.28s0-.1-.1-.13a.27.27,0,0,0-.19,0,.46.46,0,0,0-.17.17.85.85,0,0,0,0,.38Zm1.08-1.25a2.82,2.82,0,0,1,.74.2s.08.05.13.12a.47.47,0,0,1,0,.29h0a.93.93,0,0,1,.6.43,1.08,1.08,0,0,1,.19.76c0,.18,0,.28,0,.31a1.09,1.09,0,0,0,.26.91c.08.09.08.17,0,.23a2.73,2.73,0,0,0-.53.37.31.31,0,0,1-.38,0,1.28,1.28,0,0,1-.7-.57,1.5,1.5,0,0,0-.31-.41.32.32,0,0,1-.12-.22.48.48,0,0,0-.32-.3l-.16-.11c-.1,0-.16-.1-.17-.17s-.08-.22-.24-.63v0l.09,0h.12l.17.09A.86.86,0,0,0,50,258a3.64,3.64,0,0,1,.5,0v0l.1-.13c.08-.08.05-.13-.1-.14a.68.68,0,0,1-.43-.18l0,0c.09-.18.15-.28.16-.3a.52.52,0,0,0,0-.45,2.31,2.31,0,0,1-.15-.37Zm-.65,1.07-.24.2Zm-.19-18.27,0,0v0Zm.46,17.11a.31.31,0,0,1-.25-.25c0-.07,0-.1.12-.1a.51.51,0,0,1,.41.21s0,.09.1.23h0Zm-.1-18.34s-.06,0-.07,0-.06.07,0,.09l.07,0Zm.07,16.81,0,0,0,0Zm0,0,.05.06,0,0Zm.17-.62v0Zm.12,1.19a1,1,0,0,1,0,.15l0,0A.5.5,0,0,1,50,255.44Zm0,.15c.1,0,.14,0,.12.1s0,0-.07,0-.06-.08,0-.14Zm1.25-8.08s0,0-.07,0-.2,0-.22.08,0,.09.1.11S51.32,247.62,51.25,247.51Zm1.25-.11.36-.21a2.08,2.08,0,0,1,.39-.22l.21-.16a.34.34,0,0,0,.12-.12c0-.06,0-.11,0-.14a.2.2,0,0,0-.19,0,2,2,0,0,0-.39.11,1.5,1.5,0,0,0-.69.44.3.3,0,0,0-.1.15s0,.09.05.14a.22.22,0,0,0,.17.07Zm.67-3.21c0-.07-.06-.09-.14-.05s-.07,0-.07.05.06.08.14.06Zm3.51.23h0c0-.08,0-.11-.1-.09a.09.09,0,0,0-.07,0l0,.23a.2.2,0,0,0-.17,0c-.05,0,0,.06,0,.06a.1.1,0,0,0,.12-.09Z" transform="translate(-1.13)"/><path class="cls-5" d="M59.52,254.41v0a.6.6,0,0,0-.05.4,1.15,1.15,0,0,1-.21.84,2.36,2.36,0,0,1-.2.28,4.3,4.3,0,0,0-.5,1,.84.84,0,0,0,0,.79.81.81,0,0,1,.12.46,6.2,6.2,0,0,0,0,1.11.21.21,0,0,0,.14.19,1.92,1.92,0,0,0,.41.13,1.88,1.88,0,0,0,.31,0l1.71,0a3.65,3.65,0,0,0,.53-.06,3,3,0,0,0,1-.32l.36-.17a.3.3,0,0,1,.29,0,2.39,2.39,0,0,1,1.06,1,3.6,3.6,0,0,1,.21.53.31.31,0,0,1-.12.37,10.55,10.55,0,0,1-1.22.77l-.29.09a7,7,0,0,1-1.66.3H61a3.59,3.59,0,0,1-1.59-.34,1.81,1.81,0,0,0-.72-.14l-.63,0a1.24,1.24,0,0,1-.5-.1,3.13,3.13,0,0,1-.58-.36,7,7,0,0,1-.67-.71A1.48,1.48,0,0,1,56,260a4.88,4.88,0,0,0-.27-.77,1.88,1.88,0,0,1,0-1.57l.12-.28a6.73,6.73,0,0,0,.53-1.22,2.69,2.69,0,0,1,.19-.53c.08-.23.13-.4.17-.54a.87.87,0,0,0,.14-.21h0a2.38,2.38,0,0,1,.24-.91s.27-.64.86-2a.3.3,0,0,0,.05-.1s0-.09,0-.13a.92.92,0,0,1,.36-.37l.17-.09v0l0,.06a.68.68,0,0,1-.09-.7c0-.14.1-.36.17-.66a3.63,3.63,0,0,1,.19-.66l.45-1.23c.07-.19.2-.54.41-1.05s.32-.81.44-1.07q.24-.67.21-.54l.07-.23c0-.1.08-.18.1-.23.1-.42.16-.73.19-.94a6,6,0,0,1,.27-1.09,4.07,4.07,0,0,1,.17-.38,3,3,0,0,0,.24-.76s.08-.31.26-1a3.29,3.29,0,0,1,.24-.77,2.19,2.19,0,0,0,.17-.69,1.17,1.17,0,0,1,.14-.3.85.85,0,0,0,.08-.24v-.23a2.75,2.75,0,0,1,.33-1.08.48.48,0,0,1,.29-.22l.67-.23a.82.82,0,0,1,.44,0,2.3,2.3,0,0,1,.5.14l.91.41a1.13,1.13,0,0,1,.51.39,1.65,1.65,0,0,1,.24.54.45.45,0,0,1,0,.23c-.11.46-.18.75-.22.86q-.28.78-.57,1.44c-.15.29-.32.69-.53,1.21s-.4,1-.51,1.22a1,1,0,0,0-.07.48.8.8,0,0,1-.19.53s0,.06,0,.07a.94.94,0,0,0-.26.82,1,1,0,0,1-.1.47.16.16,0,0,1-.07.07.15.15,0,0,1-.15-.07c-.06-.11-.13-.12-.21,0a.93.93,0,0,0-.2.18.44.44,0,0,1-.26.14s-.06,0-.22,0l.08-.07a.35.35,0,0,0,0-.45h0a1.11,1.11,0,0,1-.48.16v0l-.05.15s0,0,0,0l.43.23a2.6,2.6,0,0,0,.62.43c.13.07.15.14.05.21l-.14.11L63,247c-.13.12-.16.23-.1.35a.32.32,0,0,1,0,.31,4.29,4.29,0,0,0-.46,1.05A10.16,10.16,0,0,1,62,250a.66.66,0,0,0-.07.61c0,.27,0,.43,0,.46s-.05.16-.17.2a.72.72,0,0,1-.38,0l-.22-.08a.48.48,0,0,0-.29.08c-.12.08-.16.17-.09.28a1.28,1.28,0,0,1,.17.2.35.35,0,0,1,.05.3,1.54,1.54,0,0,0-.08.23l-.17.25-.14.25a1.38,1.38,0,0,1-.38.46.88.88,0,0,0-.36.58l-.1.14c-.1-.05-.11-.05,0,0l.07,0C59.58,254.24,59.52,254.41,59.52,254.41Zm-1.18,6.42-.07,0,.07,0Zm1.73-8.56.08,0c-.07,0-.1,0-.1,0v0Zm1.28-8.68c0-.08-.06-.09-.12,0a0,0,0,0,0,0,.07l.07,0Zm.07.71s0,0,0-.05-.12,0-.12,0l.07,0Zm-.1,3h0v0l0,0Zm.63-1.89a1.21,1.21,0,0,1,.6-.13h.22c.08,0,.11,0,.09-.11a.06.06,0,0,0,0-.07,2.77,2.77,0,0,0-.69-.17.32.32,0,0,0-.2,0c-.24,0-.37.1-.4.23a.3.3,0,0,0,.14.28l.1,0Zm.34-4.85a.09.09,0,0,0-.15,0,.08.08,0,0,0,0,.07.14.14,0,0,0,.17,0Zm.36-1.86,0,0Zm2-1.07,0,.06.1,0Z" transform="translate(-1.13)"/><path class="cls-5" d="M70.72,251.18c-.08-.12-.11-.16-.09-.14a.32.32,0,0,1,0-.38s.13-.29.31-.73c0-.14.15-.39.31-.75l.15-.21a.68.68,0,0,1,.43-.3l.12,0a.38.38,0,0,0,.34-.27c.16-.16.23-.24.21-.23s0-.05,0-.07l-.07,0s-.07,0-.07.05a.86.86,0,0,0-.05.31l-.32-.07c-.12,0-.16-.08-.12-.16a1.21,1.21,0,0,0,.08-.24.91.91,0,0,1,.09-.62c.4-1,.77-1.75,1.11-2.41a1.2,1.2,0,0,1,.21-.35l0-.07a2.33,2.33,0,0,0,.2-.5,1.6,1.6,0,0,1,.19-.49c0-.29.07-.45.07-.48a.42.42,0,0,0-.26-.41,2,2,0,0,0-.46-.19,1.79,1.79,0,0,1-.65-.27h0V242h0c.24-.48.37-.75.38-.8a1.6,1.6,0,0,1,.51-.66l0,0a1.2,1.2,0,0,0,.41-.29l0,0a1.54,1.54,0,0,1,.17-.21,1.61,1.61,0,0,1,.62-.63,3.63,3.63,0,0,0,.48-.32,3.36,3.36,0,0,0,1.11-1.16l.12-.21a.44.44,0,0,1,.26-.14l.6-.13a.62.62,0,0,1,.51.06,1.49,1.49,0,0,0,1.11.14c.19,0,.44-.07.74-.11a5.5,5.5,0,0,0,.75-.09l.19,0h.21a6.57,6.57,0,0,1,1.81.2,5.7,5.7,0,0,1,1.63.57l1.88,1.05a1.68,1.68,0,0,1,.53.5l.31.41a2.4,2.4,0,0,1,.38.57l.39.82c0,.1,0,.19-.1.29s0,.11,0,.14a.6.6,0,0,1,.4.43,2.16,2.16,0,0,0,.08.23,1.7,1.7,0,0,0,.07.23,2.18,2.18,0,0,1,.05.56,1.78,1.78,0,0,0,0,.87q0,1.11,0,1.35a.39.39,0,0,1,0,.24,3.2,3.2,0,0,0-.09.94,5.29,5.29,0,0,1-.24,1.57c-.15.43-.19.61-.15.53-.08.14-.22.35-.43.65l-.43.64a3.24,3.24,0,0,1-.8.84,1.67,1.67,0,0,0-.57.66c-.13.21-.27.45-.43.73a3.22,3.22,0,0,1-.87,1,1.8,1.8,0,0,0-.55.66,3.66,3.66,0,0,1-.53.78.33.33,0,0,1-.36.11l-.19,0a.54.54,0,0,0-.46.14.72.72,0,0,0-.24.45l0,.32a.47.47,0,0,1-.21.27.66.66,0,0,1-.27.12,2.25,2.25,0,0,0-.86.59l-.27.25-.24.14c0-.29.05-.45.05-.46,0-.17-.13-.24-.38-.23a.52.52,0,0,0-.36.12,2.47,2.47,0,0,0-.53.59s0,0,0,.09,0,.08.05.14a.25.25,0,0,0,.17.08l.22,0,.84-.32a3.52,3.52,0,0,0-.34.57l-.17.28a.68.68,0,0,1-.38.27l0,0q-.41-.35-.48-.39a.25.25,0,0,0-.17,0,.48.48,0,0,0-.29.09,1,1,0,0,1-.16.18h0a3.54,3.54,0,0,1-.41-.36.55.55,0,0,0-.65-.12,3.58,3.58,0,0,0-.45.19l-.27.14a1.6,1.6,0,0,1-.26.15,4.39,4.39,0,0,1-1.13.41,2.9,2.9,0,0,0-.7.23.88.88,0,0,0-.58.61c0,.1,0,.17.15.19a1.53,1.53,0,0,0,.53,0,3.23,3.23,0,0,0,.89-.27c.36-.15.57-.25.62-.28a4.37,4.37,0,0,0,.48-.27,5.18,5.18,0,0,0,.46-.27.49.49,0,0,1,.48,0,.92.92,0,0,0,.53,0,1.43,1.43,0,0,1,.31-.05l0,0a.82.82,0,0,1-.22.36.86.86,0,0,0-.36.48c0,.07-.06.1-.15.09a2.28,2.28,0,0,0-1,.23,6.52,6.52,0,0,0-.61.27l-.57.26a1.38,1.38,0,0,0-.58.47.65.65,0,0,1-.43.21,3,3,0,0,1-.75,0,5,5,0,0,0-.62,0l-.07,0h.09c0,.19.07.29.07.3a.61.61,0,0,1,0,.33,3.51,3.51,0,0,1-.22.35.78.78,0,0,1-.82.25,6.41,6.41,0,0,1-1.06-.34l-1.05-.39a.33.33,0,0,0-.29,0,1.09,1.09,0,0,0-.24.16s-.12.12-.31.32v-.32a.66.66,0,0,0-.41-.52.29.29,0,0,0-.22,0c-.11,0-.17.11-.17.18a2.15,2.15,0,0,0,.05.32.62.62,0,0,0,.55.32l.22,0a1.62,1.62,0,0,1-.07.38c0,.17-.16.23-.36.16l-.36-.15a2,2,0,0,1-.65-.39l-.46-.3h0s0-.07.07-.07.05-.16,0-.21-.29-.36-.36-.8c.12-.53.2-.89.27-1.09a2.09,2.09,0,0,1,.5-.77l0,0,0,0c0-.08.11-.12.32-.12a.09.09,0,0,0,.09-.13.17.17,0,0,0,0-.14.37.37,0,0,1-.07-.37l.79-1.66a7.27,7.27,0,0,0,.29-.68c0-.09.23-.55.58-1.35s.59-1.43.67-1.59a.69.69,0,0,1,.44-.43.16.16,0,0,0,.07-.07.09.09,0,0,0,0-.07c-.08-.18,0-.42.26-.73l.27-.15,0,0Zm-4.11,10.38,0,0h0Zm.53-.32,0,.09,0,0a.07.07,0,0,0,0-.06Zm1.06-2.71s0,0,0,.05.11.06.12,0l0-.05Zm15.22-9.13a.28.28,0,0,0,.28-.07.11.11,0,0,0,0-.15.2.2,0,0,0-.17-.07l-.75.07a4.18,4.18,0,0,0,.44-.8,13,13,0,0,1,.57-1.19,2.22,2.22,0,0,0,.2-.47,4.32,4.32,0,0,0,.16-.69,1.47,1.47,0,0,0,.1-.36c0-.16.06-.28.07-.34a3.22,3.22,0,0,0,.15-.71,1.63,1.63,0,0,1,.26-.84.18.18,0,0,0,0-.23,1.06,1.06,0,0,1-.1-.3s0-.41-.17-1.36a1.49,1.49,0,0,0-.19-.53,3,3,0,0,0-.5-.7,2.28,2.28,0,0,0-.89-.55.81.81,0,0,0-.32-.07,8.38,8.38,0,0,0-1.58,0l-.32.08-.5.16-.48.14a3.62,3.62,0,0,1-1.06.16.19.19,0,0,0-.17,0,1.86,1.86,0,0,1-.67.4,4.58,4.58,0,0,0-.65.26,1.79,1.79,0,0,0-.67.5l-.27.36c-.35.57-.51.84-.48.8s0,.1-.09.22c-.32.71-.5,1.08-.53,1.12s-.23.55-.46,1.14a2.2,2.2,0,0,1-.22.53,1.39,1.39,0,0,1-.33.42c-.1.05-.13.12-.1.19a1.17,1.17,0,0,1-.09.79c-.15.34-.31.74-.48,1.21l0,.07a.47.47,0,0,1-.24.16.22.22,0,0,1-.1,0l-.1,0c-.24.06-.29.16-.16.32l0,.05a.41.41,0,0,1,.12.54l-.43,1.05a4.34,4.34,0,0,1-.38.66.54.54,0,0,0-.17.37.81.81,0,0,1-.22.27q-.09.07,0,.21a.28.28,0,0,1,.07.22.26.26,0,0,1,0,.07v.09a.41.41,0,0,1-.33.27c-.15,0-.18.08-.1.19a.57.57,0,0,1,0,.68c0,.06-.08.16-.15.3a.6.6,0,0,1-.26.23c-.11,0-.14.12-.07.2A.34.34,0,0,1,71,255a6.48,6.48,0,0,1-.44.89,1,1,0,0,0-.14.61,1.1,1.1,0,0,1-.14.62.45.45,0,0,1,0,.13.25.25,0,0,0,0,.11,6.62,6.62,0,0,0-.33,1.08v.24c0,.19.13.3.38.33a1.7,1.7,0,0,0,.31,0l1.62-.14.31-.06a5.47,5.47,0,0,0,1.61-.57,7.08,7.08,0,0,0,.91-.57,4.71,4.71,0,0,0,.55-.37,2.76,2.76,0,0,1,.61-.32,2.83,2.83,0,0,1,.36-.16,3.39,3.39,0,0,0,1.41-1.18.27.27,0,0,0,.1-.14.56.56,0,0,1,.1-.15,6.15,6.15,0,0,1,.91-1.07c.56-.51.88-.79,1-.85a6.13,6.13,0,0,0,.92-1,8.51,8.51,0,0,0,.52-.86c.24-.46.72-1.26,1.42-2.41ZM70.55,259.78a.05.05,0,0,0,0,.05c0,.06.06.08.14.07l0-.07C70.66,259.77,70.62,259.75,70.55,259.78Zm.15-5.85a1.05,1.05,0,0,0,0-.13h0a.62.62,0,0,1,0,.11Zm.12-1.7.07,0v-.05Zm1.13-1.8c.08,0,.09-.06,0-.12a.08.08,0,0,0-.08,0q-.12,0-.12.09A.1.1,0,0,0,72,250.43Zm.19-1.53-.07,0v0Zm.29-6.74V242h0v.2Zm.58,5.63s-.05,0-.05,0,0,.1.12.11l.07-.06A.13.13,0,0,0,73,247.79Zm.31-6.09h-.1l0,0a.11.11,0,0,0,.12,0Zm.1,4.54a.17.17,0,0,0-.1,0s0,0,0,.07.06.09.15.06l0-.07Zm.64-2.71.34-.09.29-.07c.11,0,.15-.1.12-.19l0-.08a.83.83,0,0,0-.27-.23.21.21,0,0,0-.19,0,.52.52,0,0,0-.24.41Zm1.13-1.39h0l0,0Zm1.09,15.3-.1,0c-.06.05-.06.08,0,.11s.14,0,.17,0S76.37,257.45,76.28,257.44Zm1.94,1.09H78l-.21,0,0,0v-.32h0a1.41,1.41,0,0,1,.43.34Zm-.33-1.64.09,0,0-.06C77.93,256.8,77.89,256.82,77.89,256.89Zm1,1.46a.86.86,0,0,1-.34.55.2.2,0,0,1-.19,0c-.08,0-.12-.05-.12-.11s0,0,0-.16v-.14l0,0a4.33,4.33,0,0,1,.67-.18Zm2.43-4.48s0,0,.07,0,.08-.05,0-.08h-.07Zm1.63.06a.12.12,0,0,0-.17,0c0,.06,0,.1.07.13a.15.15,0,0,0,.17-.06C83,254,83,254,82.91,253.93Zm-.07-.88h0l0-.07-.07,0v0l0,0ZM84,250.47l0-.05,0,.05Zm1.75-5.15a.73.73,0,0,0-.31,0,0,0,0,0,0,0,.07.05.05,0,0,0,0,.06c.12,0,.2,0,.27-.16Zm.58.33.1,0,0,0Zm.22,2.54h0Z" transform="translate(-1.13)"/><path class="cls-5" d="M99,256.19l.22,0c.32,0,.49-.06.5-.28v-.49q0-.51,0-.78a1,1,0,0,1,.14-.54,1.24,1.24,0,0,0,.14-.39.41.41,0,0,1,.1-.21.55.55,0,0,0,.17-.25.66.66,0,0,1,.19-.23l.22-.45a.71.71,0,0,1,.21-.27l0,0a.56.56,0,0,1,0,.52.08.08,0,0,0,0,.07.18.18,0,0,0,.17.06l.19-.07a1.32,1.32,0,0,1,.51-.06h.09l-.12,0v-.16a.22.22,0,0,1,.19-.18c.16-.05.22-.12.17-.23v-.09a.25.25,0,0,1,.17-.27.37.37,0,0,0,.24-.32c0-.09,0-.15-.14-.18a.26.26,0,0,0-.2,0l-.14.11a.35.35,0,0,1-.29.07,1.21,1.21,0,0,0-.82.09s0,0-.21.16a.16.16,0,0,1-.19,0s0,0,0-.07a.41.41,0,0,1,.29-.47l0,0,.07-.14c0-.06.07-.11,0-.15a.47.47,0,0,1,0-.39,10.7,10.7,0,0,1,.94-2,1.81,1.81,0,0,0,.12-.22,3.3,3.3,0,0,1,.48-.87,2.11,2.11,0,0,1,.45.18q.17,0,.15-.06a.13.13,0,0,0-.1,0l-.5-.09c-.2,0-.28-.14-.27-.29a1.57,1.57,0,0,1,.31-.92l.61-.75a1.48,1.48,0,0,1,.74-.54.65.65,0,0,0,.31-.23c.39-.52.64-.87.77-1a.45.45,0,0,0,.1-.24,1.21,1.21,0,0,1,.22-.6.45.45,0,0,1,.24-.25l.36-.18.19-.18s0,0,.05-.07a2.14,2.14,0,0,1,.89-.95,6,6,0,0,1,2.33-.76,5.78,5.78,0,0,1,1.46,0,7.16,7.16,0,0,1,1.69.54,7.54,7.54,0,0,0,.91.39,1.26,1.26,0,0,1,.91.93,5.85,5.85,0,0,1,.22,1.26,2.47,2.47,0,0,0,.17.79.82.82,0,0,1,0,.39c0,.75-.07,1.35-.1,1.82a2.4,2.4,0,0,1-.14.62c-.1.29-.23.78-.39,1.48a11.71,11.71,0,0,1-.84,2.62,15.72,15.72,0,0,0-.72,1.68,2.77,2.77,0,0,1-.17.37,1.2,1.2,0,0,0-.14.38,1,1,0,0,1-.51.59.11.11,0,0,0-.07.14.34.34,0,0,1,0,.37l-.22.36-.19.29a1,1,0,0,1-.8.46.14.14,0,0,0-.14.11.47.47,0,0,0,0,.16c0,.12,0,.24-.17.37a6.72,6.72,0,0,1-.75.55l-.62.43a4.2,4.2,0,0,1-1.28.59,17.31,17.31,0,0,1-2.11.54l-.44,0a.51.51,0,0,1-.28-.07l-.22-.13a1,1,0,0,0-.22-.12.39.39,0,0,0-.38,0,.35.35,0,0,1-.15.07.25.25,0,0,1-.12.07.83.83,0,0,1-.72,0c-.25-.11-.68-.25-1.27-.43a1.47,1.47,0,0,1-.29-.09l-.29-.09a.92.92,0,0,0-.31,0,1,1,0,0,1-.75-.25.23.23,0,0,1-.07-.29,1.09,1.09,0,0,1,0-.14.17.17,0,0,0-.1-.21.68.68,0,0,1-.33-.4,2.16,2.16,0,0,0-.36-.66Zm2.5-2.71s-.05,0-.1,0l0,.07C101.57,253.57,101.59,253.54,101.54,253.48Zm.72-.27v0l0,0Zm5.22,1.61,0,.09h-.1a1.54,1.54,0,0,1,.58-.66,1.36,1.36,0,0,0,.27-.25l.72-.79a.37.37,0,0,0,.07-.14,1.56,1.56,0,0,1,.34-.75,6.62,6.62,0,0,0,1-2.33,2.15,2.15,0,0,0,.12-.5c0-.26.08-.44.1-.52a3.63,3.63,0,0,0,.14-1.1,18,18,0,0,1,.12-2.31.86.86,0,0,0,0-.32c0-.32-.1-.63-.16-.94a.75.75,0,0,0-.22-.36.24.24,0,0,0-.19,0h-.1a2.3,2.3,0,0,0-1,.58l-.74.78c-.31.31-.55.56-.72.77l-.44.46a5,5,0,0,0-.43.45s-.31.31-.89.91l0,0c-.3.46-.48.72-.52.76a.53.53,0,0,0-.12.29,1.46,1.46,0,0,1-.22.43l-.51.68s-.06,0-.14,0a.14.14,0,0,1-.12,0,.81.81,0,0,1-.12-.22l.05-.05c0-.05,0-.09-.05-.13a5.35,5.35,0,0,0,0-.92l0,0-.39,0a.88.88,0,0,1-.38-.09l-.41,0a0,0,0,0,0,0,0,0,0,0,0,0,0,.07.07.07,0,0,0,.07,0,1.16,1.16,0,0,0,.38-.13,1.41,1.41,0,0,0,.07.86l0,.14a.23.23,0,0,1-.07.22l-.82.6-.1.13c-.09.07-.11.11-.05.12s.08,0,.1-.12l0-.15c.2.1.48.27.84.5a.55.55,0,0,1,.19.18,5,5,0,0,1,.24.45,3,3,0,0,1-.17.91.18.18,0,0,0-.07.16,3.28,3.28,0,0,1-.12.78,4.52,4.52,0,0,0-.15.63,1.48,1.48,0,0,0,0,.39,1.13,1.13,0,0,0,.26.51.61.61,0,0,1,.15.68,1.25,1.25,0,0,0-.1.31.34.34,0,0,0,0,.16.32.32,0,0,0,.19.34.65.65,0,0,0,.43.07,2.84,2.84,0,0,0,.87-.29l.36-.18a5.66,5.66,0,0,0,1.2-.78,1.09,1.09,0,0,1,.53-.25Zm-4.88-2.16s0,0,0,0,0,.09.07.1.12,0,.12-.07S102.68,252.65,102.6,252.66Zm1.2-5.9-.07,0a.8.8,0,0,0-.15-.19.27.27,0,0,0-.16-.09q-.23-.08-.24.09a.1.1,0,0,0,.07.14l.19.05.31,0Zm.41-1.61c-.06.08,0,.15.05.22a.24.24,0,0,0,.19,0c.14,0,.19-.09.14-.17l-.14-.22.14-.1-.07,0,0,.14A.49.49,0,0,0,104.21,245.15Zm1.06-1.19a.27.27,0,0,0-.17.07c-.07,0-.08.08,0,.14a.25.25,0,0,0,.15.09.62.62,0,0,0,.48-.09v-.07A.46.46,0,0,0,105.27,244Zm.53,1,0,0,0-.07-.07,0a.1.1,0,0,0,0,.06Zm1.08-.3H107l0-.05Zm.31,10.88c.06,0,.08-.1,0-.14a.12.12,0,0,0-.17,0c-.08,0-.1.07,0,.12l.07.06Zm0-10.17s.05,0,.05,0,0-.1-.1-.09l-.07.05C107.12,245.39,107.16,245.42,107.24,245.4Zm2.09,9.19c0-.1-.06-.16-.19-.18H109a1.63,1.63,0,0,0-.53.25.21.21,0,0,0-.09.28.29.29,0,0,0,.28.2.33.33,0,0,0,.22,0,1,1,0,0,0,.41-.44Zm.63-.22a.49.49,0,0,1-.1.38v.07c0,.12.1.18.29.2a.17.17,0,0,0,.17-.06.87.87,0,0,0,.16-.44.41.41,0,0,0-.14-.36.19.19,0,0,0-.26-.07c-.09,0-.12.08-.12.12Zm1-11.14a.19.19,0,0,0-.19.07c-.07.1,0,.14.17.14s.12,0,.12-.09A.13.13,0,0,0,110.94,243.23Zm.12,11.38c0-.08,0-.11-.1-.11s-.07,0-.07.05,0,.09.1.09Zm0-2.16-.07-.23c0-.06.06-.06.07,0H111a.18.18,0,0,1,.07.2Zm.63-1.73s0,0,0,.05,0,.08.12.07l.07-.05C111.85,250.73,111.81,250.71,111.71,250.72Z" transform="translate(-1.13)"/><path class="cls-5" d="M117.26,253.59l0-.07c0-.06.06-.08.1-.06l0,.08a1.45,1.45,0,0,0,.07.23,1.39,1.39,0,0,1,.46.53.58.58,0,0,0,.58.27c.14,0,.2.05.19.16a2.92,2.92,0,0,1-.22.7,2.57,2.57,0,0,0-.17.53.33.33,0,0,0,0,.32,1,1,0,0,1,.14.61.34.34,0,0,1-.07.16l-.14.11-.15.12a1.55,1.55,0,0,0-.24.27.29.29,0,0,0,0,.23c0,.07.08.13.2.18a.13.13,0,0,1,.09.19.68.68,0,0,1-.07.24c-.08.15-.25.5-.5,1.05s-.37.77-.51,1a2.18,2.18,0,0,0-.31.93c0,.12-.08.43-.19.94a.72.72,0,0,1-.29.33.67.67,0,0,1-.77.05c-.29-.17-.56-.33-.82-.5a.52.52,0,0,1-.19-.2,1.61,1.61,0,0,1-.12-.37.43.43,0,0,1,0-.32,2.31,2.31,0,0,1,.1-.23,5.72,5.72,0,0,0,.65-1.68c.09-.43.33-1.2.69-2.32a1.09,1.09,0,0,1,.08-.14.81.81,0,0,0,.19-.61.74.74,0,0,1,.1-.46.85.85,0,0,0,0-.23.54.54,0,0,1,.15-.38c.06-.06.09-.1.09-.14a1.72,1.72,0,0,1,.22-.52l.24-.44a.63.63,0,0,1,.43,0v0l-.45,0Zm-.67,3.08.14.09,0-.05-.19,0Zm.6-2.12,0,0-.08.06c0,.07,0,.09.1,0l0,0Zm2.24-1.89a1.12,1.12,0,0,1-.41-.07.75.75,0,0,0-.48,0,.25.25,0,0,1-.32-.12s0,0,0-.07h0a2.58,2.58,0,0,0,1.29-.21.24.24,0,0,1,.2,0,1.27,1.27,0,0,1,.43.32s0,.09,0,.14l0,0-.17-.07a.65.65,0,0,0-.29,0,.31.31,0,0,0-.22.11Zm17.28-15.1s0,.06,0,.18a.3.3,0,0,1-.09.28,1.88,1.88,0,0,1-.24.18,5,5,0,0,1-1.49.59,5.59,5.59,0,0,0-1.18.39l-.75.29a1.33,1.33,0,0,1-.62.1,2,2,0,0,0-.91.16c-1.06.41-1.7.66-1.9.75a4.27,4.27,0,0,1-.46.2,1.24,1.24,0,0,1-.72,0,.89.89,0,0,0-.63.06l-.48.17-.45.2-.87.32a.31.31,0,0,1,0-.11.36.36,0,0,0,0-.1l-.05.1a.89.89,0,0,0,0,.11,7.72,7.72,0,0,0-.5.7c.08-.15-.28.48-1.09,1.89a1.76,1.76,0,0,1-.38.46.43.43,0,0,0-.14.3.7.7,0,0,1-.51.56c-.08,0-.1.1,0,.21l0,.09,0,0a2,2,0,0,1-.09.3c-.08.16-.24.45-.48.88l-.22.37a2.93,2.93,0,0,1-.51.79s0,.08,0,.14a.35.35,0,0,0,.39.09l1.34-.46a4.79,4.79,0,0,0,.72-.34,4.18,4.18,0,0,1,.92-.39.68.68,0,0,1,.31,0,.89.89,0,0,0,.67-.2,1,1,0,0,1,.24-.14,4.1,4.1,0,0,1,.94-.12,6.85,6.85,0,0,1,1.28.14,2.49,2.49,0,0,1,.69.34,7.12,7.12,0,0,0,1.23,1.1.84.84,0,0,1,.19.18.15.15,0,0,1,.05.14,1.08,1.08,0,0,1-.43.72l-.17.09-1.9.55a4,4,0,0,0-1.13.43,1.22,1.22,0,0,1-.6.16,2.36,2.36,0,0,0-.41,0,1.33,1.33,0,0,1-.94,0l0,0a.26.26,0,0,0-.27,0l0,0a.71.71,0,0,0-.39.34.31.31,0,0,1-.09.13.28.28,0,0,1-.22.14l-.19.05,0,0a1.31,1.31,0,0,1-.57.15,1.26,1.26,0,0,1-.6-.11L123,251v0l0-.23a1.66,1.66,0,0,1,0-.27.6.6,0,0,0,0-.27.18.18,0,0,0-.07-.05l-.1,0a2.06,2.06,0,0,0-.72.13l-.07-.13q-.11-.1-.12,0s0,0,0,0l.16.07a.86.86,0,0,0,.12.39,1.21,1.21,0,0,1,.13.37.2.2,0,0,1-.13.22,1.56,1.56,0,0,1-.76.21l-.39,0h-.38a1.39,1.39,0,0,0-.68.2.74.74,0,0,1-.5.09.34.34,0,0,0-.29.05.5.5,0,0,1-.17.11.25.25,0,0,1-.29,0,1.78,1.78,0,0,1-.45-.34l0-.07h0l.29-.1c.11-.05.15-.12.12-.2a1.29,1.29,0,0,1-.12-.37.41.41,0,0,1,.21-.43.33.33,0,0,0,.17-.27.44.44,0,0,0-.17-.44s0-.08,0-.13c-.08,0,.08,0,.48-.16l0,0a.29.29,0,0,0-.29-.27.16.16,0,0,1-.1,0c-.13,0-.17-.09-.14-.17a.66.66,0,0,1,.12-.22.38.38,0,0,1,.26-.12h.41a.17.17,0,0,1,0,.07c0,.08,0,.1.09,0s0,0-.05-.07l-.07-.05-.07-.15c-.06-.15,0-.26.17-.32a2.87,2.87,0,0,0,.46-.16.08.08,0,0,0,0-.07.09.09,0,0,0-.08-.05l-.19,0a.34.34,0,0,1-.31,0c-.1-.06-.14-.13-.12-.2.06-.33.12-.59.17-.78a1.73,1.73,0,0,1,.16-.38c.12-.19.23-.38.34-.59a1.41,1.41,0,0,0,.17-.46l.14-.53a1.13,1.13,0,0,1,.2-.38,1.19,1.19,0,0,0,.28-.75.79.79,0,0,1,.12-.39c.18-.34.33-.61.44-.8a2.83,2.83,0,0,1,.12-.3c0-.12,0-.21-.17-.27l-.29-.11c-.13,0-.72-.2-1.78-.53l-.24-.16c-.06,0-.07-.1,0-.15l.14-.12a1.08,1.08,0,0,0,.15-.13,1.29,1.29,0,0,1,.48-.28,1.51,1.51,0,0,0,.79-.52,2.57,2.57,0,0,1,1.13-.82l.79-.32.8-.32a3,3,0,0,1,1.13-.25,1.2,1.2,0,0,0,.31,0,3.56,3.56,0,0,1,.84-.1.28.28,0,0,0,.17-.07,2.49,2.49,0,0,1,1.06-.5c.09,0,.16,0,.19,0s0,.05,0,.07a1.05,1.05,0,0,1,0,.13.26.26,0,0,0,0,.1c0,.17,0,.24.24.2h.13c.75-.18,1.35-.34,1.8-.5s.74-.25,1.27-.39a6.07,6.07,0,0,0,.7-.2,6.83,6.83,0,0,1,1.59-.48c.17,0,.23-.12.16-.25a.71.71,0,0,0-.07-.16l0-.05-.07-.07c-.06-.1,0-.16.15-.2s.32,0,.74,0a3.78,3.78,0,0,0,.94-.12.78.78,0,0,1,.43,0l.29.09a1.26,1.26,0,0,1,.58.35,2.5,2.5,0,0,0,.19.27.37.37,0,0,1,0,.46h0a.67.67,0,0,0,.21.26s.07.08.2.2l0,0Zm-16.66,15.1,0,.09c0,.08-.06.13-.07.14a1.64,1.64,0,0,0-.2.25,1,1,0,0,1-.24.25.13.13,0,0,1-.09,0l-.08,0a.19.19,0,0,1,0-.07c0-.06,0-.26.1-.61l0,0h.68Zm.94-3.28c.05,0,.32,0,.82,0,0,0,.07,0,.07-.06s0,0,0-.07a1.28,1.28,0,0,0-.4,0,.6.6,0,0,0-.44.18l-.67,0,.14-.2v-.09a.08.08,0,0,0-.07,0c-.08,0-.11,0-.09.1a1.94,1.94,0,0,0,0,.24Zm-.29-1h0Zm1.11-8.13h0l0,0Zm.09,5.46c-.11,0-.13.11-.07.19a.18.18,0,0,0,.26.07.35.35,0,0,0,.15-.08.09.09,0,0,0,0-.15.18.18,0,0,0-.17-.09Zm1.83-1.91-.12,0a.57.57,0,0,0-.48.07.16.16,0,0,0-.07.07V244a.13.13,0,0,0,.14.09,1.1,1.1,0,0,0,.48-.13l0-.07Zm.29-1.53q.17-.06.12-.18c0-.13-.16-.17-.34-.13s-.18.1-.14.18a1.72,1.72,0,0,0,.07.22Zm1.75,5.61,0,.06.07,0Zm5.17-9.8-.1,0a1.24,1.24,0,0,0-1,.19c-.09.08-.11.15,0,.22a.34.34,0,0,0,.17.05l.12,0a1.9,1.9,0,0,0,.75-.25l.09-.12A.66.66,0,0,0,130.94,238.08Zm0-.18,1.74-.36a1.76,1.76,0,0,0,.48-.16.08.08,0,0,0,0,0c0-.07,0-.12-.1-.13a4.33,4.33,0,0,0-1.17.06,7.49,7.49,0,0,0-1.3.32.93.93,0,0,0-.22.16c-.06.06,0,.1,0,.14l.21,0Zm4-1,0,0Z" transform="translate(-1.13)"/><path class="cls-5" d="M154.81,245.35l.07-.28a1,1,0,0,1,.15-.31,1.9,1.9,0,0,1,.17-.28,1.39,1.39,0,0,0,.33-.63l.1-.3a.37.37,0,0,1,.38-.23,1.87,1.87,0,0,0,.53-.06,1.15,1.15,0,0,0,.19.17.36.36,0,0,0,.29,0c.07,0,.1-.06.1-.1s0-.1-.12-.11l-.39,0a.34.34,0,0,0-.07-.46h0l-.21-.14c-.12-.1-.13-.2-.05-.28l.29-.23a.48.48,0,0,0,.21.17l0,0-.22-.19a.35.35,0,0,1,.36-.18l.53,0a.69.69,0,0,1,.43.19h-.31a.28.28,0,0,0-.17.07.31.31,0,0,0-.12.22c0,.06,0,.1.1.12h.1c.25-.08.39-.22.4-.43l.27-.34a.79.79,0,0,1,.33-.28c.08.07.11.08.08,0h-.1c0-.15.05-.22.05-.23s.09-.14.24-.09a.42.42,0,0,1,.29.19s.07.19.17.45l-.1,0-.1,0a.43.43,0,0,0-.26.07s0,.12.1.2a.55.55,0,0,1,0,.12.49.49,0,0,1,0-.14.54.54,0,0,0,.33-.21l.1.21a6.16,6.16,0,0,1,0,1.2.77.77,0,0,1-.12.37.32.32,0,0,0-.07.3,1.43,1.43,0,0,1-.09,1,2.54,2.54,0,0,0-.08.3.9.9,0,0,1-.26.43.66.66,0,0,0-.22.61.94.94,0,0,1-.09.46,5.11,5.11,0,0,1-.44,1,.43.43,0,0,0-.07.24,1.89,1.89,0,0,1-.12.55c-.35,1-.64,1.83-.86,2.53a5.76,5.76,0,0,0-.27,1.34c0,.07,0,.38-.07.94a2.81,2.81,0,0,1-.24.77.47.47,0,0,0-.07.53,5.09,5.09,0,0,1,.12.86c0,.26,0,.66.07,1.19a1.19,1.19,0,0,0,.19.61.18.18,0,0,0,.17.07.43.43,0,0,0,.22,0,.65.65,0,0,0,.26-.23,3.79,3.79,0,0,0,.46-.89,4.48,4.48,0,0,1,.29-.73,7.72,7.72,0,0,0,.31-.71,2,2,0,0,1,.31-.5,21.31,21.31,0,0,1,1.2-2l1.25-1.92c.63-.92,1.16-1.75,1.61-2.52a1.62,1.62,0,0,1,.39-.46l0,0,.12.13a1.44,1.44,0,0,0,.68.32.33.33,0,0,0,.38-.09,1.52,1.52,0,0,1,.15-.21h0a1.81,1.81,0,0,1,.68-.16h0a1.49,1.49,0,0,0-.07.24,6.64,6.64,0,0,0-.84,2c0,.12,0,.19-.07.21a.84.84,0,0,0-.15.63,2.46,2.46,0,0,1-.24,1.07,7.07,7.07,0,0,0-.34.8c-.14.38-.24.64-.31.78a3.24,3.24,0,0,1-.36.66.68.68,0,0,0-.46-.37l0-.14v-.08c0-.1-.06-.16-.12-.17s-.15,0-.19.14a1.2,1.2,0,0,0-.29-.05c-.08,0-.11,0-.1.07s0,0,.1,0h.09l.2,0a.75.75,0,0,0,.31.23l.46.37a2.9,2.9,0,0,1-.2.7.23.23,0,0,0,.1.21.31.31,0,0,0,.29.08.65.65,0,0,0,.38-.25.77.77,0,0,0,.12-.22c0-.06.24-.62.63-1.67a11.24,11.24,0,0,1,.79-1.81,2.09,2.09,0,0,0,.19-.37c.08-.19.14-.31.17-.37a1.09,1.09,0,0,1,.36-.4,12.91,12.91,0,0,1-.77,1.89c-.19.4-.39.88-.6,1.45a10.32,10.32,0,0,1-.62,1.42c0,.09-.16.31-.32.68a1.66,1.66,0,0,0-.16.77,2.6,2.6,0,0,1-.32,1.09,7.78,7.78,0,0,1-.5,1c-.08.12-.2.32-.36.61s-.27.48-.36.62-.14.27-.32.68a.87.87,0,0,1-.33.39,1.12,1.12,0,0,0-.29.32c-.05.06-.06.08-.05.07a2.84,2.84,0,0,1-1.42,1.25.91.91,0,0,1-.41.09l-.64,0a1.37,1.37,0,0,1-.41-.05,6,6,0,0,0-.94-.15l-.31-.07a.85.85,0,0,1-.41-.23.41.41,0,0,1-.1-.14,1.47,1.47,0,0,0-.79-.62.74.74,0,0,1-.36-.38,1.37,1.37,0,0,1-.1-.23,12.82,12.82,0,0,0-.43-1.55s0-.09-.05-.32a1.59,1.59,0,0,1,.05-.95.42.42,0,0,0,0-.14.45.45,0,0,0,0-.32,1.23,1.23,0,0,0-.12-.27,1.17,1.17,0,0,0-.12-.25.86.86,0,0,1,0-.55l0-.07a3.17,3.17,0,0,0,.36-1.48,8.16,8.16,0,0,1,.17-1.66,2.58,2.58,0,0,0,0-.32,2.62,2.62,0,0,0,0-.32q.08-.45.12-.63a2.88,2.88,0,0,0,.1-.78c0-.47,0-.7,0-.72s0-.21,0-.39a2.31,2.31,0,0,1-.1-.23.8.8,0,0,1,0-.23l.07-.23c0-.11,0-.19,0-.23a.79.79,0,0,0,0-.49.13.13,0,0,0-.17-.07l-.16.09a1.15,1.15,0,0,0-.39.55c0,.06,0,.17-.09.33s-.07.23-.1.3a1.29,1.29,0,0,1-.43.62v0a.91.91,0,0,1-.12.31,5.49,5.49,0,0,0-.41.59c-.18.25-.32.45-.44.6a.59.59,0,0,0-.12.29.59.59,0,0,1-.07.39,1.4,1.4,0,0,0-.14.61,1.35,1.35,0,0,1-.17.69,25.63,25.63,0,0,0-.94,2.5c-.08.2-.21.56-.41,1.07a1.46,1.46,0,0,1-.14.28c0-.12-.09-.18-.26-.19s-.12,0-.12.09,0,.1.09.1h.31a3.42,3.42,0,0,1-.26.69,1.31,1.31,0,0,0-.24.68,2.35,2.35,0,0,1-.77,1.3.66.66,0,0,1-.58.14l-.41-.09-.45-.1a2,2,0,0,0-.46-.11.7.7,0,0,1-.55-.34,2.62,2.62,0,0,1-.39-1.39,16.07,16.07,0,0,0-.24-2.05,3,3,0,0,1-.07-.79,15.13,15.13,0,0,0-.05-1.9.82.82,0,0,1,.05-.32c0-.08.1-.33.22-.77a2.63,2.63,0,0,1,.74-1.3l.24-.22.24-.21a1.79,1.79,0,0,0,.12-.21.11.11,0,0,0,0-.16l-.25-.15c-.33-.09-.48-.28-.43-.57,0-.13,0-.28.07-.46q.12-.68.12-.63c0-.16.08-.51.17-1a8.14,8.14,0,0,1,.34-1.23c.1-.3.14-.45.14-.46a1.8,1.8,0,0,0,0-.72,3.38,3.38,0,0,1,.05-1.26c.05-.2.08-.37.1-.49a2.16,2.16,0,0,1,.16-.69,1.77,1.77,0,0,0,.15-.62,1.85,1.85,0,0,1,.07-.31.58.58,0,0,1,.48-.39l.51-.14a3.28,3.28,0,0,0,1.25-.45,2.94,2.94,0,0,1,1.05-.34h.22a.35.35,0,0,1,.24.13.59.59,0,0,1,.12.37,2.38,2.38,0,0,1,0,.41,2.86,2.86,0,0,0-.05.63.69.69,0,0,1-.19.53.65.65,0,0,0-.14.38q0,.28,0,.39a4.64,4.64,0,0,1-.65,2.08l-.14.29a1,1,0,0,0-.1.32,3.77,3.77,0,0,1-.33,1.23c.06-.18-.33.84-1.18,3l0,.05v0a6.74,6.74,0,0,0-.44,1.21,2.91,2.91,0,0,1-.09.59c0,.26-.08.46-.1.61a3.21,3.21,0,0,1-.12.62,2.55,2.55,0,0,0-.12.87c0,.14.08.19.19.17a.8.8,0,0,0,.2-.06l.14-.12.24-.27.29-.32a.84.84,0,0,1,.24-.16,1.25,1.25,0,0,0,.58-.56c.06-.09.33-.55.81-1.37a1.85,1.85,0,0,1,.2-.28,9.91,9.91,0,0,0,.57-1,11.71,11.71,0,0,1,.6-1,.87.87,0,0,1,.41-.35c-.16.26-.26.43-.31.5a.32.32,0,0,0,0,.3c0,.05.06.07.14.07a.28.28,0,0,0,.27-.09c.22-.25.22-.46,0-.64l-.1-.14q0-.15,0-.15a1.77,1.77,0,0,1,.16-.28.21.21,0,0,1,.15-.11,1.07,1.07,0,0,0,.67-.46s0,0,.07-.11a.35.35,0,0,0,.08-.1.56.56,0,0,0,.14-.36s0-.11,0-.23a.38.38,0,0,1,.2-.27l.14-.11a.9.9,0,0,0,.12-.18,1.22,1.22,0,0,1,.14-.16l.34-.28,0,0Zm-2.45,4.49c-.05,0,0,.08,0,.08l0-.06Zm3.44,6.69.07,0,0-.07Zm.14-11.91c-.05,0-.05.1,0,.14s.1.06.14,0,0-.08,0-.12l-.07,0Zm.43-.53h-.31a.06.06,0,0,0-.07,0c0,.06,0,.09,0,.11s.08,0,.09,0l.24-.16Zm.36.85c-.08,0-.11,0-.09.07s0,.06,0,.06.12,0,.12-.08Zm.46-.87c-.08,0-.13,0-.14.05s0,.11.09.13a.15.15,0,0,0,.17-.08C157.33,244.11,157.29,244.08,157.19,244.07Zm.1,1.76s-.08,0-.08,0,0,.09.08.09l.09,0Q157.41,245.83,157.29,245.83Zm.45-2.71a.17.17,0,0,0-.19,0c-.06.05-.05.09,0,.13a.14.14,0,0,0,.16,0Zm0-1.83,0-.06,0,0Zm1.88,12.26a.13.13,0,0,0,0,.07.48.48,0,0,0,.15.11.11.11,0,0,0,.17,0s0,0,0-.07a.32.32,0,0,0-.21-.14S159.62,253.54,159.62,253.55Zm.19,1.3.05.11h.07l0-.05Zm1-.3-.07,0c.1-.1.15-.17.17-.19s.06-.17-.07-.18l-.31,0a.12.12,0,0,0-.15.08.26.26,0,0,0,0,.07.79.79,0,0,0,.36.26Zm-.16-.78-.08,0,.05.06h.1v-.07Zm.24,2.65v0h0Zm.45,1.57v.07l.08,0Zm.32-4.42.12-.21,0,0c0,.11-.05.19-.07.25Zm1-3.6.07,0,0,0-.07,0Zm.29-2.73.05-.14c0-.14.17-.21.38-.2v0a3,3,0,0,0-.46.34Zm.41-.34c.14,0,.21-.09.19-.18a2,2,0,0,0-.1-.23.27.27,0,0,1,0-.3,5.45,5.45,0,0,1,.36-.57l.36-.57a3.5,3.5,0,0,1,.41-.48,1.22,1.22,0,0,1,.38-.25.11.11,0,0,0,.07-.15.85.85,0,0,1,0-.6,10.1,10.1,0,0,0,.62-1.27,2.79,2.79,0,0,1,.17-.41l.17-.43.07-.14a.66.66,0,0,1,.12-.12,1.08,1.08,0,0,0,.46-.61c.08-.24.22-.65.43-1.23a1.84,1.84,0,0,1,.43-.71.72.72,0,0,0,.17-.29c0-.07.08-.21.15-.43a1.54,1.54,0,0,1,.16-.42h0a2.12,2.12,0,0,1,.14-.21c.26-.23.47-.4.63-.52a3.11,3.11,0,0,1,.7-.36c.2-.05.31,0,.31.15a1,1,0,0,0,0,.39.36.36,0,0,1,0,.37c0,.06,0,.12-.07.17a.4.4,0,0,0,.05.3c-.08-.11.07.06.46.52a.44.44,0,0,1,.12.3.26.26,0,0,0,.14.21.37.37,0,0,1,.12.2,1,1,0,0,1,0,.39.34.34,0,0,1-.17.2l-.39.12c-.19.06-.19.14,0,.23,0,0,.07.05.2.09l0,0a1,1,0,0,1-.14.47,8.13,8.13,0,0,1-.92,1.23,1.38,1.38,0,0,0-.16.21,1.86,1.86,0,0,1-.36.64,15.76,15.76,0,0,0-1.47,2.22c0,.06-.12.09-.27.1a.43.43,0,0,0-.4.2l-.08.11-.07.1-.19.38a2.78,2.78,0,0,1-.75.94c.05,0,0,.08-.26.34a.84.84,0,0,1-.29.23h0a1.26,1.26,0,0,0-.51-.12c-.13,0-.19.05-.19.14l0,.14h0l-.41-.09a.58.58,0,0,1-.46-.4Zm2,2.48v.13h0Zm.51-5.12a.13.13,0,0,0-.17,0s0,.05,0,.07a.11.11,0,0,0,.17,0Zm2.38-4.78c-.08,0-.12,0-.1.09s0,.06,0,.06.12,0,.12-.07Zm.19-1.46h-.07l0,.06.07,0Zm.17,2.09c-.16,0-.22,0-.17.16s.06.08.14.09a1,1,0,0,0,.41-.09s.05,0,.05-.05,0-.09-.12-.09l-.19,0Zm.65-2.25a.07.07,0,0,0-.08,0c0,.06,0,.09.08.09l0-.05Z" transform="translate(-1.13)"/><path class="cls-5" d="M171,245.85s.13-.27.38-.82a2.27,2.27,0,0,1,.6-.84,1.27,1.27,0,0,0,.39-.57.49.49,0,0,0,.09-.18c0-.08.06-.15.08-.19a3.21,3.21,0,0,1,.91-1.25l.14-.11.15-.12a1.07,1.07,0,0,0,.29-.34,9.79,9.79,0,0,1,1-1.5,8.32,8.32,0,0,0,.46-.71s0-.06.14-.31a2.56,2.56,0,0,1,.6-.66.37.37,0,0,0,.17-.28.74.74,0,0,1,.17-.45c.32-.46.63-1,.94-1.51a.85.85,0,0,1,.65-.39,2.61,2.61,0,0,1,.72-.08l.86.08a.41.41,0,0,1,.2,0,1.79,1.79,0,0,0,.45.12l.46.09a1.93,1.93,0,0,0,.53.07,1.12,1.12,0,0,1,.89.38l.19.23a.61.61,0,0,0,.22.23.15.15,0,0,1,0,.16l-.12.13a11.51,11.51,0,0,0-2,3.08,4.2,4.2,0,0,0-.27.61,4.63,4.63,0,0,1-.55,1.12,1.7,1.7,0,0,0-.29.75,1.86,1.86,0,0,1-.29.77,1.46,1.46,0,0,0-.16.69v.23a.37.37,0,0,1-.12.24,1.8,1.8,0,0,0-.32.32.3.3,0,0,0,.08.37l.07.06.07.05a.26.26,0,0,1,.07.23,2.82,2.82,0,0,1-.09.3c0,.06-.09.16-.17.31s-.11.21-.15.28a4.77,4.77,0,0,0-.31.93c0,.09,0,.27-.1.52s-.08.38-.09.5a1.78,1.78,0,0,1-.1.23.37.37,0,0,1-.29.21l-.19.05c-.18,0-.25.14-.21.25.06.27.1.4.12.4s0,0-.12.3a5.19,5.19,0,0,0-.34,1.41,1.43,1.43,0,0,1,0,.23,1.44,1.44,0,0,1,0,.23c0,.2.1.33.36.38a7.29,7.29,0,0,1,.91.21,1.15,1.15,0,0,1,.43.21c.12.1.29.27.53.5a.13.13,0,0,1,.05.15.15.15,0,0,1-.12.12s0,0-.05,0l0,0a2.51,2.51,0,0,1-.69.16,2,2,0,0,0-.63.12.81.81,0,0,0-.33.2,1.06,1.06,0,0,1-.61.3c-.08,0-.12.06-.12.11s0,.11.1.16l.17.07a.21.21,0,0,1,.14.27,1.33,1.33,0,0,1-.09.35,3.56,3.56,0,0,0-.1.36,1.61,1.61,0,0,0,0,.55.77.77,0,0,1-.07.54c0,.08,0,.15.07.21a.49.49,0,0,1,.27.43c0,.11,0,.19.19.25a.32.32,0,0,1,.19.43,5.27,5.27,0,0,1-.63,1.27.76.76,0,0,0-.19.6.71.71,0,0,1-.07.39l-.24.43a3.16,3.16,0,0,0-.38,1c-.07.25-.14.51-.22.78a.75.75,0,0,1-.19.27.77.77,0,0,1-.53.23.31.31,0,0,1-.19,0,1.17,1.17,0,0,1-.34-.22s-.19-.17-.6-.55c-.19-.18-.25-.35-.17-.52a.71.71,0,0,0,0-.39,1.49,1.49,0,0,1,.12-.62.87.87,0,0,0,.05-.23,1.62,1.62,0,0,1,.26-.68,1.39,1.39,0,0,0,.19-.7,10.5,10.5,0,0,1,.15-1.67.8.8,0,0,1,.17-.45,1.37,1.37,0,0,1,.14-.21,1.89,1.89,0,0,0,.38-1.23.29.29,0,0,0-.09-.22.29.29,0,0,1,0-.3l.17-.46a.49.49,0,0,0,0-.24.33.33,0,0,0-.26-.25c-.28-.07-.55-.13-.82-.17a1.56,1.56,0,0,0-.31,0,1.46,1.46,0,0,1-.31,0l-1-.21-.31-.07c-.19,0-.79-.1-1.78-.25l-.22,0a1,1,0,0,0-1,.38c0,.06,0,.08,0,.07a9.3,9.3,0,0,0-.72,1.57,1,1,0,0,1-.29.51,8.59,8.59,0,0,0-1,1.41,1.55,1.55,0,0,1-.15.22,9.2,9.2,0,0,0-1.13,2.31,5.81,5.81,0,0,1-.55,1.29l-.36.75a3.75,3.75,0,0,1-1.47,1.62,1.34,1.34,0,0,1-.26.14c-.21.06-.41.12-.6.16a1,1,0,0,1-.43,0l-.27-.11a12.1,12.1,0,0,0-1.46-.66.23.23,0,0,1-.15-.21,1.06,1.06,0,0,1,.05-.31c0-.05.06-.12.12-.23s.28-.42.55-.86.39-.66.53-.87c-.06.1.05-.1.34-.57s.54-.91.67-1.09a3.05,3.05,0,0,1,.67-.8l.2-.2a.47.47,0,0,0,.14-.3V257a.6.6,0,0,1,.24-.43l.51-.41a2.12,2.12,0,0,0,.5-.69s0-.09,0-.17a1.52,1.52,0,0,1,.53-.85,3.14,3.14,0,0,0,.68-.89,1,1,0,0,0,.09-.39.39.39,0,0,0,0-.16,1,1,0,0,1,.29-.84,1,1,0,0,1,.43-.34,1.31,1.31,0,0,0,.48-.43c.23-.32.43-.62.63-.91.83-1.31,1.33-2.07,1.49-2.3s.46-.7.72-1.14a3.66,3.66,0,0,1,.57-.77,2.2,2.2,0,0,0,.32-.32h0Zm-.56,3.58s0,0,0-.05-.09-.06-.12,0,0,0,0,.07Zm2.24-2.26.07,0c-.27.5-.43.8-.48.88a.5.5,0,0,0-.09.23,9,9,0,0,1-.51,1.3s-.24.43-.62,1.18a1.64,1.64,0,0,0-.2.53c0,.16.05.27.24.34l.1,0,.91.21c.93.12,1.53.18,1.81.18a5,5,0,0,1,.52,0,3.56,3.56,0,0,0,1.06,0l.1,0a.57.57,0,0,0,.24-.16,1.35,1.35,0,0,0,.1-.64,8.59,8.59,0,0,1,.12-1.34c.09-.65.15-1.1.16-1.35a1,1,0,0,1,.05-.23,3.23,3.23,0,0,0,.12-1.18,2.65,2.65,0,0,1,.05-.88,1.58,1.58,0,0,0,.05-.78,4.25,4.25,0,0,1,0-1.59.71.71,0,0,0,0-.32c0-.15-.17-.22-.38-.21a.41.41,0,0,0-.36.16c-.05.07-.11.18-.19.32s-.17.26-.22.32a.28.28,0,0,1-.14.11l-.22,0a.57.57,0,0,0-.41.23l-.26.34-.24.35a3.5,3.5,0,0,0-.65,1.25.72.72,0,0,0,0,.2.71.71,0,0,1,0,.19.27.27,0,0,1-.13.13,1.47,1.47,0,0,1-.45.21Zm4-7.08c0-.06-.15-.05-.29,0a1.46,1.46,0,0,0-.46.42c-.08.15-.34.52-.79,1.13a5.33,5.33,0,0,0-.65,1.08,1.18,1.18,0,0,1-.36.49c-.08.08-.38.44-.91,1.07a1.14,1.14,0,0,0-.29.75.26.26,0,0,0,.05.14.18.18,0,0,0,.29,0,2.44,2.44,0,0,0,.36-.39c.22-.32.71-1,1.46-2l1.47-2,.17-.28a.38.38,0,0,0,0-.32A.22.22,0,0,0,176.76,240.09Zm-2.24,1.8s0,0,0-.07-.14-.14-.27-.07a.53.53,0,0,0-.28.62s.05.06.12.07a.16.16,0,0,0,.14,0c.19-.09.3-.2.31-.34Zm1.71.86a.4.4,0,0,0,.24,0,.18.18,0,0,0,.12-.16.46.46,0,0,0,0-.14c-.07-.16-.18-.19-.34-.09a.27.27,0,0,0-.19.25C176,242.66,176.09,242.71,176.23,242.75Zm1.9,2.51a.18.18,0,0,0-.17.06c-.06,0-.06.08,0,.12s.2,0,.25-.05S178.21,245.29,178.13,245.26Z" transform="translate(-1.13)"/><path class="cls-5" d="M188.73,251.52l-.48.84c-.3.55-.57,1.06-.79,1.55-.16.33-.34.68-.53,1l-.19.32c-.1.16-.16.27-.2.34a2.19,2.19,0,0,0-.16.29l-.15.3c0-.05-.08.15-.34.57a1.07,1.07,0,0,1-.36.4.17.17,0,0,0-.07.14,2.78,2.78,0,0,0,0,.41,1.27,1.27,0,0,1-.24.84h0a.93.93,0,0,1-.49.37v0l.1.15a.36.36,0,0,1,0,.23c0,.12-.07.22-.1.32a9.67,9.67,0,0,0-.5,1.37,1.35,1.35,0,0,1-.22.43c-.21.26-.3.37-.29.34a2.06,2.06,0,0,1-.72.68l-.72.46a1.72,1.72,0,0,1-.29.11.21.21,0,0,1-.19-.06,2.59,2.59,0,0,1-.31-.59,1,1,0,0,1,0-.23,2.19,2.19,0,0,1,.24-.76l.39-.84a3.61,3.61,0,0,0,.24-.61,3.07,3.07,0,0,1,.24-.6,12.61,12.61,0,0,0,.58-1.61,1.42,1.42,0,0,1,.36-.64.29.29,0,0,0,0-.09l0-.07a.59.59,0,0,1,0-.39q.48-1.38.6-1.77a.94.94,0,0,1,.43-.52.16.16,0,0,0,.08-.05c0-.08,0-.14,0-.16a.49.49,0,0,1-.07-.59,1.36,1.36,0,0,1,.43-.8l0,0,0,0a.48.48,0,0,1,.05-.31,3.15,3.15,0,0,0,.36-.82,1.86,1.86,0,0,0,.1-.48,2.65,2.65,0,0,1,.19-.76c.06-.16.16-.41.29-.77s.23-.59.31-.77a.84.84,0,0,1,.22-.35.42.42,0,0,0,.09-.22,4.32,4.32,0,0,1,.19-.94c.26-.87.41-1.36.46-1.46s.15-.53.31-1.18c0-.17.1-.43.2-.79s.14-.59.19-.78a1.59,1.59,0,0,1,.12-.3.34.34,0,0,1,.19-.18q.24-.1.12-.27a.87.87,0,0,1-.17-.52s0-.23.1-.64a2.32,2.32,0,0,0,.05-.32c0-.13-.1-.2-.29-.21H188a1.93,1.93,0,0,0-.41.09,5.1,5.1,0,0,1-1.15.1,1.48,1.48,0,0,1-.31,0l-.63-.15-.19-.07a.59.59,0,0,0-.19,0,10.78,10.78,0,0,1-2.17-.87,5.33,5.33,0,0,1-.48-.31.55.55,0,0,1-.21-.73.6.6,0,0,1,.14-.21,2.87,2.87,0,0,1,.94-.52,13.94,13.94,0,0,1,2.43-.61l.5-.1A7.11,7.11,0,0,1,187,237a1.59,1.59,0,0,0,.4-.07,8.61,8.61,0,0,1,1.37-.2c.58,0,.93-.08,1.06-.1a9.27,9.27,0,0,1,2.33-.08,3.77,3.77,0,0,1,.44,0,1.66,1.66,0,0,0,.43,0c.4-.06.71-.09.94-.11a4.19,4.19,0,0,1,1.37.08,3.25,3.25,0,0,0,1.58,0,4.16,4.16,0,0,1,.53-.09,20.55,20.55,0,0,0,2.29-.38,6.32,6.32,0,0,1,1.49-.09l1,.09q.41,0,.33.36l0,.16c-.18.5-.4,1.05-.68,1.66a.51.51,0,0,1-.31.3,8.14,8.14,0,0,1-1.54.57l-.45.13-.44.12a2.39,2.39,0,0,1-.41.09c-.2,0-.69.12-1.46.29-.56.12-1.44.32-2.65.62l-.79.21-.82.22-.14,0-.14.06a.65.65,0,0,0-.49.39.91.91,0,0,0,0,.23c-.07.38-.16,1.07-.29,2.07a8.72,8.72,0,0,1-.75,2.62.92.92,0,0,1-.14.22.87.87,0,0,0-.24.51.85.85,0,0,1-.17.38.13.13,0,0,0,0,.14,1.15,1.15,0,0,1-.12.55c-.35.82-.55,1.33-.6,1.52a.55.55,0,0,1-.36.37l-.53.27a.13.13,0,0,0,0,.14.81.81,0,0,0,.22.27.32.32,0,0,1,0,.37,1.12,1.12,0,0,1-.29.43v0C188.75,251.46,188.73,251.52,188.73,251.52Zm-5.34,9.06,0,0c-.08-.07-.11-.11-.08-.11a.59.59,0,0,0,.1.11Zm.92-3.8a.12.12,0,0,0-.19,0s0,0,0,.05a.1.1,0,0,0,.16,0Zm-.07,1.78-.08.06,0,.07c0-.06.06-.1.07-.13Zm.76-1.19q0-.11-.24-.09c-.08,0-.12,0-.14.07s0,.14.1.18h.09C185,257.52,185,257.46,185,257.37Zm1.71-3.89c-.05,0-.05.08,0,.13a.14.14,0,0,0,.17,0,.2.2,0,0,0,.12-.1s0-.09-.12-.13A.23.23,0,0,0,186.71,253.48Zm.43-15.6-.09-.37a.26.26,0,0,0-.19-.08c-.07,0-.07,0,0,.08a.27.27,0,0,0,.19,0,1.4,1.4,0,0,0,.09.44h0Zm-.16,15-.12,0,0,.05.07,0Zm-.08-2.46v0H187Zm.39-1.39a.08.08,0,0,0-.07,0c-.08,0-.12,0-.12.07s.06.1.14.09S187.34,249.07,187.29,249Zm.43-1.06a.12.12,0,0,0-.17,0,.3.3,0,0,0-.07.14.06.06,0,0,0,.05.06.11.11,0,0,0,.17,0,.65.65,0,0,0,.07-.16Zm.43,1.7,0,0,0,0Zm.51-2.32s0,0,0,0,0,.1.1.11.11,0,.09-.11S188.74,247.31,188.66,247.33Zm.72,1.28-.29,0,0,0,.19.2V249c0,.07.06.08.14,0s0,0,0-.06l-.14-.12.05-.23Zm.05-1.44,0,0-.08,0Zm1.56-4.74-.12.09h-.07c-.08,0-.08,0,0,0s0,0,0,0Zm4.26-3h-.05v.08a.06.06,0,0,0,.07,0v-.06Z" transform="translate(-1.13)"/><path class="cls-5" d="M208.68,249.24h0a.44.44,0,0,1,.17.19.78.78,0,0,1,0,.47.61.61,0,0,1-.33.39,1.76,1.76,0,0,1-.44,0c-.17,0-.25.06-.24.19s-.06.29-.28.39a5.88,5.88,0,0,1-1,.31c-.06,0-.47.11-1.23.26l-.09,0a8.78,8.78,0,0,0-1,.09c-.4,0-.73.08-1,.09s-.93.05-2.33.16a1.35,1.35,0,0,0-.81.36.39.39,0,0,0-.1.14.37.37,0,0,0-.05.16,2.45,2.45,0,0,1-.29.84c-.22.43-.35.67-.38.75a2.75,2.75,0,0,1-.19.44s-.13.09-.44.36a.42.42,0,0,0-.12.52l0,.07a.19.19,0,0,1-.08.28.69.69,0,0,0-.26.34c0,.08,0,.13-.05.14a4.7,4.7,0,0,0-.53,1.22c-.13.41.09.74.65,1a3.42,3.42,0,0,0,1.08.29c.32.05.76.09,1.3.13s.84,0,1.28,0l1.27-.11c.26,0,.41-.13.46-.31a1.66,1.66,0,0,0,0-.16s0,0,0-.14a.36.36,0,0,1,.19-.28l.51-.29a.82.82,0,0,1,.4-.09.67.67,0,0,1,.56.18c.14.15.29.33.45.53a7.41,7.41,0,0,1,.46.63.62.62,0,0,1,.12.46,3,3,0,0,1-.21.86.9.9,0,0,1-.44.44,5.9,5.9,0,0,1-1.94.63,2,2,0,0,1-.53,0,1.26,1.26,0,0,0-.6.11.79.79,0,0,1-.32,0l-.86,0a11,11,0,0,1-2.14-.13,19.84,19.84,0,0,1-2.29-.37,12.2,12.2,0,0,1-1.2-.34,1.7,1.7,0,0,1-.5-.3l-.12-.13a7.38,7.38,0,0,0-.84-.82,1.34,1.34,0,0,1-.53-1.55,13.13,13.13,0,0,1,1.1-2.5c.12-.19.32-.55.63-1.08a2.56,2.56,0,0,0,.14-.31c.16-.51.84-2.13,2-4.85q.15-.37.51-1.17c.24-.5.41-.9.53-1.18,0,0,.17-.45.48-1.3h0l1.13-3.15a.17.17,0,0,1,0-.07.74.74,0,0,0-.1-.63.13.13,0,0,1,0-.21l.46-.45a5.83,5.83,0,0,1,.24-.67s0-.18.1-.49a1.28,1.28,0,0,1,.19-.44.85.85,0,0,1,.22-.18A1.34,1.34,0,0,1,202,239a16.22,16.22,0,0,1,1.78-.52,1,1,0,0,1,.53,0,1.48,1.48,0,0,1,1,1c0,.14.14.22.38.23l.43,0h1.5l3.53,0a12.61,12.61,0,0,1,1.39.12,6.05,6.05,0,0,1,.92.2,1.23,1.23,0,0,1,.28.12c.5.25.65.6.44,1a1.31,1.31,0,0,1-.22.32,2.69,2.69,0,0,0-.22.32.59.59,0,0,1-.31.23,5.28,5.28,0,0,1-1.06.37,4.4,4.4,0,0,1-1.34.2l-.6,0a3.68,3.68,0,0,1-.58,0,1.43,1.43,0,0,1-.53,0s-.07,0-.31-.19a.3.3,0,0,0-.39,0,.55.55,0,0,1-.48,0,.44.44,0,0,0-.4,0,1.2,1.2,0,0,1-.51.09,11.37,11.37,0,0,1-1.59-.13,4.41,4.41,0,0,0-1,0,.43.43,0,0,0-.33.18,1.05,1.05,0,0,0-.15.21c-.32.7-.53,1.15-.62,1.36a5.48,5.48,0,0,1-.51,1,5.38,5.38,0,0,0-.48,1c-.21.67-.33,1.05-.36,1.16a4.08,4.08,0,0,1-.34.93c0,.13-.17.46-.38,1,0,.06,0,.12.07.18a.32.32,0,0,0,.24.07c.16,0,.23,0,.22,0l.6-.13c.85-.17,1.75-.32,2.72-.44l1.15-.16a.82.82,0,0,0,.5-.3,1.93,1.93,0,0,0,.2-.36.88.88,0,0,1,.74-.39.58.58,0,0,1,.31.05.51.51,0,0,1,.36.37,1,1,0,0,1,.05.33c0,.15,0,.28,0,.39a.35.35,0,0,1-.07.21l-.12.14-.19.06a.44.44,0,0,0-.32.19l0,0,0,0,0,.07c-.05.07,0,.13.1.19a.38.38,0,0,0,.31,0,.31.31,0,0,0,.22-.25s0-.11-.08-.37Zm-12.47,5.28v0l-.1,0,0,0c.1,0,.12,0,.08,0Zm.55.55.07,0a1.54,1.54,0,0,1,0,.16.08.08,0,0,0,.07,0c.09,0,.13,0,.12-.09a0,0,0,0,0-.05-.05l-.19,0Zm4.64-8.31.07,0-.07,0Zm5,3.26s0,0-.1,0V250c.05,0,.05,0,0,.07Zm.5-9.52a.37.37,0,0,0-.38,0c-.08,0-.08.08,0,.13a.38.38,0,0,0,.38-.06Zm-.34,9.9,0,0v.06Zm.7-1.38c-.1,0-.13,0-.1.08a.13.13,0,0,0,.1,0l0,0Zm.34-6.84a.16.16,0,0,0,.07-.07c0-.06-.05-.09-.15-.08l0,.06Q207.46,242.2,207.58,242.18Zm.74-.91,0-.06,0,0Zm.1.68s0,0,0,.05l.09,0,0,0Zm1.39.1h0Zm.72-1-.19.29a.1.1,0,0,0,0,.07.13.13,0,0,0,.05.07.17.17,0,0,0,.19-.05.27.27,0,0,0-.05-.36Zm2.58.39a.17.17,0,0,0-.17,0s0,0,0,.08a.21.21,0,0,0,.17,0Z" transform="translate(-1.13)"/><path class="cls-5" d="M221.38,251.34a2.74,2.74,0,0,1,.48.39,3.79,3.79,0,0,1,1,2s0,.2.07.56v0l-.38-.11a.2.2,0,0,0-.24.11.28.28,0,0,1-.22.16,3.11,3.11,0,0,0-.72.16h.05a.4.4,0,0,0-.24.43v.05c-.31.12-.42.28-.34.48l.05.15s0,0-.05.07a.17.17,0,0,1-.19,0l-.1-.13a1.17,1.17,0,0,1-.26-.25h0a9.65,9.65,0,0,1-1-1.55c-.1-.17-.19-.31-.27-.43-.29-.38-.66-.86-1.13-1.44a.5.5,0,0,0-.31-.2.2.2,0,0,0-.19,0q-.15.09-.15.12c-.24.37-.41.66-.53.86a1.54,1.54,0,0,0-.19.46,3.68,3.68,0,0,1-.38,1,1.41,1.41,0,0,0-.17.69,11.13,11.13,0,0,1-.41,2.37,1,1,0,0,0,0,.55,1.21,1.21,0,0,1-.08.7,4.86,4.86,0,0,0-.12.71,1.49,1.49,0,0,1-.14.31l0,0a.65.65,0,0,1-.24.5.17.17,0,0,0,0,.16v.14a.4.4,0,0,1-.07.16l-.12.25a.84.84,0,0,1-.17.25c-.07,0-.07.12,0,.21a.5.5,0,0,0,.1.15c0,.07,0,.12,0,.14l-.22.36a.42.42,0,0,1-.33.18l-.19,0c-.2,0-.25.13-.15.25a.57.57,0,0,0,.39.23s.07,0,.07.06-.05.1-.15.09a1.69,1.69,0,0,0-.62,0,1.57,1.57,0,0,0,.07-.23.63.63,0,0,0-.05-.21.2.2,0,0,0-.19-.13.36.36,0,0,0-.24.05.36.36,0,0,0-.12.22q-.07.28.36.3l.19,0c-.05.35-.07.53-.07.56a1.31,1.31,0,0,1-.38.73.28.28,0,0,1-.46,0s0,0-.05-.07l-.07-.05a.26.26,0,0,0-.27-.09c.05,0,0,0-.09,0s-.38,0-.46-.09l-.24-.27a.61.61,0,0,1-.22-.59c.05-.32.12-.66.2-1,0-.15.15-.23.36-.25a.14.14,0,0,0,.09,0,1.27,1.27,0,0,0,.17-.11.46.46,0,0,0,.12-.21.71.71,0,0,1,.15-.22,1.06,1.06,0,0,0,.16-.19.13.13,0,0,0,0-.14l-.39-.25c-.06-.05-.08-.1,0-.16a1.79,1.79,0,0,1,.1-.22,2.93,2.93,0,0,1,.36-.39.19.19,0,0,0,0-.21c-.15-.23-.18-.41-.1-.54.32-1.54.52-2.46.58-2.75a.77.77,0,0,1,.07-.26.87.87,0,0,0,.07-.27c.05-.18.15-.48.29-.89s.22-.68.27-.89a5.36,5.36,0,0,0,.19-.63,1.5,1.5,0,0,1,.19-.44,1.48,1.48,0,0,0,.17-.7.6.6,0,0,1,.07-.3l.27-.79a4.31,4.31,0,0,1,.28-.75q-.06.12.12-.39a.21.21,0,0,0,0-.23c-.16-.34-.22-.47-.19-.37a.48.48,0,0,1,0-.24.3.3,0,0,0-.14-.28l-.24-.16,0,0a2.12,2.12,0,0,1,.6-.4c.25-.1.29-.26.12-.46l-.2-.18,0,0,.31,0a.8.8,0,0,0,.68-.34,5.68,5.68,0,0,0,.52-1.05,10.92,10.92,0,0,1,.58-1.35,2.06,2.06,0,0,0,.1-.32,9.51,9.51,0,0,1,.55-1.61l.12-.3.1-.32c.21-.55.41-1.06.6-1.52a1.25,1.25,0,0,0,.12-.46,1.17,1.17,0,0,1,.19-.54,5.38,5.38,0,0,0,.72-1.32,4.44,4.44,0,0,1,.27-.6,1.86,1.86,0,0,1,.28-.43l0,0,.07-.24c0,.08.13-.25.48-1a.86.86,0,0,1,.2-.26.8.8,0,0,1,.33-.2c.19-.05.47-.1.82-.16a1,1,0,0,1,.34,0,4.24,4.24,0,0,1,.57.18.6.6,0,0,1,.24.14,1.53,1.53,0,0,1,.39.48,2.53,2.53,0,0,0,.24.45.24.24,0,0,0,.14.1.48.48,0,0,0,.2,0,14.93,14.93,0,0,1,1.68.27,1.85,1.85,0,0,1,.41.09,3.23,3.23,0,0,0,.48.16l.48.16.45.21.68.39a2.46,2.46,0,0,1,.57.49l.46.53a1,1,0,0,0,.27.23,1.24,1.24,0,0,1,.45.43l.32.43a2.28,2.28,0,0,1,.26.52c.24.74.34,1.08.31,1a.89.89,0,0,1,.05.32c0,.28,0,.52,0,.72a1.21,1.21,0,0,1-.09.3,1,1,0,0,0-.12.38.74.74,0,0,1-.12.39.67.67,0,0,0-.1.21,2.17,2.17,0,0,1-1,1.29c-.55.39-1,.73-1.35,1a9.77,9.77,0,0,1-2,1.23,1.07,1.07,0,0,1-.6.11l-.21,0c-.31,0-.46.15-.46.37a1.37,1.37,0,0,0,0,.16v.16a.23.23,0,0,1-.19.25l-1.1.34a.34.34,0,0,0-.27.21.44.44,0,0,1-.24.25,3.73,3.73,0,0,1-.86.33.53.53,0,0,1-.32,0l-.12,0a.59.59,0,0,0-.14-.07.29.29,0,0,0-.19,0,1,1,0,0,0-.65.25.32.32,0,0,0-.07.51,4.15,4.15,0,0,0,.57.57.88.88,0,0,1,.2.29v0Zm-9.45,10.49h0v0Zm.65-1.57.07,0,0-.05C212.53,260.19,212.51,260.21,212.58,260.26Zm.65.75h-.08l.08,0Zm1.46-13.45c0,.06,0,.06.05,0h-.05Zm8.2-7.95c-.47.36-.71.55-.75.57a1.83,1.83,0,0,0-.48.62,5.36,5.36,0,0,1-.24.56l-.26.57a7.3,7.3,0,0,1-.34.75c-.83,1.66-1.25,2.5-1.25,2.53a2.82,2.82,0,0,1-.29.52,5.51,5.51,0,0,0-.55,1.35l-.1.39c0,.05,0,.11.1.18a.4.4,0,0,0,.24.09h.1c.77-.08,1.19-.14,1.27-.16a7.47,7.47,0,0,0,1.11-.27.57.57,0,0,0,.36-.28,1.18,1.18,0,0,1,.31-.32c.38-.27.67-.47.84-.61.77-.61,1.29-1,1.56-1.19a2,2,0,0,0,.29-.24,11.25,11.25,0,0,0,1.52-1.42l.41-.47c.17-.19.31-.34.4-.46a5.21,5.21,0,0,0,.46-.71.93.93,0,0,0,0-.93l-.36-.5a2.65,2.65,0,0,0-.84-.71,1.77,1.77,0,0,0-.67-.22,4,4,0,0,0-1.47.13,7.26,7.26,0,0,1-1.34.25Zm-1.78,16.78h.17q.08,0,0,0a.33.33,0,0,0-.4,0h0Zm-.26,0h0Zm.5-1.84a.71.71,0,0,1,.46.66s0,0,0,.05a.15.15,0,0,1-.09,0,2.67,2.67,0,0,1-.53-.25v0l.17-.07a.22.22,0,0,0,.12-.22l0-.21Zm-.1,1.82h0Zm.77,1.37a1.32,1.32,0,0,1-.26-.57.23.23,0,0,1,.1-.21.82.82,0,0,1,.62-.23c.26,0,.4.08.43.26v.09a.75.75,0,0,0,.17.52l0,0a2.58,2.58,0,0,1-.68,0,1.91,1.91,0,0,0,.07-.28c0-.06,0-.1-.09-.13a.26.26,0,0,0-.19,0,.4.4,0,0,0-.17.17,1,1,0,0,0,0,.38Zm1.09-1.25a3,3,0,0,1,.74.2.32.32,0,0,1,.12.12.47.47,0,0,1,0,.29h0a.93.93,0,0,1,.6.43,1.13,1.13,0,0,1,.19.76,2.71,2.71,0,0,0,0,.31,1.09,1.09,0,0,0,.26.91c.08.09.07.17,0,.23a2.46,2.46,0,0,0-.53.37.32.32,0,0,1-.39,0,1.29,1.29,0,0,1-.69-.57,1.58,1.58,0,0,0-.32-.41.43.43,0,0,1-.12-.22.44.44,0,0,0-.31-.3l-.17-.11a.28.28,0,0,1-.17-.17s-.08-.22-.24-.63v0l.1,0h.12l.17.09a.82.82,0,0,0,.62.16,3.77,3.77,0,0,1,.51,0v0l.09-.13c.08-.08.05-.13-.09-.14a.66.66,0,0,1-.43-.18l0,0c.1-.18.15-.28.17-.3a.48.48,0,0,0,0-.45l-.14-.37Zm-.65,1.07-.24.2Zm-.2-18.27,0,0v0Zm.46,17.11a.31.31,0,0,1-.24-.25c0-.07,0-.1.12-.1a.53.53,0,0,1,.41.21,1.37,1.37,0,0,0,.1.23h0Zm-.09-18.34s-.06,0-.08,0-.05.07,0,.09l.07,0Zm.07,16.81.05,0,0,0Zm.05,0,0,.06,0,0Zm.16-.62v0Zm.12,1.19a.49.49,0,0,1,0,.15l0,0A1.12,1.12,0,0,0,223,255.44Zm0,.15c.09,0,.13,0,.12.1s0,0-.07,0a.1.1,0,0,1,0-.14Zm1.25-8.08a.12.12,0,0,0-.07,0c-.13,0-.2,0-.22.08s0,.09.1.11S224.37,247.62,224.31,247.51Zm1.25-.11.36-.21a2.46,2.46,0,0,1,.38-.22l.22-.16a.34.34,0,0,0,.12-.12.1.1,0,0,0,0-.14.21.21,0,0,0-.2,0,2,2,0,0,0-.38.11,1.48,1.48,0,0,0-.7.44.39.39,0,0,0-.09.15s0,.09,0,.14a.23.23,0,0,0,.17.07Zm.67-3.21c0-.07-.06-.09-.14-.05s-.08,0-.08.05.07.08.15.06Zm3.51.23h0q.08-.12-.09-.09a.08.08,0,0,0-.07,0l0,.23a.2.2,0,0,0-.17,0s0,.06,0,.06a.12.12,0,0,0,.12-.09Z" transform="translate(-1.13)"/><path class="cls-2" d="M188.15,174.41l-.93-6.16V161l-.61-3.62L186,155l.62-3.62-.62-1.7-1,.7-1-.7h-.92l-.85,1.39-.85,2.39-1.46,1.69-1.46-.54-.7,1.85-.77.31-1.46-.31-1.93-2.15-2.23-.93-1.93-1-1.31-1.74-.54-2.55-.54-2.31-.31-1v-3.55L165.26,140V130.1l.92-1.7v-1.77l.16-1.77-.7-1.47-.38-1.85v-3.7l1.69-.38.39-.77.23-1.31.69-1.78-.23-1.08,1.16-.38.53-.81s.78-.72.75-.79a4.27,4.27,0,0,1,.05-.67l1.17.68.91,1.54.85,1.21,1,.3,1.36.44.56-1.25,1.16-.46-1.33-2.46,3.41.5,1.21-1.28.47-2.77-2.09-2.6-.92-2.2-2.14-.52-2.25-1-.7.93-1.38,0,.4,1.56-1.39-.4-1.15-1.56-2,.81-1.9-.06.69.93,1.56.52,1.79.92v.81l1.39,1.56.4,1.56h-1.32L169.13,106l-1.45-1.67L165.6,104h-.92l-.41,1.21-.52,1.16v1.16l.93.63.52,1.5.81,1.51.06,1.38.11,1.91-.81,1.74-1.27.92-1.56.23-1-.58-.81-1.5-2.14-2.14V112l-1.21-1.5,1.21-.87,1.1-1.09,1.38-.18.76-.63-1-.87-1.8-1.45-1.21-.75-2.31-.46.34-.69,1-.18-.47-1.09-.06-.7.47-.4-.7-1.16-.63-1.33-.93-2.95L153.81,94l-.92-1-.81-.93.81-.46-1.28-.87h-1.32l-.47,1.1-2-.06-1.27-1.68-1.39-1.61-2.54-2.43-2-1.68-2.42-1.91-1.39-2.11v-1h1l.75-.57h1.45l.06-.64-3.24-1.5-2-2h3.07l4.28,2.2L142,79.44l.23,1.79L144,82.91l3.82,3.7,2,1.21,2.26,1.79,2.19,3,1.28.23.23-1.38-.93-2-2.77-1.91-2.55-2.42L147,83.55l-.17-2.78,4.51-.38,2.6.32,2.42,2.43,2,3.47,1.56-1.16,2.89,3,1.39,4,.23,2,2.48,2.25,1,.29-.23-2-1.15-1-1.22-2,.52-1.62-1.27-2.43,2,.93,3,3.93,2,2,3.88,3.35,2,2.49,1,.64,1.33,1.85,2.37,3.93,5.61,11.27,1.85,6.76,2.14,8.15.87,11V154l-.76,9.83-1.33,5.66-1.44,5-.81,1.85Z" transform="translate(-1.13)"/></g></g></svg>