<svg id="Layer_1" data-name="Layer 1" xmlns="http://www.w3.org/2000/svg" viewBox="0 0 210.24 258.37"><defs><style>.cls-1{fill:#f7f5f5;}.cls-2{fill:#00a4ff;opacity:0.14;}.cls-3{fill:#106a8e;opacity:0.07;}.cls-4{fill:#008cff;}.cls-5{fill:#fff;}</style></defs><title>Asset 2</title><path class="cls-1" d="M184.67,123.25a306.1,306.1,0,0,1-28.52-34.86C147,75.2,137.41,60.09,135,43.9a38.24,38.24,0,0,1-.42-5.45c0,1.16-.05,2.32-.16,3.48,0,.42-.08.84-.13,1.26-1.21,10.21-6.07,20.13-11,28.9a240.86,240.86,0,0,1-22.18,32.23q-8,10-16.89,19.34c-2.82,3-6.08,5.69-8.61,8.87a96.34,96.34,0,0,0-6.49,8.93,77,77,0,1,0,136.3,10.43,76.26,76.26,0,0,0-7.2-13.15c-3.13-4.6-7-8.49-10.8-12.52C186.53,125.24,185.6,124.25,184.67,123.25Z" transform="translate(-30.76 -38.22)"/><path class="cls-2" d="M134.61,254.09l-1.93-1.19,1.93-3,3-1.78,6.23-3.42,5.34-2.82,4.15-5,4.16-3.56,1.93-.59,3.7-4.9,7.13-14.69-3-2.67H157l-2.82-3.71-1.78-2.37-3-1.78h-4.6l-3-3.27H140l-1.78-2.07-2.23-1-2.07.89-4.38-.89H127L124.67,195l-4.9,3.86-2.11-.3-1.19-.85-2.41.22-1.78-.52-.82-.78-.4-.52v-2.59l.33-3.41-1.71-1.3-1-.45h-2.89l-.15-1.22,1.45-2.34.55-1.56-.14-2.22h-2.75l-1.15,1.37-1.26,1.15-1.71.48L98.82,184l-1.12-1.26-.77-2.63v-3.42l.48-2.48,1-2.15,1.26-1.19,1.86-.55H104l1.37,1.18,1,0,.33-1.22h3.08l1.41,1.33,1.59-.07.78,4,1,1.75,1.6.07-.08-4.52-.33-3.42L118,167l3.56-1.74,1.6-3.49,2.3-3.56L128,158l-.37-2,2.7-2,1.12-.34.78,1.6,2.85-1,2.3-2.6-2.22.49-1.6-.89-.44-2.56-2.53.78-.85-.26,2.75-1.71,1.81,1,2.9-1.74.92-.45,1.75-1.85-1.75-1.82-2-1.82-1.82-1.52-1.85-2.78L131.38,138l-1.3.37-.59-2.3-2.34-1.33-2.74-.71-1.71.3.89,2-.18,2.12.59,1.3-.33,1.37a14.07,14.07,0,0,0-1.6.74l-.81.78v3l-.78.07-1-4.08-2.67-2-3.15-1.37-.3-2.86,2.23-1.74,2.74-1,1-.75L121,134l-.19.71,1-.6.45-1,.74,0-.52-1.19-.78-.52,0-1,.74-.52h.85l.63-.33.19-1.71.7-.48.85.82,0,.85,2,.56-.51,1.18-2.45,1,.18.74,1.67.29,1.3.3,1.26,1.15,1.86.56.52-.52.66-.19-.18-1.67-1.19-1.33,2.41.52V130.1l-2.45-1.41-.4-1.89L128.79,125l-2-1.34-2.16-.18,1.49-1.38.78-.51,1.07-.19v-1.71l1.56-.4,1.26-.71.52.82-1.78,1.07.93,1.49,2.48-.15,2.08,3,1.52,2.18,1,.49-.26,1.7,1.66,3,2.6,2.26,3.45,1.45,1-.23-.81-5.64,1.93-1.89.55-1.93,1.15-1.52-.59-1.81L146,120.64l-1.37-1.75L142,117.74l-1.63-1.55-3-.59h-1.8l-1.15,1-2.17.92-.83-.72-1.31-.42-2,.47-1.48.51-1.86.8-.2,1.73-.63,1.83-.73-2.39-.58-1-1.12,2.2-.69,2.9-1.61-.92.08-1.84-.33-.86-.87-1.28-2.58.44.83,2.15.92.94.75.34-.58,1.22-2-.83L114.3,120s-3,1.16-3,1.25.5,1.92.5,1.92l-.64.92-1-.92-2.89-1.59,0-4.28-2.31-1-1.78.55-1.53.23-.63.51-1.29,1.32-2.57.14-.28,1-1.54.12-1.52,2.51L93,123.79H89.64a6,6,0,0,0,.58.94l1.34.55.21.55,1.35-.44.78-.38.45-.29.86.49s.64,1.57.67,1.55-.37,1.1-.37,1.1l-.61,2.48-.92.91-.75,2.17L93,134.9,91.77,137l-.58,1.63-.5,2.28L90,143l-1.23,2.19L87,147.31,85,150l-.86,2.86-.37,3.41,1.41,4.53,1.15,3.37.33,2-1.44-1-1.23,2.64,1.86,6.41,1.26-1.63.18,2.12.93,2.67,1.26,3.26,1.78,3,1.56,1,1.93,1.63.93.85h3.48l1.86,2.08,2,2.49,2.3.48,2.63,2.59,1.15,2.45,3,2.67,3,1,.44-1.63,1.63-.19.78,1.9.34,3.11-1.82,2.75-1,2-.78,3.11.08,1.86-.37,2.41.83.95,1.67-.34.17,1-1.23,1.23.56,1.72,2.34,2.28,1.22,1.78,2.38,1.78,2.63,2.45,1.17.67,1.44.95.23,2.05.39,2.56-.62,3.68-.16,2.72v3.45l.05,2.23.11,2.11-.57,1,.24,1.84,2.28,1.11,2.73.65Z" transform="translate(-30.76 -38.22)"/><path class="cls-3" d="M184.44,123a307,307,0,0,1-28.51-34.87C146.78,75,137.19,59.87,134.81,43.68a37,37,0,0,1-.42-5.46c0,1.17-.06,2.33-.16,3.49,0,.42-.08.84-.13,1.26-.39,3.26,7.12,52.57,34.26,82.56a111.37,111.37,0,0,1,24.31,45.21,57.42,57.42,0,0,1-14.09,54.95,129,129,0,0,1-23.44,18.72c-4.42,2.85-8.8,5.75-13.35,8.39-2.27,1.31-4.58,2.57-6.95,3.7a17,17,0,0,1-3.18,1.34,14,14,0,0,1-3.28.67c1.74.65,4.15.33,6,.33a76.95,76.95,0,0,0,63.66-120.32c-3.14-4.6-7-8.5-10.8-12.52Z" transform="translate(-30.76 -38.22)"/><path class="cls-4" d="M109.25,166.51V199A14.87,14.87,0,0,1,106,209a10.41,10.41,0,0,1-8.36,3.84q-6.18,0-9.44-6.39a14.23,14.23,0,0,1-4.31,4.92,10.34,10.34,0,0,1-5.68,1.47A9.64,9.64,0,0,1,70,209q-2.85-3.84-2.85-11.05V166.51H79V195.9a8.8,8.8,0,0,0,.3,2.88,1.22,1.22,0,0,0,1.24.69c1.17,0,1.75-1.11,1.75-3.34V166.51H94.11V195.9a8,8,0,0,0,.32,2.84,1.22,1.22,0,0,0,1.25.73c1.16,0,1.75-1.19,1.75-3.57V166.51Z" transform="translate(-30.76 -38.22)"/><path class="cls-4" d="M135.27,165.38q8.44,0,14.49,7a26.19,26.19,0,0,1,0,33.53,19.23,19.23,0,0,1-29.57,0,26,26,0,0,1,0-33.59A19.49,19.49,0,0,1,135.27,165.38Zm-.35,13.31a7.84,7.84,0,0,0-6.21,3,11.8,11.8,0,0,0,0,14.7,7.86,7.86,0,0,0,12.41,0,11.91,11.91,0,0,0,0-14.73A7.86,7.86,0,0,0,134.92,178.69Z" transform="translate(-30.76 -38.22)"/><path class="cls-4" d="M202.65,166.51V199a14.92,14.92,0,0,1-3.23,9.93,10.45,10.45,0,0,1-8.37,3.84q-6.17,0-9.43-6.39a14.14,14.14,0,0,1-4.32,4.92,10.32,10.32,0,0,1-5.68,1.47,9.61,9.61,0,0,1-8.21-3.84q-2.85-3.84-2.86-11.05V166.51h11.83V195.9a8.44,8.44,0,0,0,.31,2.88,1.21,1.21,0,0,0,1.24.69c1.16,0,1.74-1.11,1.74-3.34V166.51H187.5V195.9a8.28,8.28,0,0,0,.32,2.84,1.22,1.22,0,0,0,1.25.73c1.17,0,1.75-1.19,1.75-3.57V166.51Z" transform="translate(-30.76 -38.22)"/><path class="cls-5" d="M38.92,273.46l.07-.36a1.27,1.27,0,0,1,.13-.37c.07-.18.13-.29.15-.35a1.77,1.77,0,0,0,.31-.77c.05-.19.08-.32.09-.38A.35.35,0,0,1,40,271a1.87,1.87,0,0,0,.49-.07,1.18,1.18,0,0,0,.17.2.26.26,0,0,0,.27,0A.14.14,0,0,0,41,271a.12.12,0,0,0-.11-.13l-.36,0a.54.54,0,0,0-.06-.57h.06l-.06,0-.2-.17c-.1-.13-.12-.25,0-.35l.26-.29a.54.54,0,0,0,.2.22l0,0-.2-.24a.31.31,0,0,1,.33-.22l.48,0a.64.64,0,0,1,.4.24h-.29a.18.18,0,0,0-.15.09.39.39,0,0,0-.11.27q0,.11.09.15h.08a.58.58,0,0,0,.38-.53c.14-.25.23-.39.24-.42a.85.85,0,0,1,.31-.35c.07.09.09.1.06,0h-.08c0-.17,0-.27,0-.28s.09-.17.22-.11a.37.37,0,0,1,.26.24s.07.23.16.55l-.09,0a.15.15,0,0,0-.09,0c-.12,0-.2,0-.24.08s0,.14.09.25a.75.75,0,0,1,0,.15.82.82,0,0,1,0-.18.54.54,0,0,0,.31-.26l.08.26a9.28,9.28,0,0,1,0,1.48,1.3,1.3,0,0,1-.11.46.51.51,0,0,0-.06.37,2.35,2.35,0,0,1-.09,1.17,2.14,2.14,0,0,0-.07.37,1.25,1.25,0,0,1-.24.53,1,1,0,0,0-.2.75,1.4,1.4,0,0,1-.09.57,6.85,6.85,0,0,1-.39,1.19.52.52,0,0,0-.07.29,2.66,2.66,0,0,1-.11.68c-.32,1.22-.58,2.26-.79,3.13a8.18,8.18,0,0,0-.24,1.65c0,.08,0,.47-.07,1.16a3.86,3.86,0,0,1-.22.95.72.72,0,0,0-.06.66,9.65,9.65,0,0,1,.11,1.06q0,.48.06,1.47a1.72,1.72,0,0,0,.18.75.16.16,0,0,0,.15.09.36.36,0,0,0,.2,0,.73.73,0,0,0,.24-.28,5.59,5.59,0,0,0,.42-1.1,6.82,6.82,0,0,1,.26-.9,9.24,9.24,0,0,0,.29-.89,2.47,2.47,0,0,1,.29-.61,25.53,25.53,0,0,1,1.1-2.51l1.14-2.38c.57-1.13,1.06-2.16,1.48-3.1a1.65,1.65,0,0,1,.35-.57l0,0,.11.15a1.15,1.15,0,0,0,.61.4.27.27,0,0,0,.35-.11,1.67,1.67,0,0,1,.14-.27l0,0a1.23,1.23,0,0,1,.62-.19h0a2.32,2.32,0,0,0-.07.28,10.4,10.4,0,0,0-.77,2.51c0,.15,0,.24-.06.26a1.32,1.32,0,0,0-.14.78,3.89,3.89,0,0,1-.22,1.32c-.08.23-.19.56-.3,1s-.23.79-.29,1a5.83,5.83,0,0,1-.33.82.69.69,0,0,0-.42-.46,1,1,0,0,0,0-.18V283c0-.13,0-.2-.11-.22s-.13.05-.17.18a.87.87,0,0,0-.27-.07c-.07,0-.1,0-.08.09s0,0,.08,0l.09,0,.18,0c.13.17.22.27.28.28l.42.47a4.91,4.91,0,0,1-.17.85.32.32,0,0,0,.08.27.24.24,0,0,0,.27.09.57.57,0,0,0,.35-.31.73.73,0,0,0,.11-.27c0-.07.22-.76.57-2.06A17.42,17.42,0,0,1,48,280a2.14,2.14,0,0,0,.17-.46c.08-.23.13-.39.16-.46a1.24,1.24,0,0,1,.33-.49,21,21,0,0,1-.71,2.34c-.17.48-.36,1.08-.55,1.78a13.59,13.59,0,0,1-.57,1.76c0,.1-.14.38-.28.84a2.61,2.61,0,0,0-.16.94,4.11,4.11,0,0,1-.28,1.35c-.2.54-.35.93-.47,1.18l-.33.75a7.57,7.57,0,0,1-.33.77c0,.06-.12.34-.28.84a1,1,0,0,1-.31.48,1.75,1.75,0,0,0-.27.4c0,.07-.05.1,0,.09a3.1,3.1,0,0,1-1.3,1.54.72.72,0,0,1-.37.11l-.6,0a.9.9,0,0,1-.37-.07,3.53,3.53,0,0,0-.86-.18,1.67,1.67,0,0,1-.28-.08.84.84,0,0,1-.38-.29.76.76,0,0,1-.09-.18,1.53,1.53,0,0,0-.72-.77.75.75,0,0,1-.33-.46,2.87,2.87,0,0,1-.09-.28c-.07-.5-.21-1.14-.4-1.92,0,0,0-.1,0-.4a2.61,2.61,0,0,1,0-1.16.69.69,0,0,0,.05-.18.65.65,0,0,0,0-.39,2.41,2.41,0,0,0-.11-.33,2.52,2.52,0,0,0-.11-.31,1.56,1.56,0,0,1,0-.68l0-.09a5.08,5.08,0,0,0,.33-1.83,14,14,0,0,1,.15-2,2.18,2.18,0,0,0,0-.39,3.94,3.94,0,0,0,0-.4c0-.36.09-.62.12-.77a6,6,0,0,0,.08-1c0-.57,0-.86,0-.88s0-.26,0-.48c0,0,0-.14-.09-.29a1.1,1.1,0,0,1,0-.28,2.92,2.92,0,0,1,.07-.29,1.43,1.43,0,0,1,0-.29,1.41,1.41,0,0,0,0-.59c0-.09-.08-.12-.16-.09l-.15.11a1.43,1.43,0,0,0-.35.68c0,.08,0,.21-.09.4a2.5,2.5,0,0,1-.09.37,1.61,1.61,0,0,1-.39.77v0a1.66,1.66,0,0,1-.11.38,7.35,7.35,0,0,0-.38.72l-.39.75a.79.79,0,0,0-.11.35,1.12,1.12,0,0,1-.07.49,2,2,0,0,0-.13.75,2.09,2.09,0,0,1-.16.85c-.23.69-.52,1.72-.85,3.09-.08.24-.2.69-.38,1.32a3.27,3.27,0,0,1-.13.35q0-.23-.24-.24c-.08,0-.11,0-.11.11s0,.13.09.13l.28,0a7.23,7.23,0,0,1-.24.85,2.06,2.06,0,0,0-.22.84,3.25,3.25,0,0,1-.7,1.61.5.5,0,0,1-.53.17l-.38-.11-.42-.13a1.45,1.45,0,0,0-.41-.13.66.66,0,0,1-.51-.42,3.9,3.9,0,0,1-.35-1.72c0-.44-.08-1.28-.22-2.53a5.34,5.34,0,0,1-.07-1c0-1,0-1.77,0-2.36a1.36,1.36,0,0,1,0-.4c0-.08.1-.4.2-.94a3.68,3.68,0,0,1,.68-1.61,1.85,1.85,0,0,0,.22-.26l.22-.27a2.38,2.38,0,0,0,.11-.26.17.17,0,0,0,0-.2l-.22-.18a.59.59,0,0,1-.4-.7c0-.16,0-.35.07-.57a7.73,7.73,0,0,1,.11-.77c0-.21.06-.63.15-1.28a12.53,12.53,0,0,1,.31-1.52c.09-.36.13-.55.13-.57a3,3,0,0,0,0-.88,5.48,5.48,0,0,1,0-1.56q.06-.37.09-.6a3,3,0,0,1,.15-.85,2.86,2.86,0,0,0,.13-.77s0-.16.07-.38a.62.62,0,0,1,.44-.48l.46-.18a2.62,2.62,0,0,0,1.15-.55,2.29,2.29,0,0,1,1-.42h.19a.27.27,0,0,1,.22.16.85.85,0,0,1,.11.46,3.41,3.41,0,0,1,0,.5,4,4,0,0,0,0,.77,1.19,1.19,0,0,1-.18.67,1,1,0,0,0-.13.46c0,.23,0,.39,0,.48a7.52,7.52,0,0,1-.6,2.58c-.07.19-.12.3-.13.35a1.34,1.34,0,0,0-.09.4,6.19,6.19,0,0,1-.31,1.51c.06-.22-.3,1-1.08,3.77a.1.1,0,0,1,0,.06v.05a9.17,9.17,0,0,0-.39,1.49,4.39,4.39,0,0,1-.09.73q-.06.48-.09.75a5.58,5.58,0,0,1-.11.77,4.67,4.67,0,0,0-.11,1.08c0,.16.07.22.18.19a.38.38,0,0,0,.17-.06,1,1,0,0,0,.13-.16c0,.05,0-.06.23-.33s.23-.35.26-.39a.8.8,0,0,1,.22-.2,1.35,1.35,0,0,0,.53-.68c.06-.12.31-.68.75-1.7.1-.22.16-.33.17-.35.15-.29.32-.71.53-1.25.1-.28.29-.7.55-1.26a.91.91,0,0,1,.37-.44c-.14.33-.24.53-.28.62a.47.47,0,0,0,0,.37c0,.06.06.09.13.09a.2.2,0,0,0,.24-.11.57.57,0,0,0,0-.79l-.09-.18c0-.12,0-.17,0-.17s0-.11.15-.36a.21.21,0,0,1,.13-.13,1,1,0,0,0,.62-.57.39.39,0,0,0,.06-.13.56.56,0,0,0,.07-.13.78.78,0,0,0,.13-.44c0-.05,0-.14,0-.29a.54.54,0,0,1,.18-.33l.13-.13a1.47,1.47,0,0,0,.11-.22,1,1,0,0,1,.13-.2l.31-.35,0,0ZM36.68,279c0,.06,0,.09,0,.09l0-.07Zm3.15,8.25.06.05,0-.09Zm.13-14.7a.13.13,0,0,0,0,.18c0,.07.09.07.13,0a.12.12,0,0,0,0-.16l-.07,0Zm.39-.66h-.28s0,0-.07.07,0,.12,0,.13.07,0,.08,0a1.81,1.81,0,0,0,.22-.2Zm.33,1.06c-.07,0-.1,0-.08.09s0,.06,0,.06.11,0,.11-.09Zm.42-1.08c-.07,0-.12,0-.13.07s0,.14.09.15a.12.12,0,0,0,.15-.09C41.23,271.93,41.19,271.89,41.1,271.87Zm.09,2.18s-.07,0-.07,0,0,.11.07.11l.09,0C41.29,274.09,41.26,274.05,41.19,274.05Zm.42-3.35a.14.14,0,0,0-.18,0c-.06.06,0,.11,0,.16s.11,0,.16,0Zm0-2.26,0-.07,0,.05Zm1.71,15.14a.29.29,0,0,0,0,.09l.13.13c.06.06.11.05.16,0a.08.08,0,0,0,0-.09.37.37,0,0,0-.2-.18S43.32,283.56,43.32,283.58Zm.18,1.61,0,.13h.07l0-.07Zm1-.38-.07,0,.16-.24c.07-.13.05-.21-.07-.22l-.29-.05a.11.11,0,0,0-.13.09.51.51,0,0,0,0,.09,1,1,0,0,0,.33.33Zm-.16-1-.06.05,0,.06a.08.08,0,0,0,.09,0v-.09Zm.22,3.28v.05s0,0,0,0Zm.42,1.94v.09l.07,0Zm.29-5.46.11-.26,0,0c0,.14-.06.24-.07.31Zm.94-4.45.07,0,0-.06-.07,0Zm.27-3.36,0-.18a.3.3,0,0,1,.35-.24v0c-.32.29-.46.43-.41.42Zm.37-.42c.13,0,.19-.12.18-.22s0-.11-.09-.29a.47.47,0,0,1,0-.37c.06-.15.17-.38.33-.7s.26-.55.33-.71a6.9,6.9,0,0,1,.38-.59,1.12,1.12,0,0,1,.35-.31q.09,0,.06-.18a1.4,1.4,0,0,1,0-.75,15.73,15.73,0,0,0,.57-1.56,4.93,4.93,0,0,1,.15-.5l.16-.53a.64.64,0,0,1,.06-.18,1.49,1.49,0,0,1,.11-.15,1.33,1.33,0,0,0,.42-.75c.07-.29.21-.8.4-1.52a2.52,2.52,0,0,1,.39-.88,1,1,0,0,0,.16-.35c0-.09.07-.27.13-.53a2.29,2.29,0,0,1,.15-.53l0,0h0a1.74,1.74,0,0,1,.13-.26c.24-.28.43-.49.58-.64a2.5,2.5,0,0,1,.63-.44c.19-.07.29,0,.29.18a1.6,1.6,0,0,0,0,.48.53.53,0,0,1,0,.46,1.08,1.08,0,0,0-.06.2.73.73,0,0,0,0,.38c-.07-.14.07.08.42.63a.76.76,0,0,1,.11.38.36.36,0,0,0,.13.26.38.38,0,0,1,.11.24,2,2,0,0,1,0,.49.34.34,0,0,1-.16.24l-.35.15c-.17.08-.17.17,0,.29,0,0,.06.05.18.11l0,0a1.59,1.59,0,0,1-.14.57,9.41,9.41,0,0,1-.83,1.52,2.31,2.31,0,0,0-.16.26,2.41,2.41,0,0,1-.33.8,23.57,23.57,0,0,0-1.34,2.72c0,.08-.11.12-.24.14a.37.37,0,0,0-.37.24l-.07.13-.07.13c0,.11-.1.26-.17.47a3.46,3.46,0,0,1-.69,1.16q.08-.06-.24.42a1.08,1.08,0,0,1-.26.29h0a.83.83,0,0,0-.46-.16.16.16,0,0,0-.18.18l0,.17,0,0a1.89,1.89,0,0,1-.38-.11.64.64,0,0,1-.42-.48Zm1.83,3.06v0Zm.46-6.32q-.09-.09-.15,0a.06.06,0,0,0,0,.09q.09.09.15,0Zm2.18-5.9c-.07,0-.1,0-.09.11s0,.07,0,.07.11,0,.11-.09Zm.18-1.8h-.07l0,.07.07,0ZM51.6,267c-.15,0-.2.07-.15.2a.13.13,0,0,0,.13.11.64.64,0,0,0,.37-.11.06.06,0,0,0,0-.06c0-.08,0-.11-.11-.11l-.18,0Zm.59-2.77s0,0-.06,0,0,.11.06.11l.05-.06Z" transform="translate(-30.76 -38.22)"/><path class="cls-5" d="M50.37,286.84l.2,0c.29,0,.44-.08.46-.35v-.6c0-.42,0-.75,0-1a1.65,1.65,0,0,1,.13-.66,2.19,2.19,0,0,0,.13-.48.71.71,0,0,1,.09-.27.74.74,0,0,0,.16-.3.76.76,0,0,1,.17-.29c.12-.32.19-.51.2-.55a.79.79,0,0,1,.2-.33l0,0a.88.88,0,0,1,0,.64.13.13,0,0,0,0,.08c0,.06.09.09.15.07a.73.73,0,0,0,.18-.09.85.85,0,0,1,.46-.06H53l-.11,0v-.2a.23.23,0,0,1,.17-.22c.15-.06.2-.15.16-.29v-.11a.32.32,0,0,1,.15-.33.44.44,0,0,0,.22-.39c0-.12,0-.19-.13-.22a.16.16,0,0,0-.18,0l-.13.13a.25.25,0,0,1-.26.09.84.84,0,0,0-.75.11s0,0-.2.2-.1.06-.18,0a.12.12,0,0,1,0-.09.54.54,0,0,1,.26-.57l0,0,.07-.17c0-.08.06-.14,0-.18a.78.78,0,0,1,0-.48,15.57,15.57,0,0,1,.86-2.47,1.91,1.91,0,0,0,.11-.26,4.52,4.52,0,0,1,.44-1.08l.42.22c.1,0,.14,0,.13-.07a.1.1,0,0,0-.09,0s-.2,0-.46-.11a.31.31,0,0,1-.24-.35,2.39,2.39,0,0,1,.28-1.15l.55-.92a1.39,1.39,0,0,1,.68-.66.68.68,0,0,0,.29-.29l.71-1.28a.76.76,0,0,0,.08-.28,2.13,2.13,0,0,1,.2-.75.7.7,0,0,1,.22-.31,3.33,3.33,0,0,0,.33-.22,2.35,2.35,0,0,0,.18-.22.25.25,0,0,1,0-.09,2.47,2.47,0,0,1,.82-1.16,4.69,4.69,0,0,1,2.13-.95,4.09,4.09,0,0,1,1.34.07,5.37,5.37,0,0,1,1.54.66,6.28,6.28,0,0,0,.84.48,1.49,1.49,0,0,1,.84,1.15,10.09,10.09,0,0,1,.19,1.56,4.18,4.18,0,0,0,.16,1,1.23,1.23,0,0,1,0,.48c0,.93-.06,1.67-.09,2.25a3.1,3.1,0,0,1-.13.77c-.09.35-.2,1-.35,1.82a18.94,18.94,0,0,1-.77,3.24,20.88,20.88,0,0,0-.66,2.07l-.15.46a2.05,2.05,0,0,0-.14.46,1.2,1.2,0,0,1-.46.73.14.14,0,0,0-.06.17.57.57,0,0,1,0,.47s-.08.17-.19.44l-.18.35a.89.89,0,0,1-.73.57.16.16,0,0,0-.13.13,1.68,1.68,0,0,0,0,.2.53.53,0,0,1-.16.46,23.94,23.94,0,0,1-1.25,1.21,3.47,3.47,0,0,1-1.17.73,12,12,0,0,1-1.93.66l-.4,0a.39.39,0,0,1-.26-.09,1.26,1.26,0,0,1-.2-.15.8.8,0,0,0-.2-.15.28.28,0,0,0-.35,0l-.13.09a.35.35,0,0,1-.11.09.59.59,0,0,1-.66,0c-.24-.13-.63-.3-1.17-.52a1.49,1.49,0,0,1-.26-.11,1.16,1.16,0,0,0-.27-.11.53.53,0,0,0-.28-.05.72.72,0,0,1-.69-.31.34.34,0,0,1-.06-.35,1.46,1.46,0,0,1,0-.17c0-.14,0-.22-.09-.27a.74.74,0,0,1-.3-.48,2.72,2.72,0,0,0-.33-.82Zm2.29-3.35s0,0-.09,0l0,.09C52.68,283.59,52.7,283.56,52.66,283.49Zm.66-.33v0l0,0Zm4.77,2,0,.11H58a1.74,1.74,0,0,1,.53-.81,1.38,1.38,0,0,0,.24-.31l.66-1a.52.52,0,0,0,.07-.18,2.54,2.54,0,0,1,.3-.92,9.76,9.76,0,0,0,1-2.88,3.35,3.35,0,0,0,.11-.62c0-.32.08-.53.09-.64a6,6,0,0,0,.13-1.36,27.07,27.07,0,0,1,.11-2.84,1.34,1.34,0,0,0,0-.4c0-.39-.09-.78-.15-1.16a.86.86,0,0,0-.2-.44.17.17,0,0,0-.17-.05l-.09,0a2.11,2.11,0,0,0-.93.71l-.68,1c-.28.38-.5.69-.66.94s-.22.33-.4.58a6.43,6.43,0,0,0-.39.55s-.29.38-.82,1.12l0,0a10,10,0,0,1-.49.94.82.82,0,0,0-.11.35,1.77,1.77,0,0,1-.2.53l-.46.84s-.06,0-.13,0-.1,0-.11-.06a1.55,1.55,0,0,1-.11-.27l0-.06a.12.12,0,0,0,0-.16,8.23,8.23,0,0,0,0-1.14l0,0-.35,0a.68.68,0,0,1-.35-.11l-.38-.05a0,0,0,0,0,0,.05.06.06,0,0,0,0,.08s0,.05.07.05a.91.91,0,0,0,.35-.16,2.11,2.11,0,0,0,.07,1.06l0,.18a.31.31,0,0,1-.07.26l-.75.75-.08.15c-.09.09-.11.14,0,.16s.08-.05.09-.16l0-.17a5.2,5.2,0,0,1,.77.61.67.67,0,0,1,.18.22c0,.05.1.23.22.55a4.3,4.3,0,0,1-.16,1.13.27.27,0,0,0-.06.19,4.65,4.65,0,0,1-.11,1,6.69,6.69,0,0,0-.13.77,1.71,1.71,0,0,0,0,.49,1.58,1.58,0,0,0,.24.64.9.9,0,0,1,.13.83,2.7,2.7,0,0,0-.09.38.84.84,0,0,0,0,.19.46.46,0,0,0,.18.42.43.43,0,0,0,.39.09,2.4,2.4,0,0,0,.8-.35l.33-.22a5.41,5.41,0,0,0,1.1-1,.94.94,0,0,1,.48-.31Zm-4.47-2.66s0,0,0,0,0,.12.07.13.11,0,.11-.08S53.7,282.46,53.62,282.48Zm1.1-7.29-.06,0-.13-.24a.34.34,0,0,0-.16-.11c-.13-.06-.2,0-.22.11s0,.15.07.18l.17.06.29,0Zm.38-2a.19.19,0,0,0,0,.27.19.19,0,0,0,.18,0c.13,0,.18-.12.13-.22a1.74,1.74,0,0,1-.13-.26l.13-.14-.07,0,0,.18A.49.49,0,0,0,55.1,273.21Zm1-1.47a.24.24,0,0,0-.16.09.13.13,0,0,0,0,.17c.06.08.1.11.13.11a.49.49,0,0,0,.44-.11v-.09A.35.35,0,0,0,56.07,271.74Zm.48,1.27.05,0,0-.09-.07,0a.15.15,0,0,0,0,.06Zm1-.37h.07l0-.07Zm.29,13.43a.14.14,0,0,0,0-.18c0-.07-.09-.09-.15,0s-.09.08,0,.15l.07.07Zm0-12.55s.05,0,.05,0,0-.13-.09-.11l-.07.06C57.76,273.51,57.8,273.54,57.87,273.52Zm1.92,11.33a.21.21,0,0,0-.18-.22h-.09a1.47,1.47,0,0,0-.48.31.33.33,0,0,0-.09.36.31.31,0,0,0,.26.24.24.24,0,0,0,.2-.05,1.19,1.19,0,0,0,.38-.55Zm.57-.26a.73.73,0,0,1-.09.46v.09c0,.15.09.23.26.24a.12.12,0,0,0,.16-.06,1.25,1.25,0,0,0,.15-.55.59.59,0,0,0-.13-.44q-.1-.18-.24-.09a.18.18,0,0,0-.11.15Zm.9-13.75a.16.16,0,0,0-.18.08c0,.12,0,.18.16.18a.1.1,0,0,0,.11-.11A.16.16,0,0,0,61.26,270.84Zm.11,14c0-.09,0-.13-.09-.13a.05.05,0,0,0-.06.06c0,.07,0,.11.09.11Zm0-2.67a1.57,1.57,0,0,1-.06-.28c0-.08.05-.07.06,0h-.06a.25.25,0,0,1,.06.24Zm.58-2.13a.08.08,0,0,0,0,.07c0,.07,0,.1.11.08l.07-.06C62.1,280.09,62.05,280.06,62,280.08Z" transform="translate(-30.76 -38.22)"/><path class="cls-5" d="M74,280.85a2.61,2.61,0,0,1,.44.48,5.43,5.43,0,0,1,.9,2.45s0,.24.07.68v0L75,284.3a.17.17,0,0,0-.22.14c0,.11-.11.18-.2.19a2.38,2.38,0,0,0-.66.2h0a.54.54,0,0,0-.22.53v.07a.48.48,0,0,0-.31.59l0,.18a.14.14,0,0,1,0,.09.12.12,0,0,1-.17,0l-.09-.16a1.4,1.4,0,0,1-.24-.31h0a14.36,14.36,0,0,1-1-1.91c-.09-.21-.17-.38-.24-.53-.27-.47-.61-1.06-1-1.78a.44.44,0,0,0-.28-.24c-.08,0-.13,0-.18,0s-.13.12-.13.15c-.22.46-.38.81-.48,1.06a1.66,1.66,0,0,0-.18.57,6,6,0,0,1-.35,1.21,2.57,2.57,0,0,0-.16.86,18.44,18.44,0,0,1-.37,2.93,1.44,1.44,0,0,0,0,.68,1.93,1.93,0,0,1-.07.86,8.2,8.2,0,0,0-.11.88,3.4,3.4,0,0,1-.13.37l0,0a1,1,0,0,1-.22.62.23.23,0,0,0,0,.19v.18a.66.66,0,0,1-.07.2s0,.14-.11.31a.84.84,0,0,1-.15.3.23.23,0,0,0,0,.27.45.45,0,0,0,.09.17.51.51,0,0,1,0,.18l-.2.44a.35.35,0,0,1-.31.22l-.18,0c-.17.06-.22.17-.13.31a.54.54,0,0,0,.35.29s.07,0,.07.06,0,.13-.13.11a1.32,1.32,0,0,0-.57.05c0-.18.06-.27.06-.29a.92.92,0,0,0,0-.26.23.23,0,0,0-.18-.16.25.25,0,0,0-.22.07.48.48,0,0,0-.11.26c0,.24.07.36.33.38l.18,0c0,.42-.07.65-.07.68a1.88,1.88,0,0,1-.35.9c-.13.21-.27.21-.42,0a.19.19,0,0,1,0-.08l-.07-.07a.2.2,0,0,0-.24-.11l-.09,0c-.2.06-.34,0-.42-.11l-.22-.33a.92.92,0,0,1-.2-.72c0-.4.11-.82.18-1.28a.35.35,0,0,1,.33-.31s.07,0,.09,0l.15-.13a.73.73,0,0,0,.11-.27.89.89,0,0,1,.13-.26,1.4,1.4,0,0,0,.16-.24.21.21,0,0,0,0-.18l-.35-.31a.15.15,0,0,1,0-.19,1.28,1.28,0,0,1,.09-.27,3.5,3.5,0,0,1,.33-.48.3.3,0,0,0,0-.27.83.83,0,0,1-.09-.66c.3-1.9.47-3,.53-3.39a1.13,1.13,0,0,1,.07-.33,1.65,1.65,0,0,0,.06-.33c.05-.22.14-.58.27-1.1s.2-.83.24-1.1a7.12,7.12,0,0,0,.18-.77,1.82,1.82,0,0,1,.17-.55,2.27,2.27,0,0,0,.16-.86,1.15,1.15,0,0,1,.06-.37c0-.18.13-.5.24-1a6.31,6.31,0,0,1,.27-.92c0,.09,0-.08.11-.49a.38.38,0,0,0,0-.28c-.15-.43-.21-.58-.18-.47a.52.52,0,0,1,0-.28.45.45,0,0,0-.13-.35l-.22-.2,0,0A2.08,2.08,0,0,1,68,277c.24-.14.27-.33.11-.58l-.17-.22,0,0,.28,0a.72.72,0,0,0,.62-.41,8.71,8.71,0,0,0,.48-1.3c.24-.84.41-1.4.53-1.68a2.57,2.57,0,0,0,.09-.39,15.06,15.06,0,0,1,.5-2c0-.09.07-.21.11-.38s.08-.32.09-.39c.19-.68.38-1.3.55-1.87a1.86,1.86,0,0,0,.11-.58,2,2,0,0,1,.18-.66,7.89,7.89,0,0,0,.66-1.62,5.13,5.13,0,0,1,.24-.75,2.28,2.28,0,0,1,.27-.53l0,0,.07-.28.44-1.21a.85.85,0,0,1,.18-.34.82.82,0,0,1,.3-.24c.18-.06.43-.12.75-.2a.81.81,0,0,1,.31,0,3.67,3.67,0,0,1,.53.22.67.67,0,0,1,.22.18,1.91,1.91,0,0,1,.35.59,4.52,4.52,0,0,0,.22.56.33.33,0,0,0,.31.17,13,13,0,0,1,1.54.33,2.6,2.6,0,0,1,.37.11,2.09,2.09,0,0,0,.44.2,4.29,4.29,0,0,1,.44.2,4.82,4.82,0,0,1,.42.26c.29.22.5.38.62.49a2.51,2.51,0,0,1,.53.59L81,266a1.71,1.71,0,0,0,.25.29,1.34,1.34,0,0,1,.41.52l.29.53a2.88,2.88,0,0,1,.24.64c.22.93.32,1.34.29,1.23a1.36,1.36,0,0,1,0,.4c0,.34,0,.63,0,.88a2.27,2.27,0,0,1-.08.37,1.37,1.37,0,0,0-.11.47,1.2,1.2,0,0,1-.11.48.73.73,0,0,0-.09.26,2.66,2.66,0,0,1-1,1.59c-.5.48-.91.9-1.23,1.25a8.94,8.94,0,0,1-1.78,1.52.78.78,0,0,1-.55.13l-.2,0A.41.41,0,0,0,77,277s0,.11,0,.2v.19c0,.17-.06.27-.17.31l-1,.42a.34.34,0,0,0-.24.26.55.55,0,0,1-.22.31,2.8,2.8,0,0,1-.79.4.35.35,0,0,1-.29,0l-.11-.06-.13-.09a.19.19,0,0,0-.17,0,.81.81,0,0,0-.6.31.5.5,0,0,0-.06.64,8.47,8.47,0,0,0,.52.7.89.89,0,0,1,.18.35v0Zm-8.65,12.94v0Zm.59-1.94s0,0,.07,0l0-.06C65.86,291.77,65.85,291.79,65.9,291.85Zm.6.93-.07,0,.07,0Zm1.34-16.6c0,.08,0,.08,0,0h0Zm7.51-9.81-.69.7a2.29,2.29,0,0,0-.44.77c0,.15-.11.38-.22.68s-.18.55-.24.71c-.12.4-.22.7-.31.92-.76,2.06-1.14,3.1-1.14,3.13a4.47,4.47,0,0,1-.27.64,8.25,8.25,0,0,0-.5,1.67q0,.2-.09.48a.34.34,0,0,0,.31.33h.09c.7-.1,1.09-.16,1.16-.19a6.09,6.09,0,0,0,1-.33.64.64,0,0,0,.33-.36,1.48,1.48,0,0,1,.28-.39c.35-.32.61-.57.77-.75.71-.75,1.18-1.24,1.43-1.48a1.45,1.45,0,0,0,.27-.28,12.77,12.77,0,0,0,1.38-1.76l.38-.57c.16-.24.28-.43.37-.58a5.82,5.82,0,0,0,.42-.88,1.53,1.53,0,0,0,0-1.14c-.14-.25-.25-.46-.33-.62a3.28,3.28,0,0,0-.77-.88,1.4,1.4,0,0,0-.62-.26,2.64,2.64,0,0,0-1.34.15,5,5,0,0,1-1.24.31Zm-1.63,20.71h.15s0,0,0,0a.25.25,0,0,0-.37,0h0Zm-.24,0h0Zm.46-2.27a.94.94,0,0,1,.42.82,0,0,0,0,1,0,.06l-.08,0a2.75,2.75,0,0,1-.49-.31v0l.16-.09a.3.3,0,0,0,.11-.26s0-.11,0-.27Zm-.09,2.25h0Zm.7,1.69a2,2,0,0,1-.24-.7.37.37,0,0,1,.09-.27.69.69,0,0,1,.57-.28.35.35,0,0,1,.4.33V288a1.1,1.1,0,0,0,.15.64l0,0a2.08,2.08,0,0,1-.61,0,3.4,3.4,0,0,0,.06-.35.12.12,0,0,0-.08-.15.2.2,0,0,0-.18,0,.53.53,0,0,0-.15.22,1.41,1.41,0,0,0,0,.46Zm1-1.54a2.11,2.11,0,0,1,.69.24.51.51,0,0,1,.11.16.68.68,0,0,1,0,.35h0a.9.9,0,0,1,.55.53,1.74,1.74,0,0,1,.18.94c0,.22,0,.35,0,.38a1.66,1.66,0,0,0,.24,1.12c.07.12.07.21,0,.29a3.14,3.14,0,0,0-.49.46c-.08.12-.2.13-.35,0a1.39,1.39,0,0,1-.64-.7,2.25,2.25,0,0,0-.28-.51.47.47,0,0,1-.11-.26.51.51,0,0,0-.29-.37,1.14,1.14,0,0,0-.15-.14.35.35,0,0,1-.16-.22s-.07-.27-.22-.77v0l.09,0h.11l.16.11a.65.65,0,0,0,.57.2,2,2,0,0,1,.46,0v0L76,289q.1-.15-.09-.18a.55.55,0,0,1-.4-.22l0,0c.09-.22.14-.35.16-.38a.81.81,0,0,0,0-.55,3.23,3.23,0,0,1-.13-.46ZM75,288.55a1.88,1.88,0,0,1-.22.24A1.88,1.88,0,0,0,75,288.55ZM74.77,266l0,0v0Zm.42,21.13a.37.37,0,0,1-.22-.31c0-.08,0-.13.11-.13a.49.49,0,0,1,.38.27l.08.28,0,0Zm-.09-22.64s0,0-.06,0-.05.09,0,.11l.07,0Zm.07,20.75,0,0,0,0Zm0,0,.05.06,0,0Zm.16-.77v0Zm.11,1.47a1.41,1.41,0,0,1,0,.18l0,0C75.51,286,75.49,286,75.48,285.91Zm0,.18c.09,0,.12.06.11.13s0,0-.07,0a.15.15,0,0,1,0-.17Zm1.14-10a.13.13,0,0,0-.06-.07c-.12,0-.18,0-.2.11s0,.1.09.13S76.7,276.25,76.64,276.12Zm1.15-.13a2.83,2.83,0,0,0,.33-.27,1.69,1.69,0,0,1,.35-.26l.2-.2a.83.83,0,0,0,.11-.15.16.16,0,0,0,0-.18.14.14,0,0,0-.18,0,1.12,1.12,0,0,0-.35.13,1.44,1.44,0,0,0-.64.55.52.52,0,0,0-.09.17.21.21,0,0,0,0,.18.18.18,0,0,0,.15.09Zm.62-4c0-.08-.06-.11-.14-.06a.07.07,0,0,0-.06.06c0,.08.06.1.13.07Zm3.21.29,0,0c0-.09,0-.13-.09-.11a.05.05,0,0,0-.06,0l0,.29a.12.12,0,0,0-.15,0s0,.07,0,.07.1,0,.11-.11Z" transform="translate(-30.76 -38.22)"/><path class="cls-5" d="M84.22,284.63v.05a.86.86,0,0,0,0,.48,1.75,1.75,0,0,1-.2,1c-.07.16-.13.28-.17.35a6,6,0,0,0-.47,1.28,1.35,1.35,0,0,0,0,1,1.36,1.36,0,0,1,.11.58,9.31,9.31,0,0,0,0,1.36.27.27,0,0,0,.13.24,1.35,1.35,0,0,0,.38.16,1,1,0,0,0,.28,0l1.56,0a2.34,2.34,0,0,0,.49-.07,2.45,2.45,0,0,0,.88-.39l.33-.22a.21.21,0,0,1,.26,0,2.54,2.54,0,0,1,1,1.21,4.19,4.19,0,0,1,.2.66.48.48,0,0,1-.11.46,10.94,10.94,0,0,1-1.12.95l-.27.11a4.93,4.93,0,0,1-1.52.37h-.39a2.58,2.58,0,0,1-1.45-.42,1.25,1.25,0,0,0-.66-.17,5.22,5.22,0,0,0-.58,0,.87.87,0,0,1-.46-.13,2.43,2.43,0,0,1-.53-.44,7.07,7.07,0,0,1-.61-.88,1.76,1.76,0,0,1-.29-.61,6.87,6.87,0,0,0-.24-.95,3,3,0,0,1,0-1.94c.07-.22.11-.33.11-.35a8.89,8.89,0,0,0,.48-1.5q0-.17.18-.66c.07-.27.12-.5.15-.66,0,0,.06-.08.14-.26h0a4.19,4.19,0,0,1,.22-1.12s.25-.8.8-2.47a.68.68,0,0,0,0-.13,1.31,1.31,0,0,1,.05-.15,1,1,0,0,1,.33-.47l.15-.11v0l0,.07a1.06,1.06,0,0,1-.09-.86c0-.18.09-.45.15-.82a6.49,6.49,0,0,1,.18-.81L84,276.8c.06-.23.18-.67.37-1.3s.29-1,.4-1.32c.14-.56.21-.78.2-.66,0-.07,0-.17.06-.29a1.66,1.66,0,0,0,.09-.28q.14-.76.18-1.17a8.84,8.84,0,0,1,.24-1.34c0-.15.09-.3.15-.46a4.18,4.18,0,0,0,.22-1s.08-.37.24-1.17a5.17,5.17,0,0,1,.22-.94,3.59,3.59,0,0,0,.16-.86,2.09,2.09,0,0,1,.13-.37,2.46,2.46,0,0,0,.07-.29v-.29a4.39,4.39,0,0,1,.3-1.34.49.49,0,0,1,.27-.26c.2-.11.41-.2.61-.29a.68.68,0,0,1,.4,0,1.54,1.54,0,0,1,.46.18c.52.32.8.49.84.5a1.22,1.22,0,0,1,.46.49,2.14,2.14,0,0,1,.22.66.66.66,0,0,1,0,.28c-.1.58-.17.93-.2,1.06-.17.65-.35,1.24-.52,1.78-.14.35-.3.85-.49,1.5s-.36,1.2-.46,1.5a1.68,1.68,0,0,0-.07.59,1.2,1.2,0,0,1-.17.66.21.21,0,0,0-.05.09,1.46,1.46,0,0,0-.24,1,1.28,1.28,0,0,1-.09.57q0,.07-.06.09s-.09,0-.14-.09-.12-.14-.19,0a1,1,0,0,0-.18.22.43.43,0,0,1-.24.18s0,0-.2,0l.07-.09a.54.54,0,0,0,0-.55h0a.9.9,0,0,1-.44.2v0l0,.17s0,0,0,0l.39.29a2.78,2.78,0,0,0,.57.53c.12.08.14.17.05.26l-.13.13c-.11.1-.16.15-.16.13a.46.46,0,0,0-.09.44.52.52,0,0,1,0,.38,6.21,6.21,0,0,0-.42,1.3c-.13.52-.28,1-.44,1.49a1.09,1.09,0,0,0-.07.75c0,.34,0,.53,0,.57a.26.26,0,0,1-.15.25.51.51,0,0,1-.36,0l-.19-.09a.33.33,0,0,0-.27.09.27.27,0,0,0-.09.35,1.2,1.2,0,0,1,.16.24.55.55,0,0,1,0,.38,2,2,0,0,0-.06.28l-.16.31c-.06.13-.1.24-.13.31a1.69,1.69,0,0,1-.35.57,1.18,1.18,0,0,0-.33.7l-.09.18c-.09-.06-.1-.06,0,0l.06,0C84.27,284.43,84.22,284.63,84.22,284.63Zm-1.08,7.93-.07,0,.07,0ZM84.72,282l.07,0c-.06,0-.09,0-.09,0v0Zm1.17-10.71c0-.09,0-.11-.11,0a.06.06,0,0,0,0,.09l.06,0Zm.06.88a0,0,0,0,0,0-.07c-.07,0-.11,0-.11,0l.07.05Zm-.08,3.67-.05,0v0l0,0Zm.57-2.33a.94.94,0,0,1,.55-.16h.2c.07,0,.1,0,.08-.13s0-.07,0-.08a2,2,0,0,0-.64-.23h-.17c-.22,0-.35.13-.38.29a.45.45,0,0,0,.13.35l.09,0Zm.31-6c0-.06-.09-.06-.14,0a.14.14,0,0,0,0,.09s.1,0,.16,0Zm.33-2.29,0,0Zm1.8-1.32,0,.07.09,0Z" transform="translate(-30.76 -38.22)"/><path class="cls-5" d="M94.47,280.65c-.07-.15-.1-.2-.09-.17a.52.52,0,0,1,0-.47c0-.06.12-.36.29-.9,0-.17.13-.48.28-.92a2.74,2.74,0,0,1,.13-.27.66.66,0,0,1,.4-.37l.11,0c.15,0,.25-.13.31-.33l.2-.29a.09.09,0,0,0,0-.09l-.06,0s-.07,0-.07.07a1.94,1.94,0,0,0,0,.37l-.29-.09c-.12,0-.15-.09-.11-.2a1.43,1.43,0,0,0,.07-.28,1.37,1.37,0,0,1,.09-.77c.36-1.18.7-2.17,1-3a1.41,1.41,0,0,1,.2-.44.36.36,0,0,1,0-.09,3.24,3.24,0,0,0,.18-.62,2.26,2.26,0,0,1,.17-.59c0-.37.07-.57.07-.6a.57.57,0,0,0-.24-.5,1.61,1.61,0,0,0-.42-.24,1.48,1.48,0,0,1-.6-.33h0v-.25h0l.36-1a1.88,1.88,0,0,1,.46-.81l0,0a1.26,1.26,0,0,0,.37-.35l0,0,.15-.26a1.87,1.87,0,0,1,.57-.77,5,5,0,0,0,.44-.4,4.12,4.12,0,0,0,1-1.43c.06-.13.09-.22.11-.26a.43.43,0,0,1,.24-.18l.55-.15a.46.46,0,0,1,.46.06,1,1,0,0,0,1,.18,5.74,5.74,0,0,1,.69-.13l.68-.11a.4.4,0,0,1,.17,0h.2a4.55,4.55,0,0,1,1.65.25,4.31,4.31,0,0,1,1.5.7l1.72,1.3a1.76,1.76,0,0,1,.48.61c.15.27.24.44.29.51a3.16,3.16,0,0,1,.35.7l.35,1a.33.33,0,0,1-.09.35.11.11,0,0,0,0,.18.71.71,0,0,1,.38.52c0,.08,0,.17.06.29s.06.23.07.29a3,3,0,0,1,0,.68,3.8,3.8,0,0,0,0,1.08c0,.91,0,1.46,0,1.67a.71.71,0,0,1,0,.29,4.84,4.84,0,0,0-.09,1.16,8.1,8.1,0,0,1-.22,1.94c-.13.53-.18.75-.13.66l-.4.79c-.16.34-.29.6-.39.79a4,4,0,0,1-.73,1,2.08,2.08,0,0,0-.53.81l-.39.9a3.69,3.69,0,0,1-.8,1.24,2.28,2.28,0,0,0-.5.81,5.15,5.15,0,0,1-.49,1,.25.25,0,0,1-.33.13l-.17,0a.4.4,0,0,0-.42.17,1,1,0,0,0-.22.55l0,.4a.66.66,0,0,1-.2.33.69.69,0,0,1-.24.15,2.19,2.19,0,0,0-.8.73,2.79,2.79,0,0,1-.24.31l-.22.17c0-.36,0-.55,0-.57,0-.2-.12-.3-.36-.28a.43.43,0,0,0-.33.15,2.89,2.89,0,0,0-.48.73c0-.06,0,0,0,.11s0,.1,0,.17a.21.21,0,0,0,.16.09.66.66,0,0,0,.19,0c.08,0,.33-.16.77-.4a6.46,6.46,0,0,0-.3.71l-.16.35a.71.71,0,0,1-.35.33l0,0c-.25-.28-.39-.44-.44-.48a.21.21,0,0,0-.15-.05.39.39,0,0,0-.27.11,1,1,0,0,1-.15.22h0a3.42,3.42,0,0,1-.37-.44.43.43,0,0,0-.6-.15,4.11,4.11,0,0,0-.41.24l-.25.18a1.59,1.59,0,0,1-.24.17,3.22,3.22,0,0,1-1,.51,2.36,2.36,0,0,0-.64.28,1,1,0,0,0-.53.75c0,.14,0,.22.13.25a1.14,1.14,0,0,0,.49,0,2.74,2.74,0,0,0,.81-.33,3.15,3.15,0,0,0,.57-.36,2.93,2.93,0,0,0,.44-.33,4.38,4.38,0,0,0,.42-.33.37.37,0,0,1,.44,0,.66.66,0,0,0,.49,0l.28-.06,0,0a1.13,1.13,0,0,1-.2.44,1.1,1.1,0,0,0-.33.59c0,.09-.06.13-.13.11a1.77,1.77,0,0,0-.93.29,4.92,4.92,0,0,0-.55.33l-.52.33a1.38,1.38,0,0,0-.53.57.58.58,0,0,1-.4.26,1.94,1.94,0,0,1-.68.05,2.87,2.87,0,0,0-.57,0l-.07,0h.09c0,.24.07.36.07.38a.81.81,0,0,1,0,.39,3,3,0,0,1-.2.44.59.59,0,0,1-.74.31,4.59,4.59,0,0,1-1-.42c-.5-.26-.82-.42-1-.48a.25.25,0,0,0-.27,0,1.54,1.54,0,0,0-.22.2l-.28.4v-.4a.83.83,0,0,0-.38-.64.19.19,0,0,0-.19,0,.25.25,0,0,0-.16.22,3.81,3.81,0,0,0,.05.4.55.55,0,0,0,.5.39l.2,0a2.41,2.41,0,0,1-.07.46c0,.22-.14.28-.33.2l-.33-.18a2.14,2.14,0,0,1-.59-.48s-.15-.14-.42-.38l0,0c0-.05,0-.08.07-.08s0-.21,0-.27-.27-.45-.33-1c.11-.64.19-1.09.25-1.34a2.63,2.63,0,0,1,.46-.95l0,.05,0-.05c0-.1.09-.15.28-.15s.11-.07.09-.16a.29.29,0,0,0,0-.17.6.6,0,0,1-.07-.46c.16-.46.41-1.14.73-2.05.1-.29.19-.57.26-.84,0-.11.21-.67.53-1.67s.54-1.75.62-2a.78.78,0,0,1,.39-.53s0,0,.07-.08a.14.14,0,0,0,0-.09,1.17,1.17,0,0,1,.24-.9l.24-.18,0,0Zm-3.76,12.81,0,0,0,0Zm.48-.4s0,0,0,.11l.05,0a.14.14,0,0,0,0-.07Zm1-3.34s0,0,0,.06.09.07.11,0l0-.06Zm13.93-11.27a.21.21,0,0,0,.27-.09.15.15,0,0,0,0-.17c0-.08-.1-.11-.16-.09l-.68.09a7.57,7.57,0,0,0,.4-1c.23-.72.41-1.21.53-1.48a3.16,3.16,0,0,0,.17-.57c.12-.59.17-.87.16-.86s0-.25.08-.44.06-.34.07-.42a4.68,4.68,0,0,0,.13-.88,2.83,2.83,0,0,1,.24-1,.28.28,0,0,0,0-.29,2.22,2.22,0,0,1-.09-.37c0,.06,0-.5-.15-1.67a2.5,2.5,0,0,0-.18-.67,3.58,3.58,0,0,0-.46-.85,2.09,2.09,0,0,0-.81-.69.71.71,0,0,0-.29-.08,5.47,5.47,0,0,0-1.45,0l-.29.09-.46.19-.44.18a2.56,2.56,0,0,1-1,.2.12.12,0,0,0-.15.07,1.71,1.71,0,0,1-.62.48,4.23,4.23,0,0,0-.59.33,1.75,1.75,0,0,0-.62.62l-.24.44c-.32.7-.47,1-.44,1a1.11,1.11,0,0,0-.09.26c-.29.88-.45,1.34-.48,1.39s-.22.67-.42,1.4a4.26,4.26,0,0,1-.2.67,1.66,1.66,0,0,1-.31.5.21.21,0,0,0-.09.24,1.92,1.92,0,0,1-.08,1c-.14.43-.28.93-.44,1.5a.36.36,0,0,1,0,.09.36.36,0,0,1-.22.19s0,0-.09,0l-.08,0c-.22.07-.28.2-.16.39,0,0,0,.06,0,.07a.64.64,0,0,1,.11.66l-.4,1.3a4.88,4.88,0,0,1-.35.81.94.94,0,0,0-.16.47,1,1,0,0,1-.19.33c-.06.05-.06.14,0,.26a.33.33,0,0,1,.06.26.18.18,0,0,1,0,.09v.11a.41.41,0,0,1-.31.33c-.13,0-.16.11-.08.24a.92.92,0,0,1,0,.84,3.46,3.46,0,0,0-.13.37.64.64,0,0,1-.25.29.15.15,0,0,0-.06.24.54.54,0,0,1,.06.49,8.27,8.27,0,0,1-.39,1.1,1.46,1.46,0,0,0-.13.75,1.8,1.8,0,0,1-.14.77.5.5,0,0,1,0,.15.3.3,0,0,0,0,.13,9.15,9.15,0,0,0-.31,1.34v.29a.38.38,0,0,0,.35.42,1.37,1.37,0,0,0,.29,0l1.47-.17a1.79,1.79,0,0,0,.29-.07,4.17,4.17,0,0,0,1.47-.7,6.79,6.79,0,0,0,.84-.71,4.19,4.19,0,0,0,.5-.46,2.79,2.79,0,0,1,.55-.4l.33-.19a3.46,3.46,0,0,0,1.3-1.46.43.43,0,0,0,.09-.17,1,1,0,0,1,.09-.18,6.26,6.26,0,0,1,.84-1.32c.51-.63.8-1,.88-1.06a7,7,0,0,0,.83-1.21c.22-.44.38-.79.49-1q.33-.86,1.29-3ZM94.32,291.26a.08.08,0,0,0,0,.07.1.1,0,0,0,.14.08.17.17,0,0,1,0-.08C94.41,291.25,94.38,291.23,94.32,291.26Zm.13-7.22c0-.07,0-.12,0-.15h0c0,.07,0,.11,0,.13Zm.11-2.09.07,0v-.06Zm1-2.22c.08,0,.09-.08,0-.16a.08.08,0,0,0-.07,0c-.07,0-.11,0-.11.11S95.52,279.76,95.59,279.73Zm.18-1.9-.07,0v.05Zm.26-8.31v-.25h0v.25Zm.53,7s0,0,0,0a.12.12,0,0,0,.11.14l.06-.07A.12.12,0,0,0,96.56,276.47Zm.29-7.53h-.09l0,.05s.08,0,.11-.07Zm.09,5.62a.07.07,0,0,0-.09,0,.1.1,0,0,0,0,.08c0,.09.06.11.14.07l0-.09Zm.59-3.35.31-.11.26-.09c.11,0,.14-.12.11-.24l0-.09a.68.68,0,0,0-.24-.28.13.13,0,0,0-.18,0,.67.67,0,0,0-.22.5Zm1-1.72h0l0,0Zm1,18.89a.15.15,0,0,0-.09,0c-.06.06,0,.1,0,.13s.12,0,.15,0S99.64,288.39,99.56,288.38Zm1.78,1.34h-.22a.87.87,0,0,0-.2,0l0,0v-.4h0a1.36,1.36,0,0,1,.4.42Zm-.31-2,.09,0,0-.07C101.07,287.59,101,287.61,101,287.69Zm.88,1.81a1.17,1.17,0,0,1-.31.68.15.15,0,0,1-.17.05.12.12,0,0,1-.11-.14s0,0,0-.19v-.18l0,0a3.65,3.65,0,0,1,.61-.22Zm2.22-5.53s.05,0,.07,0,.07-.06,0-.11l-.07,0Zm1.5.07a.1.1,0,0,0-.15.07.1.1,0,0,0,.06.15c.06,0,.11,0,.16-.07A.13.13,0,0,0,105.63,284Zm-.07-1.08h0a.36.36,0,0,0,0-.09l-.06,0v0l0,0Zm1-3.19,0-.06,0,.06Zm1.6-6.36a.58.58,0,0,0-.28,0,.06.06,0,0,0,0,.09.08.08,0,0,0,0,.07c.1,0,.18,0,.24-.2Zm.53.42.09,0,0-.06Zm.2,3.12,0,0,0,0Z" transform="translate(-30.76 -38.22)"/><path class="cls-5" d="M120.4,286.84l.19,0c.3,0,.45-.08.47-.35v-.6c0-.42,0-.75,0-1a1.65,1.65,0,0,1,.13-.66,2.19,2.19,0,0,0,.13-.48.71.71,0,0,1,.09-.27.64.64,0,0,0,.15-.3.91.91,0,0,1,.18-.29c.12-.32.18-.51.2-.55a.79.79,0,0,1,.2-.33l0,0a.88.88,0,0,1,0,.64.13.13,0,0,0,0,.08c0,.06.09.09.15.07a.73.73,0,0,0,.18-.09.85.85,0,0,1,.46-.06H123l-.11,0v-.2a.23.23,0,0,1,.17-.22c.15-.06.2-.15.16-.29v-.11a.32.32,0,0,1,.15-.33.46.46,0,0,0,.22-.39c0-.12,0-.19-.13-.22a.16.16,0,0,0-.18,0l-.13.13a.25.25,0,0,1-.26.09.84.84,0,0,0-.75.11s0,0-.2.2-.1.06-.18,0a.12.12,0,0,1,0-.09.54.54,0,0,1,.26-.57l0,0,.07-.17c0-.08.06-.14,0-.18a.72.72,0,0,1,0-.48,15.57,15.57,0,0,1,.86-2.47,1.91,1.91,0,0,0,.11-.26,4.52,4.52,0,0,1,.44-1.08l.42.22c.1,0,.14,0,.13-.07a.1.1,0,0,0-.09,0s-.2,0-.46-.11a.31.31,0,0,1-.24-.35,2.39,2.39,0,0,1,.28-1.15l.55-.92a1.39,1.39,0,0,1,.68-.66.68.68,0,0,0,.29-.29l.7-1.28a.64.64,0,0,0,.09-.28,2.13,2.13,0,0,1,.2-.75.63.63,0,0,1,.22-.31,3.33,3.33,0,0,0,.33-.22l.18-.22a.25.25,0,0,1,0-.09,2.47,2.47,0,0,1,.82-1.16,4.69,4.69,0,0,1,2.13-.95,4.09,4.09,0,0,1,1.34.07,5.37,5.37,0,0,1,1.54.66,6.28,6.28,0,0,0,.84.48,1.49,1.49,0,0,1,.84,1.15,10.09,10.09,0,0,1,.19,1.56,4.18,4.18,0,0,0,.16,1,1.23,1.23,0,0,1,0,.48c0,.93-.06,1.67-.09,2.25a3.65,3.65,0,0,1-.13.77c-.09.35-.2,1-.35,1.82a18.94,18.94,0,0,1-.77,3.24,20.88,20.88,0,0,0-.66,2.07c0,.07-.07.22-.16.46a2.58,2.58,0,0,0-.13.46,1.2,1.2,0,0,1-.46.73.16.16,0,0,0-.07.17.54.54,0,0,1,0,.47l-.2.44-.17.35a.89.89,0,0,1-.73.57.15.15,0,0,0-.13.13,1.68,1.68,0,0,0,0,.2.53.53,0,0,1-.16.46,23.94,23.94,0,0,1-1.25,1.21,3.47,3.47,0,0,1-1.17.73,12.31,12.31,0,0,1-1.93.66l-.4,0a.39.39,0,0,1-.26-.09,1.26,1.26,0,0,1-.2-.15,1,1,0,0,0-.2-.15.28.28,0,0,0-.35,0l-.13.09a.35.35,0,0,1-.11.09.59.59,0,0,1-.66,0c-.24-.13-.63-.3-1.17-.52a1.9,1.9,0,0,1-.27-.11,1,1,0,0,0-.26-.11.53.53,0,0,0-.28-.05.72.72,0,0,1-.69-.31.32.32,0,0,1-.06-.35,1.46,1.46,0,0,1,0-.17c0-.14,0-.22-.09-.27a.8.8,0,0,1-.31-.48,2.28,2.28,0,0,0-.33-.82Zm2.29-3.35s0,0-.09,0l0,.09C122.71,283.59,122.73,283.56,122.69,283.49Zm.66-.33v0l0,0Zm4.77,2,0,.11H128a1.74,1.74,0,0,1,.53-.81,1.38,1.38,0,0,0,.24-.31l.66-1a.52.52,0,0,0,.07-.18,2.54,2.54,0,0,1,.3-.92,9.76,9.76,0,0,0,1-2.88,3.35,3.35,0,0,0,.11-.62c0-.32.08-.53.09-.64a6,6,0,0,0,.13-1.36,27.07,27.07,0,0,1,.11-2.84,1.34,1.34,0,0,0,0-.4c0-.39-.09-.78-.15-1.16a.86.86,0,0,0-.2-.44.18.18,0,0,0-.18-.05l-.08,0a2.11,2.11,0,0,0-.93.71l-.68,1c-.28.38-.5.69-.66.94s-.22.33-.4.58a6.43,6.43,0,0,0-.39.55s-.29.38-.82,1.12l0,0c-.27.57-.44.88-.48.94a.82.82,0,0,0-.11.35,1.77,1.77,0,0,1-.2.53l-.46.84s-.06,0-.13,0-.1,0-.11-.06a1.55,1.55,0,0,1-.11-.27l0-.06a.12.12,0,0,0,0-.16c0-.83,0-1.21,0-1.14l0,0-.35,0a.66.66,0,0,1-.35-.11l-.38-.05s0,0,0,.05a.06.06,0,0,0,0,.08s0,.05.07.05a.91.91,0,0,0,.35-.16,2.11,2.11,0,0,0,.07,1.06l0,.18a.31.31,0,0,1-.07.26l-.75.75-.08.15c-.09.09-.11.14-.05.16s.08-.05.09-.16l0-.17a5.2,5.2,0,0,1,.77.61.67.67,0,0,1,.18.22c0,.05.1.23.22.55a4.3,4.3,0,0,1-.16,1.13.27.27,0,0,0-.06.19,4.65,4.65,0,0,1-.11,1,6.69,6.69,0,0,0-.13.77,1.71,1.71,0,0,0,0,.49,1.58,1.58,0,0,0,.24.64.9.9,0,0,1,.13.83,2.7,2.7,0,0,0-.09.38.84.84,0,0,0,0,.19.46.46,0,0,0,.18.42.43.43,0,0,0,.39.09,2.4,2.4,0,0,0,.8-.35l.33-.22a5.41,5.41,0,0,0,1.1-1,.9.9,0,0,1,.48-.31Zm-4.47-2.66s0,0,0,0,0,.12.07.13.11,0,.11-.08S123.73,282.46,123.65,282.48Zm1.1-7.29-.06,0-.13-.24a.34.34,0,0,0-.16-.11c-.13-.06-.2,0-.22.11s0,.15.07.18l.17.06.29,0Zm.38-2a.19.19,0,0,0,0,.27.19.19,0,0,0,.18,0c.13,0,.17-.12.13-.22a1.74,1.74,0,0,1-.13-.26l.13-.14-.07,0,0,.18A.49.49,0,0,0,125.13,273.21Zm1-1.47a.24.24,0,0,0-.16.09.13.13,0,0,0,0,.17c.06.08.1.11.13.11a.49.49,0,0,0,.44-.11v-.09A.35.35,0,0,0,126.1,271.74Zm.48,1.27,0,0,0-.09-.07,0a.15.15,0,0,0,0,.06Zm1-.37h.07l0-.07Zm.29,13.43a.14.14,0,0,0,0-.18c0-.07-.09-.09-.15,0s-.09.08,0,.15l.07.07Zm0-12.55s0,0,0,0,0-.13-.09-.11l-.07.06C127.79,273.51,127.83,273.54,127.9,273.52Zm1.92,11.33a.21.21,0,0,0-.18-.22h-.09a1.47,1.47,0,0,0-.48.31.32.32,0,0,0-.09.36.31.31,0,0,0,.26.24.24.24,0,0,0,.2-.05,1.19,1.19,0,0,0,.38-.55Zm.57-.26a.73.73,0,0,1-.09.46v.09c0,.15.09.23.26.24a.12.12,0,0,0,.16-.06,1.25,1.25,0,0,0,.15-.55.59.59,0,0,0-.13-.44q-.11-.18-.24-.09a.16.16,0,0,0-.11.15Zm.9-13.75a.16.16,0,0,0-.18.08c-.05.12,0,.18.16.18a.1.1,0,0,0,.11-.11A.16.16,0,0,0,131.29,270.84Zm.11,14c0-.09,0-.13-.09-.13a.05.05,0,0,0-.06.06c0,.07,0,.11.08.11Zm0-2.67a1.57,1.57,0,0,1-.06-.28c0-.08,0-.07.06,0h-.06a.25.25,0,0,1,.06.24Zm.57-2.13a.07.07,0,0,0,0,.07c0,.07,0,.1.11.08l.07-.06C132.13,280.09,132.08,280.06,132,280.08Z" transform="translate(-30.76 -38.22)"/><path class="cls-5" d="M137.08,283.62l0-.09q0-.11.09-.06l0,.09a1.06,1.06,0,0,0,.07.28,2,2,0,0,1,.42.66.49.49,0,0,0,.53.33c.13,0,.19.07.17.2a3.87,3.87,0,0,1-.2.86,4.19,4.19,0,0,0-.15.66.5.5,0,0,0,0,.4,1.55,1.55,0,0,1,.13.74.43.43,0,0,1-.06.2L138,288a.86.86,0,0,1-.13.16,1.46,1.46,0,0,0-.22.33.42.42,0,0,0,0,.28.29.29,0,0,0,.17.22.2.2,0,0,1,.09.25,1,1,0,0,1-.06.28c-.08.19-.23.63-.47,1.3s-.33,1-.46,1.28a3.47,3.47,0,0,0-.28,1.14q0,.23-.18,1.17a.81.81,0,0,1-.26.39.48.48,0,0,1-.71.07c-.26-.2-.51-.41-.75-.62a.5.5,0,0,1-.17-.24,2.39,2.39,0,0,1-.11-.46.76.76,0,0,1,0-.4,2.33,2.33,0,0,1,.09-.28,8.18,8.18,0,0,0,.59-2.07c.09-.53.3-1.48.64-2.86a1,1,0,0,1,.07-.18A1.21,1.21,0,0,0,136,287a1.53,1.53,0,0,1,.09-.57,1.29,1.29,0,0,0,0-.28.84.84,0,0,1,.14-.47.36.36,0,0,0,.08-.17,2.82,2.82,0,0,1,.2-.64l.22-.55a.47.47,0,0,1,.4,0v0a3.57,3.57,0,0,0-.42,0Zm-.62,3.81.13.11,0-.07-.18,0Zm.55-2.62,0,0-.07.06c0,.09,0,.11.09.07l0-.07Zm2.05-2.33a1,1,0,0,1-.37-.09.5.5,0,0,0-.44,0c-.14,0-.23,0-.29-.16,0,0,0,0,0-.08l0,0a1.89,1.89,0,0,0,1.18-.27.16.16,0,0,1,.18,0,1.35,1.35,0,0,1,.4.39.16.16,0,0,1-.05.18l0,0-.15-.09a.43.43,0,0,0-.26,0,.26.26,0,0,0-.2.13Zm15.82-18.64,0,.22a.47.47,0,0,1-.08.35l-.22.22a3.91,3.91,0,0,1-1.37.73,4.44,4.44,0,0,0-1.08.48l-.68.35a1,1,0,0,1-.57.13,1.44,1.44,0,0,0-.84.2c-1,.5-1.54.81-1.74.93a2.94,2.94,0,0,1-.41.24.8.8,0,0,1-.66.06.65.65,0,0,0-.58.07l-.44.22a3.46,3.46,0,0,0-.41.24l-.8.4a.36.36,0,0,1,0-.13.69.69,0,0,0,0-.13.28.28,0,0,0,0,.13.45.45,0,0,0,0,.13c-.23.41-.39.7-.46.86.07-.18-.26.6-1,2.33a2.06,2.06,0,0,1-.35.57.69.69,0,0,0-.13.38.78.78,0,0,1-.47.68c-.07,0-.08.13,0,.26l0,.11,0,0a1.35,1.35,0,0,1-.09.38c-.07.19-.22.55-.44,1.07-.14.34-.21.5-.2.47a3.82,3.82,0,0,1-.46,1s0,.11.05.18a.27.27,0,0,0,.35.11l1.23-.57a3.7,3.7,0,0,0,.66-.42,3.91,3.91,0,0,1,.84-.48.49.49,0,0,1,.28-.05.68.68,0,0,0,.62-.24.79.79,0,0,1,.22-.18,2.78,2.78,0,0,1,.86-.15,4.84,4.84,0,0,1,1.16.18,2.4,2.4,0,0,1,.64.41,8.49,8.49,0,0,0,1.12,1.37,1,1,0,0,1,.18.22.2.2,0,0,1,.05.17,1.42,1.42,0,0,1-.4.88.66.66,0,0,1-.16.11l-1.73.69a3.25,3.25,0,0,0-1,.52.8.8,0,0,1-.55.2,1.61,1.61,0,0,0-.37.07,1,1,0,0,1-.86,0l0,0a.18.18,0,0,0-.24,0l0,0a.71.71,0,0,0-.35.42.42.42,0,0,1-.09.15.28.28,0,0,1-.19.18l-.18.06,0,0a1,1,0,0,1-.53.18.87.87,0,0,1-.55-.14l-.15-.11v0c0-.18,0-.28,0-.29s0-.17,0-.33a.89.89,0,0,0,0-.33.13.13,0,0,0-.06-.07l-.09,0a1.78,1.78,0,0,0-.66.16l-.07-.16c-.05-.09-.09-.09-.11,0s0,0,.05,0a.38.38,0,0,0,.15.09,1.46,1.46,0,0,0,.11.49,1.71,1.71,0,0,1,.11.46.23.23,0,0,1-.11.26,1.14,1.14,0,0,1-.7.27l-.35,0h-.36a1,1,0,0,0-.61.24.48.48,0,0,1-.46.11.26.26,0,0,0-.27.07.37.37,0,0,1-.15.13.2.2,0,0,1-.27,0,2,2,0,0,1-.42-.42l0-.09v0a1.33,1.33,0,0,0,.26-.14.18.18,0,0,0,.11-.24c-.05-.19-.09-.34-.11-.46a.62.62,0,0,1,.2-.53.47.47,0,0,0,.16-.33.66.66,0,0,0-.16-.55s0-.09,0-.15l.44-.2,0,0a.33.33,0,0,0-.27-.33.12.12,0,0,1-.09,0c-.11-.05-.16-.12-.13-.22a1.38,1.38,0,0,1,.11-.27.32.32,0,0,1,.24-.15h.38a.51.51,0,0,1,0,.09q0,.15.09.06l-.05-.09-.06-.06-.07-.18a.28.28,0,0,1,.16-.39l.41-.2a.07.07,0,0,0,0-.09s0-.07-.06-.07l-.18.05a.24.24,0,0,1-.28-.05.23.23,0,0,1-.11-.24c.05-.41.11-.73.15-1a3.18,3.18,0,0,1,.15-.46c.11-.23.21-.48.31-.72a2.6,2.6,0,0,0,.16-.58c0-.14.07-.36.13-.66a1.53,1.53,0,0,1,.17-.46,1.88,1.88,0,0,0,.27-.92,1.18,1.18,0,0,1,.11-.49q.24-.63.39-1a2.66,2.66,0,0,0,.11-.37.24.24,0,0,0-.15-.33l-.26-.13c-.12,0-.66-.25-1.63-.66a1.55,1.55,0,0,1-.22-.2.13.13,0,0,1,0-.18l.14-.15a.83.83,0,0,0,.13-.16,1.2,1.2,0,0,1,.44-.35,1.42,1.42,0,0,0,.73-.64,2.51,2.51,0,0,1,1-1l.73-.4c.33-.19.58-.32.72-.39a2.18,2.18,0,0,1,1-.31,1,1,0,0,0,.28,0,2.42,2.42,0,0,1,.77-.14.23.23,0,0,0,.16-.08,2.17,2.17,0,0,1,1-.62.13.13,0,0,1,.17,0s0,.06,0,.09a.6.6,0,0,1,0,.16.83.83,0,0,0,0,.13c0,.2,0,.28.22.24h.11a14.53,14.53,0,0,0,1.65-.62q.44-.21,1.17-.48a6,6,0,0,0,.64-.24,4.73,4.73,0,0,1,1.45-.6c.16,0,.21-.14.15-.31a1,1,0,0,0-.06-.19l0-.07-.06-.09c-.06-.11,0-.2.13-.24s.3,0,.68,0a2.75,2.75,0,0,0,.86-.16.64.64,0,0,1,.39,0,1,1,0,0,0,.27.11,1.15,1.15,0,0,1,.53.45l.17.33a.58.58,0,0,1,0,.57l0,0a.9.9,0,0,0,.19.34,2,2,0,0,0,.18.24l0,0Zm-15.25,18.64,0,.11c0,.1-.05.16-.07.17a3.32,3.32,0,0,0-.17.31,1.69,1.69,0,0,1-.22.31s-.05,0-.09,0l-.07-.07a.19.19,0,0,1,0-.08q0-.12.09-.75l0,0h.61Zm.86-4.05a5.38,5.38,0,0,1,.75-.07.05.05,0,0,0,.06-.06s0-.06,0-.09a.74.74,0,0,0-.37,0,.5.5,0,0,0-.4.22l-.61,0a.92.92,0,0,1,.13-.24v-.11s0-.05-.07-.05-.1.05-.09.14a2.12,2.12,0,0,0,0,.28Zm-.26-1.23h0Zm1-10h0l0,0Zm.09,6.74c-.11.05-.13.13-.07.24s.14.14.24.09a.36.36,0,0,0,.13-.11.13.13,0,0,0,0-.18.16.16,0,0,0-.15-.11Zm1.67-2.36-.11,0a.4.4,0,0,0-.44.09s0,0-.07.08v.09c0,.08.06.11.13.11a.68.68,0,0,0,.44-.15l.05-.09Zm.26-1.89a.16.16,0,0,0,.11-.22.21.21,0,0,0-.31-.16c-.11.05-.16.12-.13.22a1.65,1.65,0,0,0,.07.27Zm1.61,6.93,0,.07.06,0Zm4.73-12.1-.09,0a.92.92,0,0,0-.88.25.18.18,0,0,0,0,.26.21.21,0,0,0,.15.07l.11,0a1.5,1.5,0,0,0,.69-.31l.08-.15Zm0-.22,1.59-.44a1.4,1.4,0,0,0,.44-.2.14.14,0,0,0,0-.07q0-.14-.09-.15a3.12,3.12,0,0,0-1.08.06,6.37,6.37,0,0,0-1.19.4,1.25,1.25,0,0,0-.19.2c-.06.07-.05.13,0,.17l.2,0Zm3.7-1.17,0,0Z" transform="translate(-30.76 -38.22)"/><path class="cls-5" d="M171.45,273.46l.07-.36a1.66,1.66,0,0,1,.13-.37l.16-.35a1.93,1.93,0,0,0,.3-.77c0-.19.08-.32.09-.38a.35.35,0,0,1,.36-.28,1.85,1.85,0,0,0,.48-.07c.1.13.16.2.18.2a.24.24,0,0,0,.26,0,.14.14,0,0,0,.09-.13.12.12,0,0,0-.11-.13l-.35,0a.57.57,0,0,0-.07-.57h.07l-.07,0-.2-.17c-.1-.13-.12-.25,0-.35l.26-.29a.62.62,0,0,0,.2.22l0,0-.2-.24a.31.31,0,0,1,.33-.22l.48,0a.64.64,0,0,1,.4.24H174a.18.18,0,0,0-.15.09.45.45,0,0,0-.11.27q0,.11.09.15h.09a.59.59,0,0,0,.37-.53q.23-.37.24-.42a.85.85,0,0,1,.31-.35c.07.09.1.1.07,0h-.09c0-.17,0-.27,0-.28s.09-.17.22-.11a.41.41,0,0,1,.27.24l.15.55a.18.18,0,0,0-.09,0,.15.15,0,0,0-.09,0,.29.29,0,0,0-.24.08c0,.06,0,.14.09.25a.75.75,0,0,1,0,.15.82.82,0,0,1,0-.18.51.51,0,0,0,.31-.26l.09.26a9.36,9.36,0,0,1,0,1.48,1.3,1.3,0,0,1-.11.46.51.51,0,0,0-.06.37,2.35,2.35,0,0,1-.09,1.17s0,.17-.07.37a1.14,1.14,0,0,1-.24.53,1,1,0,0,0-.2.75,1.54,1.54,0,0,1-.08.57,7.51,7.51,0,0,1-.4,1.19.62.62,0,0,0-.07.29,2.66,2.66,0,0,1-.11.68c-.32,1.22-.58,2.26-.79,3.13A8.18,8.18,0,0,0,173,282c0,.08,0,.47-.07,1.16a3.45,3.45,0,0,1-.22.95.75.75,0,0,0-.06.66,7.7,7.7,0,0,1,.11,1.06q0,.48.06,1.47a1.88,1.88,0,0,0,.18.75.16.16,0,0,0,.15.09.36.36,0,0,0,.2,0,.73.73,0,0,0,.24-.28,5.59,5.59,0,0,0,.42-1.1,7.17,7.17,0,0,1,.27-.9c.14-.42.24-.71.28-.89a2.9,2.9,0,0,1,.29-.61c.12-.37.48-1.2,1.1-2.51l1.14-2.38c.58-1.13,1.07-2.16,1.48-3.1a1.82,1.82,0,0,1,.35-.57l0,0,.11.15a1.15,1.15,0,0,0,.61.4.28.28,0,0,0,.36-.11,1.22,1.22,0,0,1,.13-.27l0,0a1.2,1.2,0,0,1,.61-.19h0l-.07.28a10.87,10.87,0,0,0-.77,2.51c0,.15,0,.24-.06.26a1.26,1.26,0,0,0-.13.78,4.15,4.15,0,0,1-.22,1.32,8.65,8.65,0,0,0-.31,1c-.13.47-.23.79-.29,1a5.83,5.83,0,0,1-.33.82.69.69,0,0,0-.42-.46l0-.18V283c0-.13-.06-.2-.11-.22s-.14.05-.18.18a.87.87,0,0,0-.27-.07c-.07,0-.1,0-.08.09s0,0,.08,0l.09,0,.18,0c.13.17.23.27.29.28s.22.26.41.47a4.91,4.91,0,0,1-.17.85.3.3,0,0,0,.09.27.23.23,0,0,0,.26.09.57.57,0,0,0,.35-.31.73.73,0,0,0,.11-.27c0-.07.22-.76.57-2.06a17.42,17.42,0,0,1,.73-2.23,2.76,2.76,0,0,0,.18-.46c.07-.23.12-.39.15-.46a1.24,1.24,0,0,1,.33-.49,23.34,23.34,0,0,1-.7,2.34c-.18.48-.36,1.08-.55,1.78a15.06,15.06,0,0,1-.58,1.76c0,.1-.14.38-.28.84a2.61,2.61,0,0,0-.16.94,4.11,4.11,0,0,1-.28,1.35c-.19.54-.35.93-.46,1.18s-.19.4-.34.75a7.57,7.57,0,0,1-.33.77c0,.06-.12.34-.28.84a1,1,0,0,1-.31.48,1.46,1.46,0,0,0-.26.4c0,.07-.06.1,0,.09a3.1,3.1,0,0,1-1.3,1.54.7.7,0,0,1-.37.11l-.59,0a.92.92,0,0,1-.38-.07,3.43,3.43,0,0,0-.86-.18,1.67,1.67,0,0,1-.28-.08.9.9,0,0,1-.38-.29.76.76,0,0,1-.09-.18,1.53,1.53,0,0,0-.72-.77.75.75,0,0,1-.33-.46,2.87,2.87,0,0,1-.09-.28c-.07-.5-.21-1.14-.4-1.92,0,0,0-.1,0-.4a2.61,2.61,0,0,1,0-1.16.69.69,0,0,0,.05-.18.74.74,0,0,0,0-.39c0-.06-.06-.17-.11-.33s-.08-.24-.11-.31a1.31,1.31,0,0,1,0-.68l0-.09a5.08,5.08,0,0,0,.33-1.83,14,14,0,0,1,.15-2,2.18,2.18,0,0,0,0-.39c0-.21,0-.34,0-.4,0-.36.08-.62.11-.77a6,6,0,0,0,.08-1c0-.57,0-.86,0-.88s0-.26-.05-.48c0,0,0-.14-.09-.29a1.86,1.86,0,0,1,0-.28l.07-.29a2.89,2.89,0,0,1,0-.29,1.41,1.41,0,0,0,0-.59q0-.14-.15-.09l-.16.11a1.53,1.53,0,0,0-.35.68,3.6,3.6,0,0,1-.09.4,2.5,2.5,0,0,1-.09.37,1.61,1.61,0,0,1-.39.77v0a1.27,1.27,0,0,1-.11.38,7.35,7.35,0,0,0-.38.72l-.39.75a.79.79,0,0,0-.11.35,1.12,1.12,0,0,1-.07.49,2,2,0,0,0-.13.75,2.25,2.25,0,0,1-.15.85c-.24.69-.53,1.72-.86,3.09-.08.24-.2.69-.38,1.32a3.27,3.27,0,0,1-.13.35q0-.23-.24-.24c-.07,0-.11,0-.11.11s0,.13.09.13l.28,0a4.52,4.52,0,0,1-.24.85,2.06,2.06,0,0,0-.22.84,3.25,3.25,0,0,1-.7,1.61.5.5,0,0,1-.53.17l-.38-.11-.41-.13a1.5,1.5,0,0,0-.42-.13.66.66,0,0,1-.51-.42,3.9,3.9,0,0,1-.35-1.72c0-.44-.07-1.28-.22-2.53a5.34,5.34,0,0,1-.07-1c0-1,0-1.77,0-2.36a1.36,1.36,0,0,1,0-.4c0-.08.1-.4.2-.94a3.68,3.68,0,0,1,.68-1.61,1.85,1.85,0,0,0,.22-.26,3.32,3.32,0,0,0,.22-.27,1.25,1.25,0,0,0,.11-.26.17.17,0,0,0,0-.2l-.22-.18a.59.59,0,0,1-.4-.7c0-.16,0-.35.07-.57a7.73,7.73,0,0,1,.11-.77c0-.21.07-.63.15-1.28a14.92,14.92,0,0,1,.31-1.52c.09-.36.13-.55.13-.57a3,3,0,0,0,0-.88,5.48,5.48,0,0,1,0-1.56,4.88,4.88,0,0,0,.09-.6,3.44,3.44,0,0,1,.15-.85,2.94,2.94,0,0,0,.14-.77s0-.16.06-.38a.62.62,0,0,1,.44-.48l.46-.18a2.62,2.62,0,0,0,1.15-.55,2.29,2.29,0,0,1,1-.42h.2a.3.3,0,0,1,.22.16,1,1,0,0,1,.11.46,3.64,3.64,0,0,1,0,.5,4,4,0,0,0,0,.77,1.19,1.19,0,0,1-.18.67,1,1,0,0,0-.13.46c0,.23,0,.39,0,.48a7.52,7.52,0,0,1-.6,2.58l-.13.35a1.34,1.34,0,0,0-.09.4,6.09,6.09,0,0,1-.3,1.51c.05-.22-.31,1-1.08,3.77l0,.06v.05a10.48,10.48,0,0,0-.39,1.49,4.39,4.39,0,0,1-.09.73q-.06.48-.09.75a4.32,4.32,0,0,1-.11.77,4.67,4.67,0,0,0-.11,1.08c0,.16.08.22.18.19a.38.38,0,0,0,.17-.06l.14-.16.22-.33.26-.39a.8.8,0,0,1,.22-.2,1.35,1.35,0,0,0,.53-.68c.06-.12.31-.68.75-1.7.1-.22.16-.33.17-.35a11.7,11.7,0,0,0,.53-1.25c.1-.28.29-.7.55-1.26a.87.87,0,0,1,.38-.44l-.29.62a.59.59,0,0,0,0,.37c0,.06.06.09.13.09a.2.2,0,0,0,.24-.11.57.57,0,0,0,0-.79l-.08-.18c0-.12,0-.17,0-.17s0-.11.15-.36a.24.24,0,0,1,.13-.13,1,1,0,0,0,.62-.57.61.61,0,0,0,.07-.13.49.49,0,0,0,.06-.13.78.78,0,0,0,.13-.44,2.75,2.75,0,0,1,0-.29.49.49,0,0,1,.17-.33l.13-.13a1.47,1.47,0,0,0,.11-.22.69.69,0,0,1,.14-.2l.3-.35,0,0ZM169.21,279c0,.06,0,.09,0,.09l0-.07Zm3.15,8.25.06.05,0-.09Zm.13-14.7a.13.13,0,0,0,0,.18c0,.07.09.07.13,0a.1.1,0,0,0,0-.16l-.06,0Zm.4-.66h-.29s0,0-.07.07,0,.12.05.13.07,0,.09,0l.22-.2Zm.33,1.06q-.12,0-.09.09s0,.06,0,.06.11,0,.11-.09Zm.41-1.08c-.07,0-.11,0-.13.07s0,.14.09.15a.12.12,0,0,0,.15-.09C173.76,271.93,173.72,271.89,173.63,271.87Zm.09,2.18s-.06,0-.06,0,0,.11.06.11a.16.16,0,0,0,.09,0C173.82,274.09,173.79,274.05,173.72,274.05Zm.42-3.35a.14.14,0,0,0-.18,0c-.06.06-.05.11,0,.16a.11.11,0,0,0,.15,0Zm0-2.26,0-.07.05.05Zm1.72,15.14a.16.16,0,0,0,0,.09.55.55,0,0,0,.14.13c.05.06.11.05.15,0a.08.08,0,0,0,0-.09.37.37,0,0,0-.2-.18S175.86,283.56,175.86,283.58Zm.17,1.61.05.13h.06l0-.07Zm.95-.38-.07,0,.16-.24c.07-.13.05-.21-.07-.22l-.29-.05a.11.11,0,0,0-.13.09.51.51,0,0,0,0,.09,1,1,0,0,0,.33.33Zm-.16-1-.06.05,0,.06a.08.08,0,0,0,.09,0v-.09Zm.22,3.28v.05s0,0,0,0Zm.42,1.94v.09l.07,0Zm.29-5.46.11-.26,0,0c0,.14-.05.24-.07.31Zm.95-4.45.06,0,0-.06-.07,0Zm.26-3.36,0-.18a.3.3,0,0,1,.36-.24v0q-.5.43-.42.42Zm.37-.42c.14,0,.19-.12.18-.22s0-.11-.09-.29a.47.47,0,0,1,0-.37c.06-.15.17-.38.33-.7s.26-.55.33-.71a6.9,6.9,0,0,1,.38-.59,1.25,1.25,0,0,1,.35-.31c.06,0,.08-.09.07-.18a1.32,1.32,0,0,1,0-.75,11.75,11.75,0,0,0,.57-1.56,4.93,4.93,0,0,1,.15-.5l.16-.53a.64.64,0,0,1,.06-.18,1.49,1.49,0,0,1,.11-.15,1.33,1.33,0,0,0,.42-.75c.08-.29.21-.8.4-1.52a2.51,2.51,0,0,1,.4-.88,1.33,1.33,0,0,0,.15-.35c0-.09.07-.27.13-.53a2.84,2.84,0,0,1,.16-.53l0,0h-.05a1.33,1.33,0,0,1,.14-.26c.23-.28.42-.49.57-.64a2.37,2.37,0,0,1,.64-.44c.19-.07.28,0,.28.18a1.49,1.49,0,0,0,.05.48.57.57,0,0,1,0,.46,1.08,1.08,0,0,0-.06.2.73.73,0,0,0,0,.38c-.07-.14.07.08.42.63a.76.76,0,0,1,.11.38.36.36,0,0,0,.13.26.38.38,0,0,1,.11.24,1.57,1.57,0,0,1,0,.49.36.36,0,0,1-.15.24l-.36.15c-.17.08-.17.17,0,.29,0,0,.06.05.18.11l0,0a1.84,1.84,0,0,1-.13.57,10.16,10.16,0,0,1-.84,1.52,1.13,1.13,0,0,0-.15.26,2.41,2.41,0,0,1-.33.8,22.15,22.15,0,0,0-1.35,2.72c0,.08-.11.12-.24.14a.37.37,0,0,0-.37.24l-.07.13-.07.13c0,.11-.1.26-.17.47a3.63,3.63,0,0,1-.68,1.16s0,.1-.25.42a.94.94,0,0,1-.26.29h0a.8.8,0,0,0-.46-.16.16.16,0,0,0-.18.18l0,.17,0,0a1.89,1.89,0,0,1-.38-.11.61.61,0,0,1-.41-.48Zm1.83,3.06v0Zm.46-6.32q-.09-.09-.15,0a.06.06,0,0,0,0,.09q.09.09.15,0Zm2.18-5.9c-.07,0-.1,0-.09.11s0,.07,0,.07.11,0,.11-.09Zm.18-1.8h-.07l0,.07.07,0Zm.15,2.57c-.15,0-.2.07-.15.2a.14.14,0,0,0,.13.11.62.62,0,0,0,.37-.11.06.06,0,0,0,.05-.06c0-.08,0-.11-.11-.11l-.18,0Zm.6-2.77s-.06,0-.07,0,0,.11.07.11l0-.06Z" transform="translate(-30.76 -38.22)"/><path class="cls-5" d="M186.31,274.07l.35-1a3.07,3.07,0,0,1,.55-1,1.71,1.71,0,0,0,.35-.7.81.81,0,0,0,.09-.22l.07-.24a4.21,4.21,0,0,1,.83-1.54l.14-.13.13-.16a1.15,1.15,0,0,0,.26-.42,15,15,0,0,1,.91-1.85c0-.1.19-.39.41-.88a2.39,2.39,0,0,1,.14-.37,2.53,2.53,0,0,1,.55-.81.59.59,0,0,0,.15-.36,1.11,1.11,0,0,1,.15-.55c.3-.57.58-1.19.86-1.87a.79.79,0,0,1,.6-.48,1.94,1.94,0,0,1,.66-.09l.79.09a.41.41,0,0,1,.18.06,1.84,1.84,0,0,0,.41.16,1.89,1.89,0,0,1,.42.11,1.37,1.37,0,0,0,.49.09.9.9,0,0,1,.81.46l.18.28a.66.66,0,0,0,.19.29.23.23,0,0,1,0,.2l-.11.15a15.85,15.85,0,0,0-1.78,3.81q-.06.13-.24.75a7.52,7.52,0,0,1-.51,1.39,2.69,2.69,0,0,0-.26.92,3,3,0,0,1-.27.95,2.37,2.37,0,0,0-.15.85v.29a.55.55,0,0,1-.11.29,2.24,2.24,0,0,0-.29.39.49.49,0,0,0,.07.46l.07.07.06.07a.4.4,0,0,1,.07.28c0,.15-.06.27-.09.38l-.15.37-.14.35a7.5,7.5,0,0,0-.28,1.15c0,.12-.05.33-.09.64s-.07.47-.09.61a1.15,1.15,0,0,1-.09.29.36.36,0,0,1-.26.26l-.18.07a.25.25,0,0,0-.19.31,1.48,1.48,0,0,0,.11.48c0-.07,0,.05-.11.37a7.74,7.74,0,0,0-.31,1.74c0,.06,0,.16,0,.29a2.35,2.35,0,0,1,0,.29.41.41,0,0,0,.33.46,4.92,4.92,0,0,1,.84.26.91.91,0,0,1,.39.27,7.27,7.27,0,0,1,.49.61.19.19,0,0,1,0,.18c0,.09-.05.14-.11.15s0,0,0,0,0,0-.05,0a1.72,1.72,0,0,1-.63.19,1.46,1.46,0,0,0-.58.16.81.81,0,0,0-.3.24.87.87,0,0,1-.55.37.14.14,0,0,0-.11.14.17.17,0,0,0,.08.19l.16.09a.29.29,0,0,1,.13.33,2.06,2.06,0,0,1-.09.44c0,.18-.07.33-.09.44a2.54,2.54,0,0,0,0,.69,1.13,1.13,0,0,1-.06.66.2.2,0,0,0,.06.26.63.63,0,0,1,.25.53.3.3,0,0,0,.17.31.42.42,0,0,1,.18.52,8.24,8.24,0,0,1-.57,1.57,1.16,1.16,0,0,0-.18.75,1.24,1.24,0,0,1-.07.48c-.08.22-.16.4-.22.53a5.17,5.17,0,0,0-.35,1.23c-.06.31-.12.63-.2,1a1,1,0,0,1-.17.33.64.64,0,0,1-.49.28.18.18,0,0,1-.17,0,1.76,1.76,0,0,1-.31-.26l-.55-.69a.61.61,0,0,1-.15-.63,1.35,1.35,0,0,0,0-.49,2.55,2.55,0,0,1,.11-.77,1.16,1.16,0,0,0,0-.28,3.05,3.05,0,0,1,.24-.84,2.18,2.18,0,0,0,.18-.86,19.2,19.2,0,0,1,.13-2.07,1.41,1.41,0,0,1,.16-.55l.13-.26a2.89,2.89,0,0,0,.35-1.52.39.39,0,0,0-.09-.26.49.49,0,0,1,0-.38c.09-.34.14-.53.16-.57a1.4,1.4,0,0,0,0-.29.37.37,0,0,0-.25-.31c-.25-.08-.5-.16-.75-.22l-.28,0-.29,0-.94-.27-.29-.09c-.18,0-.72-.11-1.63-.3a.49.49,0,0,0-.2,0,.84.84,0,0,0-.9.47c0,.07,0,.1,0,.08a14.94,14.94,0,0,0-.66,1.94,1.42,1.42,0,0,1-.27.64,11.61,11.61,0,0,0-.88,1.74,2,2,0,0,1-.13.26,12.67,12.67,0,0,0-1,2.86,9.33,9.33,0,0,1-.51,1.59c-.06.14-.17.45-.33.92a4.52,4.52,0,0,1-1.34,2,1.49,1.49,0,0,1-.24.18l-.55.2a.79.79,0,0,1-.4,0l-.24-.13a10.07,10.07,0,0,0-1.35-.82.32.32,0,0,1-.13-.26,1.52,1.52,0,0,1,.05-.38,1.38,1.38,0,0,1,.11-.28l.5-1.06c.19-.45.35-.81.49-1.08a4.49,4.49,0,0,1,.3-.7c.3-.68.5-1.13.62-1.35a3.75,3.75,0,0,1,.62-1l.17-.24a.72.72,0,0,0,.14-.37v-.4a.83.83,0,0,1,.22-.53c.05-.07.21-.24.46-.5a2.59,2.59,0,0,0,.46-.86s0-.11,0-.2a2,2,0,0,1,.49-1.06,3.74,3.74,0,0,0,.61-1.1,1.45,1.45,0,0,0,.09-.48,1.23,1.23,0,0,0,0-.2,1.54,1.54,0,0,1,.26-1,1.24,1.24,0,0,1,.4-.42,1.39,1.39,0,0,0,.44-.53l.57-1.12c.76-1.61,1.22-2.56,1.37-2.84s.42-.87.66-1.41a4.23,4.23,0,0,1,.52-.94,3.94,3.94,0,0,0,.29-.4h0A.66.66,0,0,1,186.31,274.07Zm-.51,4.42a0,0,0,0,0,0-.06c-.05-.07-.08-.07-.11,0s0,0,0,.09Zm2-2.79.07,0-.44,1.07a.75.75,0,0,0-.09.29,12.36,12.36,0,0,1-.46,1.61s-.22.52-.58,1.45a3.21,3.21,0,0,0-.17.66.37.37,0,0,0,.22.42l.09,0,.83.27a14.36,14.36,0,0,0,1.65.22,3,3,0,0,1,.49.06,2.54,2.54,0,0,0,1-.06l.08,0a.63.63,0,0,0,.22-.19,1.92,1.92,0,0,0,.09-.8c0-.41,0-1,.11-1.65s.14-1.36.16-1.67a1.46,1.46,0,0,1,0-.29,5.18,5.18,0,0,0,.11-1.45,4.5,4.5,0,0,1,0-1.08,2.6,2.6,0,0,0,.05-1,7.07,7.07,0,0,1,0-1.95,1.76,1.76,0,0,0,0-.4A.31.31,0,0,0,191,271a.38.38,0,0,0-.33.19c0,.09-.1.22-.17.4s-.16.32-.2.4a.39.39,0,0,1-.13.13l-.2,0a.51.51,0,0,0-.37.29c-.06.1-.14.24-.25.41s-.19.39-.22.44a5.29,5.29,0,0,0-.59,1.55,1.92,1.92,0,0,0-.05.24.69.69,0,0,1,0,.24.23.23,0,0,1-.11.15,1.52,1.52,0,0,1-.42.27Zm3.7-8.74c-.05-.07-.13-.06-.27.05a1.41,1.41,0,0,0-.41.52c-.08.18-.32.64-.73,1.39a7.23,7.23,0,0,0-.59,1.34,1.6,1.6,0,0,1-.34.6c-.07.1-.35.54-.83,1.32a1.88,1.88,0,0,0-.27.92.49.49,0,0,0,0,.18c.07.15.16.17.26.06a1.89,1.89,0,0,0,.33-.48l1.35-2.51,1.34-2.49a2.17,2.17,0,0,0,.15-.35.62.62,0,0,0,0-.39A.51.51,0,0,0,191.55,267Zm-2.05,2.23s0,0,0-.09-.13-.18-.24-.09a.77.77,0,0,0-.27.77.17.17,0,0,0,.11.09c.06,0,.11,0,.13,0a.53.53,0,0,0,.29-.42Zm1.56,1.05a.24.24,0,0,0,.22,0,.2.2,0,0,0,.11-.2.42.42,0,0,0,0-.17c-.06-.19-.16-.23-.31-.11a.34.34,0,0,0-.17.3C190.87,270.13,190.93,270.2,191.06,270.24Zm1.74,3.1a.14.14,0,0,0-.15.07c-.06.06-.05.11,0,.15s.18.06.22-.06A.13.13,0,0,0,192.8,273.34Z" transform="translate(-30.76 -38.22)"/><path class="cls-5" d="M202.51,281.07s-.15.34-.44,1-.52,1.32-.73,1.92l-.48,1.28-.18.39a2.41,2.41,0,0,0-.17.42,1.7,1.7,0,0,0-.16.35l-.13.38c0-.06-.07.17-.31.7a1.27,1.27,0,0,1-.33.48.28.28,0,0,0-.06.18,2.15,2.15,0,0,0,0,.51,2,2,0,0,1-.23,1h0a.89.89,0,0,1-.44.46v0l.08.18a.52.52,0,0,1,0,.28c0,.15-.06.28-.09.4a16.88,16.88,0,0,0-.46,1.69,1.84,1.84,0,0,1-.2.53,4.47,4.47,0,0,1-.26.42,2.41,2.41,0,0,1-.66.84l-.66.57a1.11,1.11,0,0,1-.27.13.15.15,0,0,1-.17-.07,3.9,3.9,0,0,1-.29-.72c0-.1,0-.2,0-.29a3,3,0,0,1,.22-.94c.07-.22.19-.57.35-1a5.12,5.12,0,0,0,.22-.75,5.58,5.58,0,0,1,.22-.74,16.35,16.35,0,0,0,.53-2,1.92,1.92,0,0,1,.33-.79.31.31,0,0,0,0-.11l0-.09a1.13,1.13,0,0,1,0-.48c.29-1.13.48-1.86.55-2.18a1.09,1.09,0,0,1,.4-.64.09.09,0,0,0,.06-.06,1,1,0,0,0,0-.2.79.79,0,0,1-.06-.73,1.91,1.91,0,0,1,.4-1l-.05,0,.05,0a.77.77,0,0,1,0-.37,4.42,4.42,0,0,0,.33-1,2.72,2.72,0,0,0,.09-.6,4.71,4.71,0,0,1,.17-.95c.06-.19.15-.5.27-.94s.21-.73.28-1a1.37,1.37,0,0,1,.2-.44.54.54,0,0,0,.09-.26,6.16,6.16,0,0,1,.18-1.17c.23-1.07.37-1.67.41-1.8s.14-.65.29-1.46q0-.3.18-1c.07-.41.13-.74.17-1a3.09,3.09,0,0,1,.11-.38.47.47,0,0,1,.18-.22.23.23,0,0,0,.11-.33,1.34,1.34,0,0,1-.16-.63s0-.3.09-.8a2,2,0,0,0,.05-.39q0-.24-.27-.27h-.2a2.36,2.36,0,0,0-.37.11,3.39,3.39,0,0,1-1.06.13.86.86,0,0,1-.28,0,3.71,3.71,0,0,1-.57-.18l-.18-.08a.32.32,0,0,0-.18-.07,8.48,8.48,0,0,1-2-1.08,3.2,3.2,0,0,1-.44-.37.85.85,0,0,1-.2-.9.77.77,0,0,1,.14-.27,2.61,2.61,0,0,1,.85-.64,10.42,10.42,0,0,1,2.23-.74l.46-.14c.15,0,.37-.08.68-.13a1.26,1.26,0,0,0,.38-.09,6,6,0,0,1,1.25-.24c.53-.06.85-.1,1-.13a6.17,6.17,0,0,1,2.13-.09,3.18,3.18,0,0,1,.4,0,1.14,1.14,0,0,0,.4,0c.36-.07.65-.11.85-.13a2.8,2.8,0,0,1,1.26.09,2.25,2.25,0,0,0,1.45,0,2.83,2.83,0,0,1,.49-.11,15.76,15.76,0,0,0,2.09-.46,3.74,3.74,0,0,1,1.36-.11c.53.06.82.09.88.11.25,0,.35.17.31.44a.68.68,0,0,1-.05.19c-.16.62-.36,1.3-.61,2a.65.65,0,0,1-.29.38,6.58,6.58,0,0,1-1.41.7,4.28,4.28,0,0,1-.41.15l-.4.16a2.33,2.33,0,0,1-.37.11,12.85,12.85,0,0,0-1.35.35c-.51.15-1.32.4-2.42.77a6.25,6.25,0,0,0-.72.26l-.75.27a.27.27,0,0,0-.13,0l-.14.07a.67.67,0,0,0-.44.48,1.37,1.37,0,0,0,0,.29c-.06.47-.15,1.32-.26,2.55a14.05,14.05,0,0,1-.69,3.24,1.16,1.16,0,0,1-.13.26,1.31,1.31,0,0,0-.22.64,1.24,1.24,0,0,1-.15.46.21.21,0,0,0,0,.18,1.88,1.88,0,0,1-.11.68c-.32,1-.5,1.64-.55,1.87a.64.64,0,0,1-.33.46,5.25,5.25,0,0,0-.48.33.2.2,0,0,0-.05.18,1.07,1.07,0,0,0,.2.33.52.52,0,0,1,0,.46,1.62,1.62,0,0,1-.27.53v0C202.52,281,202.51,281.07,202.51,281.07Zm-4.89,11.18,0,0c-.08-.09-.1-.13-.07-.13l.09.13Zm.84-4.69a.1.1,0,0,0-.18,0,.08.08,0,0,0,0,.07c.05.07.1.08.16,0Zm-.07,2.2-.06.07,0,.09c0-.08.06-.13.07-.16Zm.71-1.47c0-.09-.09-.13-.22-.11a.13.13,0,0,0-.14.09.15.15,0,0,0,.09.22h.09C199.05,288.47,199.11,288.41,199.1,288.29Zm1.56-4.8a.11.11,0,0,0,0,.15.1.1,0,0,0,.15.05.18.18,0,0,0,.11-.13.19.19,0,0,0-.11-.16A.18.18,0,0,0,200.66,283.49Zm.4-19.26-.09-.46a.23.23,0,0,0-.18-.09q-.09,0,0,.09c.05,0,.1,0,.18,0a1.84,1.84,0,0,0,.09.55h0Zm-.16,18.49-.11,0,0,.07.07,0Zm-.06-3v.05l.06,0Zm.35-1.71s0-.05-.07-.05-.11,0-.11.09.06.13.13.11S201.23,278,201.19,278Zm.39-1.3c-.06-.06-.11-.05-.15,0a.39.39,0,0,0-.07.18.06.06,0,0,0,0,.06q.09.09.15,0s0-.08.07-.2Zm.4,2.09,0-.05,0,0Zm.46-2.86a.05.05,0,0,0,0,.06c0,.08,0,.12.09.14s.1-.05.08-.14S202.52,275.87,202.44,275.9Zm.66,1.58-.26,0,0,0a1.85,1.85,0,0,1,.18.25v.19c0,.09.05.1.13,0s0-.05,0-.07l-.13-.15a2.89,2.89,0,0,0,0-.29Zm.05-1.78,0,0-.07,0Zm1.43-5.85-.11.11h-.07c-.07,0-.07,0,0,0s0,0,0,0Zm3.89-3.75h0v.09s0,0,.06,0v-.07Z" transform="translate(-30.76 -38.22)"/><path class="cls-5" d="M220.77,278.25h0a.49.49,0,0,1,.15.24,1.3,1.3,0,0,1,0,.58.7.7,0,0,1-.3.48,1,1,0,0,1-.4.05c-.16,0-.23.08-.22.24a.47.47,0,0,1-.26.48,4.29,4.29,0,0,1-.91.38c-.05,0-.43.13-1.12.33l-.09,0a6.9,6.9,0,0,0-.88.11,8,8,0,0,1-.88.11c-.14,0-.86.07-2.13.2a1.15,1.15,0,0,0-.75.44.87.87,0,0,0-.09.17.54.54,0,0,0,0,.2,4,4,0,0,1-.27,1c-.2.52-.32.83-.35.92a4,4,0,0,1-.17.55s-.12.1-.4.44a.61.61,0,0,0-.11.64l0,.09a.29.29,0,0,1-.06.35.87.87,0,0,0-.25.42.43.43,0,0,1,0,.17,6.35,6.35,0,0,0-.48,1.5,1.07,1.07,0,0,0,.59,1.23,2.38,2.38,0,0,0,1,.35c.29.06.69.11,1.19.16a7.49,7.49,0,0,0,1.16,0l1.17-.13a.44.44,0,0,0,.42-.38,1.37,1.37,0,0,0,0-.2l0-.17a.47.47,0,0,1,.17-.35c.1-.08.26-.19.46-.36a.68.68,0,0,1,.38-.11.52.52,0,0,1,.5.22q.21.3.42.66c.13.22.27.48.42.77a1.1,1.1,0,0,1,.11.58,4.42,4.42,0,0,1-.2,1.05,1,1,0,0,1-.39.55,4.52,4.52,0,0,1-1.79.77,1.45,1.45,0,0,1-.48.05.85.85,0,0,0-.55.13.53.53,0,0,1-.29,0l-.79,0a7.48,7.48,0,0,1-2-.15,13.36,13.36,0,0,1-2.09-.46,8,8,0,0,1-1.1-.42,1.56,1.56,0,0,1-.46-.37l-.11-.16a7.27,7.27,0,0,0-.77-1,2,2,0,0,1-.49-1.92,20.16,20.16,0,0,1,1-3.08l.57-1.34c.06-.15.1-.27.13-.37.15-.63.76-2.63,1.85-6,.09-.31.24-.79.46-1.45s.38-1.1.49-1.45c0,0,.16-.55.44-1.61h0l-.05,0c.74-2.76,1.08-4.06,1-3.89a.51.51,0,0,1,0-.09,1.12,1.12,0,0,0-.09-.77.21.21,0,0,1,0-.27,6.36,6.36,0,0,0,.42-.55s.06-.25.22-.83t.09-.6a2.2,2.2,0,0,1,.18-.55,1.18,1.18,0,0,1,.19-.22,1.59,1.59,0,0,1,.25-.17,12,12,0,0,1,1.63-.64.67.67,0,0,1,.48,0,1.31,1.31,0,0,1,.55.42,2,2,0,0,1,.37.77c0,.18.14.27.36.29l.39,0h1.37l3.23,0a8.6,8.6,0,0,1,1.28.15,4.33,4.33,0,0,1,.83.25,1.25,1.25,0,0,1,.27.15,1,1,0,0,1,.39,1.28,1.35,1.35,0,0,1-.19.39,2.05,2.05,0,0,0-.2.4c0,.09-.13.18-.29.29a4.14,4.14,0,0,1-1,.46,3.41,3.41,0,0,1-1.23.24l-.55,0a4.93,4.93,0,0,1-.53,0,1.06,1.06,0,0,1-.48-.07l-.29-.24a.22.22,0,0,0-.35,0,.38.38,0,0,1-.44.06.34.34,0,0,0-.37,0,.77.77,0,0,1-.47.11,7.71,7.71,0,0,1-1.45-.15,2.89,2.89,0,0,0-.88,0,.38.38,0,0,0-.31.22,2.08,2.08,0,0,0-.13.26c-.29.87-.48,1.42-.57,1.67a8.71,8.71,0,0,1-.46,1.28,7.66,7.66,0,0,0-.44,1.3l-.33,1.43a7.56,7.56,0,0,1-.31,1.14c0,.16-.16.57-.35,1.21a.19.19,0,0,0,.06.22c.08.08.15.11.22.09s.21,0,.2,0l.55-.16a24.11,24.11,0,0,1,2.49-.55c.29,0,.64-.11,1-.19a.77.77,0,0,0,.47-.38,3.15,3.15,0,0,0,.17-.44.8.8,0,0,1,.68-.48.45.45,0,0,1,.29.06.62.62,0,0,1,.33.47,1.45,1.45,0,0,1,0,.39c0,.19,0,.35,0,.49a.54.54,0,0,1-.07.26s0,0-.11.18l-.17.06a.39.39,0,0,0-.29.24l0,.05a.08.08,0,0,1,0,0l0,.09q-.06.13.09.24a.31.31,0,0,0,.29,0,.38.38,0,0,0,.2-.31s0-.14-.07-.47Zm-11.42,6.52v0l-.09,0,0,.06c.08,0,.11,0,.06,0Zm.51.68.06,0c0,.12,0,.18,0,.2a.05.05,0,0,0,.06,0c.09,0,.13,0,.11-.11s0-.06,0-.06a.48.48,0,0,0-.18-.07Zm4.25-10.26.06,0-.06,0Zm4.55,4s0,0-.09,0v-.09c.05,0,.06,0,0,.09Zm.46-11.75a.26.26,0,0,0-.35,0q-.11.06,0,.15c.09.08.21.05.35-.06Zm-.3,12.21,0,0v.07Zm.63-1.69c-.08,0-.11,0-.08.09s0,0,.08,0l.05-.07Zm.31-8.45a.22.22,0,0,0,.07-.09c0-.07-.05-.1-.13-.09l0,.07C219.65,269.52,219.69,269.55,219.76,269.54Zm.68-1.12,0-.07.05,0Zm.09.83s0,0,0,.07l.09,0,0-.07Zm1.28.13h0Zm.66-1.21-.18.35a.2.2,0,0,0,0,.09c0,.05,0,.08,0,.09a.12.12,0,0,0,.17-.06.43.43,0,0,0,0-.45Zm2.35.49a.09.09,0,0,0-.15,0,.08.08,0,0,0,0,.09.14.14,0,0,0,.16,0Z" transform="translate(-30.76 -38.22)"/><path class="cls-5" d="M232.39,280.85a2.3,2.3,0,0,1,.44.48,5.32,5.32,0,0,1,.91,2.45s0,.24.06.68v0l-.35-.14a.18.18,0,0,0-.22.14.26.26,0,0,1-.2.19,2.38,2.38,0,0,0-.66.2h0a.52.52,0,0,0-.22.53v.07c-.28.14-.39.34-.31.59l0,.18a.12.12,0,0,1,0,.09.13.13,0,0,1-.18,0l-.09-.16a1.4,1.4,0,0,1-.24-.31h0a13.12,13.12,0,0,1-1-1.91c-.09-.21-.17-.38-.25-.53-.26-.47-.61-1.06-1-1.78a.45.45,0,0,0-.29-.24c-.07,0-.13,0-.17,0s-.13.12-.13.15c-.22.46-.39.81-.49,1.06a1.84,1.84,0,0,0-.17.57,5.54,5.54,0,0,1-.36,1.21,2.55,2.55,0,0,0-.15.86,17.46,17.46,0,0,1-.38,2.93,1.75,1.75,0,0,0,0,.68,1.92,1.92,0,0,1-.06.86,6.09,6.09,0,0,0-.11.88l-.14.37,0,0a1,1,0,0,1-.22.62.27.27,0,0,0,0,.19v.18a.47.47,0,0,1-.06.2s0,.14-.11.31a1,1,0,0,1-.16.3.27.27,0,0,0,0,.27l.09.17a.26.26,0,0,1,0,.18l-.2.44a.35.35,0,0,1-.31.22l-.17,0c-.18.06-.22.17-.13.31a.5.5,0,0,0,.35.29.07.07,0,0,1,.06.06c0,.09,0,.13-.13.11a1.33,1.33,0,0,0-.57.05c0-.18.07-.27.07-.29a1,1,0,0,0-.05-.26.23.23,0,0,0-.17-.16.24.24,0,0,0-.22.07.42.42,0,0,0-.11.26c0,.24.06.36.33.38l.17,0c0,.42-.06.65-.06.68a1.81,1.81,0,0,1-.36.9c-.13.21-.27.21-.41,0,0,0,0,0-.05-.08l-.06-.07a.2.2,0,0,0-.25-.11l-.08,0c-.21.06-.35,0-.42-.11l-.22-.33a.88.88,0,0,1-.2-.72c0-.4.1-.82.18-1.28a.34.34,0,0,1,.33-.31s.07,0,.08,0l.16-.13a1,1,0,0,0,.11-.27.69.69,0,0,1,.13-.26,2.06,2.06,0,0,0,.15-.24.2.2,0,0,0,0-.18l-.35-.31a.16.16,0,0,1-.05-.19l.09-.27q.12-.19.33-.48a.33.33,0,0,0,.05-.27.75.75,0,0,1-.09-.66c.29-1.9.47-3,.53-3.39a1.45,1.45,0,0,1,.06-.33,1.27,1.27,0,0,0,.07-.33c0-.22.13-.58.26-1.1s.2-.83.24-1.1a4.16,4.16,0,0,0,.18-.77,2.2,2.2,0,0,1,.18-.55,2.28,2.28,0,0,0,.15-.86.94.94,0,0,1,.07-.37c0-.18.12-.5.24-1a6.49,6.49,0,0,1,.26-.92c0,.09,0-.08.11-.49a.38.38,0,0,0,0-.28c-.15-.43-.2-.58-.18-.47a.84.84,0,0,1,0-.28.42.42,0,0,0-.13-.35s-.09-.08-.22-.2l0,0a1.94,1.94,0,0,1,.55-.48.36.36,0,0,0,.11-.58l-.18-.22,0,0,.29,0a.69.69,0,0,0,.61-.41,8.6,8.6,0,0,0,.49-1.3,15.34,15.34,0,0,1,.53-1.68c0-.08,0-.22.08-.39a15,15,0,0,1,.51-2c0-.09.07-.21.11-.38s.07-.32.09-.39c.19-.68.37-1.3.55-1.87a2.21,2.21,0,0,0,.11-.58,1.79,1.79,0,0,1,.17-.66,6.91,6.91,0,0,0,.66-1.62,7.2,7.2,0,0,1,.25-.75,2.87,2.87,0,0,1,.26-.53l0,0,.06-.28.44-1.21a1.2,1.2,0,0,1,.18-.34.83.83,0,0,1,.31-.24c.17-.06.42-.12.75-.2a.81.81,0,0,1,.31,0,3.53,3.53,0,0,1,.52.22.52.52,0,0,1,.22.18,2.18,2.18,0,0,1,.36.59,3.29,3.29,0,0,0,.22.56s.05.08.13.13a.38.38,0,0,0,.17,0,12.6,12.6,0,0,1,1.54.33,2.9,2.9,0,0,1,.38.11,1.87,1.87,0,0,0,.44.2l.44.2.42.26a7.27,7.27,0,0,1,.61.49,2.31,2.31,0,0,1,.53.59l.42.66a1.38,1.38,0,0,0,.24.29,1.28,1.28,0,0,1,.42.52c0,.06.12.24.29.53a4.4,4.4,0,0,1,.24.64c.22.93.31,1.34.28,1.23a1.3,1.3,0,0,1,0,.4c0,.34,0,.63,0,.88a2.44,2.44,0,0,1-.09.37,1.67,1.67,0,0,0-.11.47,1.05,1.05,0,0,1-.11.48,1.61,1.61,0,0,0-.09.26,2.69,2.69,0,0,1-.94,1.59c-.5.48-.91.9-1.24,1.25a8.66,8.66,0,0,1-1.78,1.52.77.77,0,0,1-.55.13l-.2,0a.41.41,0,0,0-.41.46.87.87,0,0,0,0,.2v.19c0,.17-.06.27-.18.31l-1,.42a.34.34,0,0,0-.24.26.6.6,0,0,1-.22.31,2.94,2.94,0,0,1-.79.4.35.35,0,0,1-.29,0l-.11-.06-.13-.09a.22.22,0,0,0-.18,0,.81.81,0,0,0-.59.31.5.5,0,0,0-.07.64s.19.27.53.7a1,1,0,0,1,.17.35v0Zm-8.64,12.94v0Zm.59-1.94s0,0,.07,0l0-.06C224.3,291.77,224.28,291.79,224.34,291.85Zm.59.93-.06,0,.06,0Zm1.35-16.6c0,.08,0,.08,0,0h0Zm7.5-9.81-.68.7a2.14,2.14,0,0,0-.44.77l-.22.68c-.1.31-.18.55-.24.71-.12.4-.22.7-.31.92-.76,2.06-1.15,3.1-1.15,3.13a3.44,3.44,0,0,1-.26.64,8.18,8.18,0,0,0-.51,1.67c0,.13-.05.29-.08.48a.24.24,0,0,0,.08.22.31.31,0,0,0,.22.11h.09a11.68,11.68,0,0,0,1.17-.19,5.62,5.62,0,0,0,1-.33.58.58,0,0,0,.33-.36,1.52,1.52,0,0,1,.29-.39c.35-.32.61-.57.77-.75.7-.75,1.18-1.24,1.43-1.48a1.49,1.49,0,0,0,.26-.28,12.25,12.25,0,0,0,1.39-1.76c.07-.12.2-.31.37-.57s.29-.43.38-.58a6.65,6.65,0,0,0,.41-.88,1.49,1.49,0,0,0,0-1.14l-.33-.62a3,3,0,0,0-.77-.88,1.35,1.35,0,0,0-.62-.26,2.64,2.64,0,0,0-1.34.15,4.92,4.92,0,0,1-1.23.31Zm-1.63,20.71h.16s0,0,0,0a.25.25,0,0,0-.37,0h0Zm-.24,0h0Zm.46-2.27a.94.94,0,0,1,.42.82s0,.05,0,.06a.16.16,0,0,1-.09,0,2.45,2.45,0,0,1-.48-.31v0l.15-.09a.26.26,0,0,0,.11-.26,2.3,2.3,0,0,0,0-.27Zm-.09,2.25h0Zm.71,1.69a2,2,0,0,1-.24-.7.41.41,0,0,1,.08-.27.7.7,0,0,1,.58-.28.35.35,0,0,1,.39.33V288a1.12,1.12,0,0,0,.16.64l0,0a2.15,2.15,0,0,1-.62,0,2.34,2.34,0,0,0,.07-.35.13.13,0,0,0-.09-.15.18.18,0,0,0-.17,0,.66.66,0,0,0-.16.22,1.23,1.23,0,0,0,0,.46Zm1-1.54a2.08,2.08,0,0,1,.68.24.38.38,0,0,1,.11.16.68.68,0,0,1,0,.35h0a.93.93,0,0,1,.55.53,1.84,1.84,0,0,1,.18.94c0,.22,0,.35,0,.38a1.66,1.66,0,0,0,.25,1.12.2.2,0,0,1,0,.29,2.76,2.76,0,0,0-.48.46.23.23,0,0,1-.35,0,1.34,1.34,0,0,1-.64-.7,2,2,0,0,0-.29-.51.56.56,0,0,1-.11-.26.5.5,0,0,0-.28-.37l-.16-.14a.3.3,0,0,1-.15-.22s-.07-.27-.22-.77v0a.14.14,0,0,1,.09,0h.11l.15.11a.65.65,0,0,0,.57.2,2.12,2.12,0,0,1,.47,0v0l.08-.15c.08-.1,0-.16-.08-.18a.55.55,0,0,1-.4-.22l0,0,.15-.38a.81.81,0,0,0,0-.55s-.06-.18-.13-.46Zm-.59,1.32a3.11,3.11,0,0,1-.22.24A3.11,3.11,0,0,0,233.39,288.55ZM233.21,266l0,0v0Zm.42,21.13a.35.35,0,0,1-.22-.31c0-.08,0-.13.11-.13a.48.48,0,0,1,.37.27,2.87,2.87,0,0,0,.09.28l0,0Zm-.09-22.64s0,0-.07,0-.05.09,0,.11l.06,0Zm.06,20.75.05,0,0,0Zm.05,0,0,.06,0,0Zm.15-.77v0Zm.11,1.47a.67.67,0,0,1,0,.18l0,0C233.94,286,233.93,286,233.91,285.91Zm0,.18a.11.11,0,0,1,.11.13s0,0-.07,0a.15.15,0,0,1,0-.17Zm1.14-10a.23.23,0,0,0-.07-.07c-.11,0-.18,0-.19.11s0,.1.08.13S235.14,276.25,235.08,276.12Zm1.14-.13a2.83,2.83,0,0,0,.33-.27,1.69,1.69,0,0,1,.36-.26l.19-.2a.39.39,0,0,0,.11-.15c0-.08,0-.14,0-.18a.13.13,0,0,0-.17,0,1.2,1.2,0,0,0-.36.13,1.42,1.42,0,0,0-.63.55.52.52,0,0,0-.09.17.23.23,0,0,0,.2.27Zm.62-4c0-.08-.06-.11-.13-.06s-.07,0-.07.06.06.1.13.07Zm3.21.29,0,0c0-.09,0-.13-.09-.11a.08.08,0,0,0-.07,0l0,.29a.12.12,0,0,0-.15,0c-.05,0,0,.07,0,.07s.09,0,.11-.11Z" transform="translate(-30.76 -38.22)"/><path class="cls-2" d="M204.93,206.09l-.89-5.93v-7l-.59-3.49-.59-2.3.59-3.49-.59-1.63-1,.67-1-.67H200l-.82,1.34-.81,2.3L197,187.55l-1.41-.52-.67,1.78-.74.3-1.41-.3-1.86-2.08-2.15-.89-1.85-1-1.26-1.68-.52-2.45-.52-2.22-.3-1v-3.41L182.9,173v-9.57l.89-1.63V160.1l.15-1.7-.67-1.41-.37-1.78v-3.56l1.63-.38.37-.74.23-1.26.66-1.7-.22-1,1.11-.37.52-.78s.75-.69.72-.76a4,4,0,0,1,0-.64l1.13.65.88,1.48.82,1.16,1,.3,1.31.41.54-1.19,1.11-.45L193.47,144l3.28.47,1.17-1.22.45-2.67-2-2.51-.9-2.11-2.05-.5-2.17-1-.67.89-1.34,0,.39,1.5-1.33-.39-1.11-1.5-1.95.78-1.84-.05.67.89,1.5.5,1.73.89v.78l1.33,1.5.39,1.5h-1.28l-1.11-1.56-1.39-1.61-2-.34h-.9l-.38,1.17-.51,1.12v1.11l.89.61.51,1.45.77,1.44.06,1.34.11,1.83L183,150l-1.22.89-1.5.23-.95-.56-.78-1.45-2.06-2.05V146l-1.17-1.45,1.17-.83,1.06-1.06,1.34-.17.72-.61-1-.83-1.73-1.39-1.17-.73-2.22-.44.33-.67,1-.17-.44-1-.06-.67.45-.39-.67-1.11-.61-1.28-.89-2.84-.72-1.61-.9-1-.77-.89.77-.45-1.22-.83h-1.28l-.44,1.06-2-.06L164.88,125l-1.34-1.56-2.45-2.34-2-1.61-2.33-1.84-1.34-2v-1h.95l.72-.56h1.39l.06-.61L155.47,112l-1.89-1.89h2.95l4.12,2.12-.11,2.44.22,1.73,1.67,1.61,3.67,3.56,2,1.17,2.17,1.73,2.11,2.83,1.22.23.23-1.34-.89-1.89-2.67-1.84-2.45-2.33-2.45-1.5-.17-2.68,4.34-.36,2.51.31,2.33,2.34,1.95,3.33,1.5-1.11,2.78,2.89,1.34,3.84.22,2,2.39,2.17,1,.28-.23-1.95-1.11-1-1.17-2,.5-1.56-1.22-2.33,1.89.89,2.89,3.78,2,1.89,3.73,3.23L194.7,135l.94.61,1.28,1.78,2.28,3.79L204.6,152l1.78,6.51,2.06,7.84.83,10.57v9.46l-.72,9.46-1.28,5.45-1.39,4.78-.78,1.78Z" transform="translate(-30.76 -38.22)"/></svg>