<svg xmlns="http://www.w3.org/2000/svg" viewBox="0 0 446.75 299.13"><defs><style>.cls-1{fill:#007aff;}.cls-1,.cls-2,.cls-3,.cls-5{stroke:#333;}.cls-1,.cls-2,.cls-3,.cls-4,.cls-5,.cls-6{stroke-miterlimit:10;}.cls-1,.cls-2,.cls-3,.cls-4,.cls-5{stroke-width:8px;}.cls-2,.cls-7{fill:#fff;}.cls-3,.cls-4{fill:none;}.cls-4,.cls-6{stroke:#000;}.cls-5{fill:#5b5b5b;}.cls-6{fill:#939393;stroke-width:24px;}</style></defs><title>Asset 1</title><g id="Layer_2" data-name="Layer 2"><g id="Layer_1-2" data-name="Layer 1"><rect class="cls-1" x="20.25" y="4" width="257.5" height="235.5" rx="12"/><path class="cls-2" d="M415.56,239.5H292.19a14.43,14.43,0,0,1-14.44-14.44V82.75a13.49,13.49,0,0,1,13.5-13.5h73.56a17.44,17.44,0,0,1,14.81,8.22l44,70.57a25.61,25.61,0,0,1,3.88,13.8l-.57,61.85C426.89,230.88,423.75,239.5,415.56,239.5Z"/><path class="cls-3" d="M362.12,87.15c-.85-2.28-6.82-3.82-9.47-3.82H298.1c-4.13,0-7.48,2.69-7.48,6v63.46c0,3.56,3.58,6.44,8,6.44h99.31c3.25,0,4.33-2.66,4.66-5.23a5.71,5.71,0,0,0-.87-3.78Z"/><line class="cls-4" x1="290.62" y1="180.63" x2="313" y2="180.63"/><rect class="cls-5" x="4" y="218.12" width="438.75" height="26.25" rx="12"/><circle class="cls-6" cx="83" cy="252.62" r="34.5"/><circle class="cls-6" cx="346.62" cy="252.62" r="34.5"/><path class="cls-7" d="M188.65,90.64A206.45,206.45,0,0,1,169.48,67.2c-6.15-8.87-12.6-19-14.2-29.91a25,25,0,0,1-.28-3.67c0,.79,0,1.57-.11,2.35,0,.28,0,.56-.08.85-.82,6.86-4.08,13.53-7.39,19.42a161.41,161.41,0,0,1-14.91,21.67q-5.39,6.75-11.35,13c-1.9,2-4.09,3.83-5.79,6a62.54,62.54,0,0,0-4.36,6,51.8,51.8,0,1,0,86.79-1.83,67.5,67.5,0,0,0-7.26-8.41Z"/></g></g></svg>